<svg width="277" height="301" viewBox="0 0 277 301" fill="none" xmlns="http://www.w3.org/2000/svg">
<path d="M30.1056 19.954C30.1936 19.954 30.2716 19.988 30.3396 20.056L30.9756 20.746C30.6236 21.182 30.1896 21.516 29.6736 21.748C29.1616 21.98 28.5456 22.096 27.8256 22.096C27.1816 22.096 26.6016 21.986 26.0856 21.766C25.5736 21.546 25.1356 21.24 24.7716 20.848C24.4076 20.456 24.1276 19.988 23.9316 19.444C23.7396 18.9 23.6436 18.306 23.6436 17.662C23.6436 17.01 23.7476 16.414 23.9556 15.874C24.1636 15.33 24.4556 14.862 24.8316 14.47C25.2116 14.078 25.6636 13.774 26.1876 13.558C26.7116 13.338 27.2916 13.228 27.9276 13.228C28.5596 13.228 29.1196 13.332 29.6076 13.54C30.0996 13.748 30.5176 14.02 30.8616 14.356L30.3216 15.106C30.2896 15.154 30.2476 15.196 30.1956 15.232C30.1476 15.268 30.0796 15.286 29.9916 15.286C29.9316 15.286 29.8696 15.27 29.8056 15.238C29.7416 15.202 29.6716 15.16 29.5956 15.112C29.5196 15.06 29.4316 15.004 29.3316 14.944C29.2316 14.884 29.1156 14.83 28.9836 14.782C28.8516 14.73 28.6976 14.688 28.5216 14.656C28.3496 14.62 28.1496 14.602 27.9216 14.602C27.5336 14.602 27.1776 14.672 26.8536 14.812C26.5336 14.948 26.2576 15.148 26.0256 15.412C25.7936 15.672 25.6136 15.992 25.4856 16.372C25.3576 16.748 25.2936 17.178 25.2936 17.662C25.2936 18.15 25.3616 18.584 25.4976 18.964C25.6376 19.344 25.8256 19.664 26.0616 19.924C26.2976 20.184 26.5756 20.384 26.8956 20.524C27.2156 20.66 27.5596 20.728 27.9276 20.728C28.1476 20.728 28.3456 20.716 28.5216 20.692C28.7016 20.668 28.8656 20.63 29.0136 20.578C29.1656 20.526 29.3076 20.46 29.4396 20.38C29.5756 20.296 29.7096 20.194 29.8416 20.074C29.8816 20.038 29.9236 20.01 29.9676 19.99C30.0116 19.966 30.0576 19.954 30.1056 19.954ZM33.3472 13.084V22H31.8652V13.084H33.3472ZM36.3598 15.844V22H34.8718V15.844H36.3598ZM36.5638 14.05C36.5638 14.178 36.5378 14.298 36.4858 14.41C36.4338 14.522 36.3638 14.62 36.2758 14.704C36.1918 14.788 36.0918 14.856 35.9758 14.908C35.8598 14.956 35.7358 14.98 35.6038 14.98C35.4758 14.98 35.3538 14.956 35.2378 14.908C35.1258 14.856 35.0278 14.788 34.9438 14.704C34.8598 14.62 34.7918 14.522 34.7398 14.41C34.6918 14.298 34.6678 14.178 34.6678 14.05C34.6678 13.918 34.6918 13.794 34.7398 13.678C34.7918 13.562 34.8598 13.462 34.9438 13.378C35.0278 13.294 35.1258 13.228 35.2378 13.18C35.3538 13.128 35.4758 13.102 35.6038 13.102C35.7358 13.102 35.8598 13.128 35.9758 13.18C36.0918 13.228 36.1918 13.294 36.2758 13.378C36.3638 13.462 36.4338 13.562 36.4858 13.678C36.5378 13.794 36.5638 13.918 36.5638 14.05ZM39.2567 16.6C39.3807 16.476 39.5107 16.362 39.6467 16.258C39.7867 16.15 39.9327 16.06 40.0847 15.988C40.2407 15.912 40.4067 15.854 40.5827 15.814C40.7587 15.77 40.9507 15.748 41.1587 15.748C41.4947 15.748 41.7927 15.806 42.0527 15.922C42.3127 16.034 42.5287 16.194 42.7007 16.402C42.8767 16.606 43.0087 16.852 43.0967 17.14C43.1887 17.424 43.2347 17.738 43.2347 18.082V22H41.7527V18.082C41.7527 17.706 41.6667 17.416 41.4947 17.212C41.3227 17.004 41.0607 16.9 40.7087 16.9C40.4527 16.9 40.2127 16.958 39.9887 17.074C39.7647 17.19 39.5527 17.348 39.3527 17.548V22H37.8707V15.844H38.7767C38.9687 15.844 39.0947 15.934 39.1547 16.114L39.2567 16.6ZM46.1801 15.844V22H44.6921V15.844H46.1801ZM46.3841 14.05C46.3841 14.178 46.3581 14.298 46.3061 14.41C46.2541 14.522 46.1841 14.62 46.0961 14.704C46.0121 14.788 45.9121 14.856 45.7961 14.908C45.6801 14.956 45.5561 14.98 45.4241 14.98C45.2961 14.98 45.1741 14.956 45.0581 14.908C44.9461 14.856 44.8481 14.788 44.7641 14.704C44.6801 14.62 44.6121 14.522 44.5601 14.41C44.5121 14.298 44.4881 14.178 44.4881 14.05C44.4881 13.918 44.5121 13.794 44.5601 13.678C44.6121 13.562 44.6801 13.462 44.7641 13.378C44.8481 13.294 44.9461 13.228 45.0581 13.18C45.1741 13.128 45.2961 13.102 45.4241 13.102C45.5561 13.102 45.6801 13.128 45.7961 13.18C45.9121 13.228 46.0121 13.294 46.0961 13.378C46.1841 13.462 46.2541 13.562 46.3061 13.678C46.3581 13.794 46.3841 13.918 46.3841 14.05ZM52.101 17.146C52.057 17.202 52.013 17.246 51.969 17.278C51.929 17.31 51.869 17.326 51.789 17.326C51.713 17.326 51.639 17.304 51.567 17.26C51.495 17.212 51.409 17.16 51.309 17.104C51.209 17.044 51.089 16.992 50.949 16.948C50.813 16.9 50.643 16.876 50.439 16.876C50.179 16.876 49.951 16.924 49.755 17.02C49.559 17.112 49.395 17.246 49.263 17.422C49.135 17.598 49.039 17.812 48.975 18.064C48.911 18.312 48.879 18.594 48.879 18.91C48.879 19.238 48.913 19.53 48.981 19.786C49.053 20.042 49.155 20.258 49.287 20.434C49.419 20.606 49.579 20.738 49.767 20.83C49.955 20.918 50.167 20.962 50.403 20.962C50.639 20.962 50.829 20.934 50.973 20.878C51.121 20.818 51.245 20.754 51.345 20.686C51.445 20.614 51.531 20.55 51.603 20.494C51.679 20.434 51.763 20.404 51.855 20.404C51.975 20.404 52.065 20.45 52.125 20.542L52.551 21.082C52.387 21.274 52.209 21.436 52.017 21.568C51.825 21.696 51.625 21.8 51.417 21.88C51.213 21.956 51.001 22.01 50.781 22.042C50.565 22.074 50.349 22.09 50.133 22.09C49.753 22.09 49.395 22.02 49.059 21.88C48.723 21.736 48.429 21.528 48.177 21.256C47.925 20.984 47.725 20.652 47.577 20.26C47.433 19.864 47.361 19.414 47.361 18.91C47.361 18.458 47.425 18.04 47.553 17.656C47.685 17.268 47.877 16.934 48.129 16.654C48.381 16.37 48.693 16.148 49.065 15.988C49.437 15.828 49.865 15.748 50.349 15.748C50.809 15.748 51.211 15.822 51.555 15.97C51.903 16.118 52.215 16.33 52.491 16.606L52.101 17.146ZM56.732 19.372C56.304 19.392 55.944 19.43 55.652 19.486C55.36 19.538 55.126 19.606 54.95 19.69C54.774 19.774 54.648 19.872 54.572 19.984C54.496 20.096 54.458 20.218 54.458 20.35C54.458 20.61 54.534 20.796 54.686 20.908C54.842 21.02 55.044 21.076 55.292 21.076C55.596 21.076 55.858 21.022 56.078 20.914C56.302 20.802 56.52 20.634 56.732 20.41V19.372ZM53.336 16.702C54.044 16.054 54.896 15.73 55.892 15.73C56.252 15.73 56.574 15.79 56.858 15.91C57.142 16.026 57.382 16.19 57.578 16.402C57.774 16.61 57.922 16.86 58.022 17.152C58.126 17.444 58.178 17.764 58.178 18.112V22H57.506C57.366 22 57.258 21.98 57.182 21.94C57.106 21.896 57.046 21.81 57.002 21.682L56.87 21.238C56.714 21.378 56.562 21.502 56.414 21.61C56.266 21.714 56.112 21.802 55.952 21.874C55.792 21.946 55.62 22 55.436 22.036C55.256 22.076 55.056 22.096 54.836 22.096C54.576 22.096 54.336 22.062 54.116 21.994C53.896 21.922 53.706 21.816 53.546 21.676C53.386 21.536 53.262 21.362 53.174 21.154C53.086 20.946 53.042 20.704 53.042 20.428C53.042 20.272 53.068 20.118 53.12 19.966C53.172 19.81 53.256 19.662 53.372 19.522C53.492 19.382 53.646 19.25 53.834 19.126C54.022 19.002 54.252 18.894 54.524 18.802C54.8 18.71 55.12 18.636 55.484 18.58C55.848 18.52 56.264 18.484 56.732 18.472V18.112C56.732 17.7 56.644 17.396 56.468 17.2C56.292 17 56.038 16.9 55.706 16.9C55.466 16.9 55.266 16.928 55.106 16.984C54.95 17.04 54.812 17.104 54.692 17.176C54.572 17.244 54.462 17.306 54.362 17.362C54.266 17.418 54.158 17.446 54.038 17.446C53.934 17.446 53.846 17.42 53.774 17.368C53.702 17.312 53.644 17.248 53.6 17.176L53.336 16.702ZM61.0738 13.084V22H59.5918V13.084H61.0738ZM18.7941 32.724L17.7381 29.838C17.6861 29.71 17.6321 29.558 17.5761 29.382C17.5201 29.206 17.4641 29.016 17.4081 28.812C17.3561 29.016 17.3021 29.208 17.2461 29.388C17.1901 29.564 17.1361 29.718 17.0841 29.85L16.0341 32.724H18.7941ZM21.6441 36H20.3961C20.2561 36 20.1421 35.966 20.0541 35.898C19.9661 35.826 19.9001 35.738 19.8561 35.634L19.2081 33.864H15.6141L14.9661 35.634C14.9341 35.726 14.8721 35.81 14.7801 35.886C14.6881 35.962 14.5741 36 14.4381 36H13.1781L16.5921 27.324H18.2361L21.6441 36ZM23.7965 27.084V36H22.3145V27.084H23.7965ZM27.523 32.772C27.707 32.772 27.867 32.748 28.003 32.7C28.139 32.648 28.251 32.578 28.339 32.49C28.431 32.402 28.499 32.296 28.543 32.172C28.591 32.048 28.615 31.912 28.615 31.764C28.615 31.46 28.523 31.22 28.339 31.044C28.159 30.864 27.887 30.774 27.523 30.774C27.159 30.774 26.885 30.864 26.701 31.044C26.521 31.22 26.431 31.46 26.431 31.764C26.431 31.908 26.453 32.042 26.497 32.166C26.545 32.29 26.613 32.398 26.701 32.49C26.793 32.578 26.907 32.648 27.043 32.7C27.183 32.748 27.343 32.772 27.523 32.772ZM29.197 36.276C29.197 36.156 29.161 36.058 29.089 35.982C29.017 35.906 28.919 35.848 28.795 35.808C28.671 35.764 28.525 35.732 28.357 35.712C28.193 35.692 28.017 35.678 27.829 35.67C27.645 35.658 27.453 35.648 27.253 35.64C27.057 35.632 26.865 35.616 26.677 35.592C26.513 35.684 26.379 35.792 26.275 35.916C26.175 36.04 26.125 36.184 26.125 36.348C26.125 36.456 26.151 36.556 26.203 36.648C26.259 36.744 26.345 36.826 26.461 36.894C26.581 36.962 26.735 37.014 26.923 37.05C27.111 37.09 27.341 37.11 27.613 37.11C27.889 37.11 28.127 37.088 28.327 37.044C28.527 37.004 28.691 36.946 28.819 36.87C28.951 36.798 29.047 36.71 29.107 36.606C29.167 36.506 29.197 36.396 29.197 36.276ZM30.673 30.054V30.606C30.673 30.782 30.567 30.89 30.355 30.93L29.803 31.032C29.887 31.244 29.929 31.476 29.929 31.728C29.929 32.032 29.867 32.308 29.743 32.556C29.623 32.8 29.455 33.008 29.239 33.18C29.023 33.352 28.767 33.486 28.471 33.582C28.179 33.674 27.863 33.72 27.523 33.72C27.403 33.72 27.287 33.714 27.175 33.702C27.063 33.69 26.953 33.674 26.845 33.654C26.653 33.77 26.557 33.9 26.557 34.044C26.557 34.168 26.613 34.26 26.725 34.32C26.841 34.376 26.993 34.416 27.181 34.44C27.369 34.464 27.583 34.48 27.823 34.488C28.063 34.492 28.309 34.504 28.561 34.524C28.813 34.544 29.059 34.58 29.299 34.632C29.539 34.68 29.753 34.758 29.941 34.866C30.129 34.974 30.279 35.122 30.391 35.31C30.507 35.494 30.565 35.732 30.565 36.024C30.565 36.296 30.497 36.56 30.361 36.816C30.229 37.072 30.035 37.3 29.779 37.5C29.527 37.7 29.215 37.86 28.843 37.98C28.475 38.104 28.055 38.166 27.583 38.166C27.119 38.166 26.715 38.12 26.371 38.028C26.027 37.94 25.741 37.82 25.513 37.668C25.285 37.52 25.115 37.348 25.003 37.152C24.891 36.956 24.835 36.752 24.835 36.54C24.835 36.252 24.921 36.012 25.093 35.82C25.269 35.624 25.509 35.468 25.813 35.352C25.649 35.268 25.519 35.156 25.423 35.016C25.327 34.876 25.279 34.692 25.279 34.464C25.279 34.372 25.295 34.278 25.327 34.182C25.363 34.082 25.413 33.984 25.477 33.888C25.545 33.792 25.629 33.702 25.729 33.618C25.829 33.53 25.947 33.452 26.083 33.384C25.771 33.216 25.525 32.992 25.345 32.712C25.169 32.432 25.081 32.104 25.081 31.728C25.081 31.424 25.141 31.15 25.261 30.906C25.385 30.658 25.555 30.448 25.771 30.276C25.991 30.1 26.249 29.966 26.545 29.874C26.845 29.782 27.171 29.736 27.523 29.736C27.787 29.736 28.035 29.764 28.267 29.82C28.499 29.872 28.711 29.95 28.903 30.054H30.673ZM34.2314 29.748C34.6874 29.748 35.1014 29.822 35.4734 29.97C35.8494 30.118 36.1694 30.328 36.4334 30.6C36.7014 30.872 36.9074 31.204 37.0514 31.596C37.1954 31.988 37.2674 32.426 37.2674 32.91C37.2674 33.398 37.1954 33.838 37.0514 34.23C36.9074 34.622 36.7014 34.956 36.4334 35.232C36.1694 35.508 35.8494 35.72 35.4734 35.868C35.1014 36.016 34.6874 36.09 34.2314 36.09C33.7714 36.09 33.3534 36.016 32.9774 35.868C32.6014 35.72 32.2794 35.508 32.0114 35.232C31.7474 34.956 31.5414 34.622 31.3934 34.23C31.2494 33.838 31.1774 33.398 31.1774 32.91C31.1774 32.426 31.2494 31.988 31.3934 31.596C31.5414 31.204 31.7474 30.872 32.0114 30.6C32.2794 30.328 32.6014 30.118 32.9774 29.97C33.3534 29.822 33.7714 29.748 34.2314 29.748ZM34.2314 34.95C34.7434 34.95 35.1214 34.778 35.3654 34.434C35.6134 34.09 35.7374 33.586 35.7374 32.922C35.7374 32.258 35.6134 31.752 35.3654 31.404C35.1214 31.056 34.7434 30.882 34.2314 30.882C33.7114 30.882 33.3254 31.058 33.0734 31.41C32.8254 31.758 32.7014 32.262 32.7014 32.922C32.7014 33.582 32.8254 34.086 33.0734 34.434C33.3254 34.778 33.7114 34.95 34.2314 34.95ZM39.796 30.912C39.988 30.544 40.216 30.256 40.48 30.048C40.744 29.836 41.056 29.73 41.416 29.73C41.7 29.73 41.928 29.792 42.1 29.916L42.004 31.026C41.984 31.098 41.954 31.15 41.914 31.182C41.878 31.21 41.828 31.224 41.764 31.224C41.704 31.224 41.614 31.214 41.494 31.194C41.378 31.174 41.264 31.164 41.152 31.164C40.988 31.164 40.842 31.188 40.714 31.236C40.586 31.284 40.47 31.354 40.366 31.446C40.266 31.534 40.176 31.642 40.096 31.77C40.02 31.898 39.948 32.044 39.88 32.208V36H38.398V29.844H39.268C39.42 29.844 39.526 29.872 39.586 29.928C39.646 29.98 39.686 30.076 39.706 30.216L39.796 30.912ZM44.4106 29.844V36H42.9226V29.844H44.4106ZM44.6146 28.05C44.6146 28.178 44.5886 28.298 44.5366 28.41C44.4846 28.522 44.4146 28.62 44.3266 28.704C44.2426 28.788 44.1426 28.856 44.0266 28.908C43.9106 28.956 43.7866 28.98 43.6546 28.98C43.5266 28.98 43.4046 28.956 43.2886 28.908C43.1766 28.856 43.0786 28.788 42.9946 28.704C42.9106 28.62 42.8426 28.522 42.7906 28.41C42.7426 28.298 42.7186 28.178 42.7186 28.05C42.7186 27.918 42.7426 27.794 42.7906 27.678C42.8426 27.562 42.9106 27.462 42.9946 27.378C43.0786 27.294 43.1766 27.228 43.2886 27.18C43.4046 27.128 43.5266 27.102 43.6546 27.102C43.7866 27.102 43.9106 27.128 44.0266 27.18C44.1426 27.228 44.2426 27.294 44.3266 27.378C44.4146 27.462 44.4846 27.562 44.5366 27.678C44.5886 27.794 44.6146 27.918 44.6146 28.05ZM47.9735 36.096C47.4375 36.096 47.0255 35.946 46.7375 35.646C46.4535 35.342 46.3115 34.924 46.3115 34.392V30.954H45.6815C45.6015 30.954 45.5335 30.928 45.4775 30.876C45.4215 30.824 45.3935 30.746 45.3935 30.642V30.054L46.3835 29.892L46.6955 28.212C46.7155 28.132 46.7535 28.07 46.8095 28.026C46.8655 27.982 46.9375 27.96 47.0255 27.96H47.7935V29.898H49.4375V30.954H47.7935V34.29C47.7935 34.482 47.8395 34.632 47.9315 34.74C48.0275 34.848 48.1575 34.902 48.3215 34.902C48.4135 34.902 48.4895 34.892 48.5495 34.872C48.6135 34.848 48.6675 34.824 48.7115 34.8C48.7595 34.776 48.8015 34.754 48.8375 34.734C48.8735 34.71 48.9095 34.698 48.9455 34.698C48.9895 34.698 49.0255 34.71 49.0535 34.734C49.0815 34.754 49.1115 34.786 49.1435 34.83L49.5875 35.55C49.3715 35.73 49.1235 35.866 48.8435 35.958C48.5635 36.05 48.2735 36.096 47.9735 36.096ZM51.8683 30.504C52.1083 30.28 52.3723 30.098 52.6603 29.958C52.9483 29.818 53.2863 29.748 53.6743 29.748C54.0103 29.748 54.3083 29.806 54.5683 29.922C54.8283 30.034 55.0443 30.194 55.2163 30.402C55.3923 30.606 55.5243 30.852 55.6123 31.14C55.7043 31.424 55.7503 31.738 55.7503 32.082V36H54.2683V32.082C54.2683 31.706 54.1823 31.416 54.0103 31.212C53.8383 31.004 53.5763 30.9 53.2243 30.9C52.9683 30.9 52.7283 30.958 52.5043 31.074C52.2803 31.19 52.0683 31.348 51.8683 31.548V36H50.3863V27.084H51.8683V30.504ZM57.1597 36V29.844H58.0657C58.2577 29.844 58.3837 29.934 58.4437 30.114L58.5397 30.57C58.6477 30.45 58.7597 30.34 58.8757 30.24C58.9957 30.14 59.1217 30.054 59.2537 29.982C59.3897 29.91 59.5337 29.854 59.6857 29.814C59.8417 29.77 60.0117 29.748 60.1957 29.748C60.5837 29.748 60.9017 29.854 61.1497 30.066C61.4017 30.274 61.5897 30.552 61.7137 30.9C61.8097 30.696 61.9297 30.522 62.0737 30.378C62.2177 30.23 62.3757 30.11 62.5477 30.018C62.7197 29.926 62.9017 29.858 63.0937 29.814C63.2897 29.77 63.4857 29.748 63.6817 29.748C64.0217 29.748 64.3237 29.8 64.5877 29.904C64.8517 30.008 65.0737 30.16 65.2537 30.36C65.4337 30.56 65.5697 30.804 65.6617 31.092C65.7577 31.38 65.8057 31.71 65.8057 32.082V36H64.3237V32.082C64.3237 31.69 64.2377 31.396 64.0657 31.2C63.8937 31 63.6417 30.9 63.3097 30.9C63.1577 30.9 63.0157 30.926 62.8837 30.978C62.7557 31.03 62.6417 31.106 62.5417 31.206C62.4457 31.302 62.3697 31.424 62.3137 31.572C62.2577 31.72 62.2297 31.89 62.2297 32.082V36H60.7417V32.082C60.7417 31.67 60.6577 31.37 60.4897 31.182C60.3257 30.994 60.0837 30.9 59.7637 30.9C59.5477 30.9 59.3457 30.954 59.1577 31.062C58.9737 31.166 58.8017 31.31 58.6417 31.494V36H57.1597ZM70.9704 31.044C70.9304 31.108 70.8884 31.154 70.8444 31.182C70.8004 31.206 70.7444 31.218 70.6764 31.218C70.6044 31.218 70.5264 31.198 70.4424 31.158C70.3624 31.118 70.2684 31.074 70.1604 31.026C70.0524 30.974 69.9284 30.928 69.7884 30.888C69.6524 30.848 69.4904 30.828 69.3024 30.828C69.0104 30.828 68.7804 30.89 68.6124 31.014C68.4484 31.138 68.3664 31.3 68.3664 31.5C68.3664 31.632 68.4084 31.744 68.4924 31.836C68.5804 31.924 68.6944 32.002 68.8344 32.07C68.9784 32.138 69.1404 32.2 69.3204 32.256C69.5004 32.308 69.6824 32.366 69.8664 32.43C70.0544 32.494 70.2384 32.568 70.4184 32.652C70.5984 32.732 70.7584 32.836 70.8984 32.964C71.0424 33.088 71.1564 33.238 71.2404 33.414C71.3284 33.59 71.3724 33.802 71.3724 34.05C71.3724 34.346 71.3184 34.62 71.2104 34.872C71.1064 35.12 70.9504 35.336 70.7424 35.52C70.5344 35.7 70.2764 35.842 69.9684 35.946C69.6644 36.046 69.3124 36.096 68.9124 36.096C68.7004 36.096 68.4924 36.076 68.2884 36.036C68.0884 36 67.8944 35.948 67.7064 35.88C67.5224 35.812 67.3504 35.732 67.1904 35.64C67.0344 35.548 66.8964 35.448 66.7764 35.34L67.1184 34.776C67.1624 34.708 67.2144 34.656 67.2744 34.62C67.3344 34.584 67.4104 34.566 67.5024 34.566C67.5944 34.566 67.6804 34.592 67.7604 34.644C67.8444 34.696 67.9404 34.752 68.0484 34.812C68.1564 34.872 68.2824 34.928 68.4264 34.98C68.5744 35.032 68.7604 35.058 68.9844 35.058C69.1604 35.058 69.3104 35.038 69.4344 34.998C69.5624 34.954 69.6664 34.898 69.7464 34.83C69.8304 34.762 69.8904 34.684 69.9264 34.596C69.9664 34.504 69.9864 34.41 69.9864 34.314C69.9864 34.17 69.9424 34.052 69.8544 33.96C69.7704 33.868 69.6564 33.788 69.5124 33.72C69.3724 33.652 69.2104 33.592 69.0264 33.54C68.8464 33.484 68.6604 33.424 68.4684 33.36C68.2804 33.296 68.0944 33.222 67.9104 33.138C67.7304 33.05 67.5684 32.94 67.4244 32.808C67.2844 32.676 67.1704 32.514 67.0824 32.322C66.9984 32.13 66.9564 31.898 66.9564 31.626C66.9564 31.374 67.0064 31.134 67.1064 30.906C67.2064 30.678 67.3524 30.48 67.5444 30.312C67.7404 30.14 67.9824 30.004 68.2704 29.904C68.5624 29.8 68.8984 29.748 69.2784 29.748C69.7024 29.748 70.0884 29.818 70.4364 29.958C70.7844 30.098 71.0744 30.282 71.3064 30.51L70.9704 31.044Z" fill="black"/>
<rect x="0.5" y="0.5" width="84" height="47" rx="9.5" stroke="black"/>
<path d="M113.912 17.452C114.216 17.452 114.48 17.414 114.704 17.338C114.932 17.262 115.118 17.158 115.262 17.026C115.41 16.89 115.52 16.73 115.592 16.546C115.664 16.362 115.7 16.16 115.7 15.94C115.7 15.5 115.554 15.162 115.262 14.926C114.974 14.69 114.532 14.572 113.936 14.572H112.904V17.452H113.912ZM118.064 22H116.606C116.33 22 116.13 21.892 116.006 21.676L114.182 18.898C114.114 18.794 114.038 18.72 113.954 18.676C113.874 18.632 113.754 18.61 113.594 18.61H112.904V22H111.29V13.324H113.936C114.524 13.324 115.028 13.386 115.448 13.51C115.872 13.63 116.218 13.8 116.486 14.02C116.758 14.24 116.958 14.504 117.086 14.812C117.214 15.116 117.278 15.452 117.278 15.82C117.278 16.112 117.234 16.388 117.146 16.648C117.062 16.908 116.938 17.144 116.774 17.356C116.614 17.568 116.414 17.754 116.174 17.914C115.938 18.074 115.668 18.2 115.364 18.292C115.468 18.352 115.564 18.424 115.652 18.508C115.74 18.588 115.82 18.684 115.892 18.796L118.064 22ZM122.335 18.214C122.335 18.022 122.307 17.842 122.251 17.674C122.199 17.502 122.119 17.352 122.011 17.224C121.903 17.096 121.765 16.996 121.597 16.924C121.433 16.848 121.241 16.81 121.021 16.81C120.593 16.81 120.255 16.932 120.007 17.176C119.763 17.42 119.607 17.766 119.539 18.214H122.335ZM119.509 19.108C119.533 19.424 119.589 19.698 119.677 19.93C119.765 20.158 119.881 20.348 120.025 20.5C120.169 20.648 120.339 20.76 120.535 20.836C120.735 20.908 120.955 20.944 121.195 20.944C121.435 20.944 121.641 20.916 121.813 20.86C121.989 20.804 122.141 20.742 122.269 20.674C122.401 20.606 122.515 20.544 122.611 20.488C122.711 20.432 122.807 20.404 122.899 20.404C123.023 20.404 123.115 20.45 123.175 20.542L123.601 21.082C123.437 21.274 123.253 21.436 123.049 21.568C122.845 21.696 122.631 21.8 122.407 21.88C122.187 21.956 121.961 22.01 121.729 22.042C121.501 22.074 121.279 22.09 121.063 22.09C120.635 22.09 120.237 22.02 119.869 21.88C119.501 21.736 119.181 21.526 118.909 21.25C118.637 20.97 118.423 20.626 118.267 20.218C118.111 19.806 118.033 19.33 118.033 18.79C118.033 18.37 118.101 17.976 118.237 17.608C118.373 17.236 118.567 16.914 118.819 16.642C119.075 16.366 119.385 16.148 119.749 15.988C120.117 15.828 120.531 15.748 120.991 15.748C121.379 15.748 121.737 15.81 122.065 15.934C122.393 16.058 122.675 16.24 122.911 16.48C123.147 16.716 123.331 17.008 123.463 17.356C123.599 17.7 123.667 18.094 123.667 18.538C123.667 18.762 123.643 18.914 123.595 18.994C123.547 19.07 123.455 19.108 123.319 19.108H119.509ZM126.165 16.6C126.289 16.476 126.419 16.362 126.555 16.258C126.695 16.15 126.841 16.06 126.993 15.988C127.149 15.912 127.315 15.854 127.491 15.814C127.667 15.77 127.859 15.748 128.067 15.748C128.403 15.748 128.701 15.806 128.961 15.922C129.221 16.034 129.437 16.194 129.609 16.402C129.785 16.606 129.917 16.852 130.005 17.14C130.097 17.424 130.143 17.738 130.143 18.082V22H128.661V18.082C128.661 17.706 128.575 17.416 128.403 17.212C128.231 17.004 127.969 16.9 127.617 16.9C127.361 16.9 127.121 16.958 126.897 17.074C126.673 17.19 126.461 17.348 126.261 17.548V22H124.779V15.844H125.685C125.877 15.844 126.003 15.934 126.063 16.114L126.165 16.6ZM135.416 17.416C135.248 17.212 135.064 17.068 134.864 16.984C134.668 16.9 134.456 16.858 134.228 16.858C134.004 16.858 133.802 16.9 133.622 16.984C133.442 17.068 133.288 17.196 133.16 17.368C133.032 17.536 132.934 17.752 132.866 18.016C132.798 18.276 132.764 18.584 132.764 18.94C132.764 19.3 132.792 19.606 132.848 19.858C132.908 20.106 132.992 20.31 133.1 20.47C133.208 20.626 133.34 20.74 133.496 20.812C133.652 20.88 133.826 20.914 134.018 20.914C134.326 20.914 134.588 20.85 134.804 20.722C135.02 20.594 135.224 20.412 135.416 20.176V17.416ZM136.898 13.084V22H135.992C135.796 22 135.672 21.91 135.62 21.73L135.494 21.136C135.246 21.42 134.96 21.65 134.636 21.826C134.316 22.002 133.942 22.09 133.514 22.09C133.178 22.09 132.87 22.02 132.59 21.88C132.31 21.74 132.068 21.538 131.864 21.274C131.664 21.006 131.508 20.676 131.396 20.284C131.288 19.892 131.234 19.444 131.234 18.94C131.234 18.484 131.296 18.06 131.42 17.668C131.544 17.276 131.722 16.936 131.954 16.648C132.186 16.36 132.464 16.136 132.788 15.976C133.112 15.812 133.476 15.73 133.88 15.73C134.224 15.73 134.518 15.784 134.762 15.892C135.006 16 135.224 16.146 135.416 16.33V13.084H136.898ZM142.327 18.214C142.327 18.022 142.299 17.842 142.243 17.674C142.191 17.502 142.111 17.352 142.003 17.224C141.895 17.096 141.757 16.996 141.589 16.924C141.425 16.848 141.233 16.81 141.013 16.81C140.585 16.81 140.247 16.932 139.999 17.176C139.755 17.42 139.599 17.766 139.531 18.214H142.327ZM139.501 19.108C139.525 19.424 139.581 19.698 139.669 19.93C139.757 20.158 139.873 20.348 140.017 20.5C140.161 20.648 140.331 20.76 140.527 20.836C140.727 20.908 140.947 20.944 141.187 20.944C141.427 20.944 141.633 20.916 141.805 20.86C141.981 20.804 142.133 20.742 142.261 20.674C142.393 20.606 142.507 20.544 142.603 20.488C142.703 20.432 142.799 20.404 142.891 20.404C143.015 20.404 143.107 20.45 143.167 20.542L143.593 21.082C143.429 21.274 143.245 21.436 143.041 21.568C142.837 21.696 142.623 21.8 142.399 21.88C142.179 21.956 141.953 22.01 141.721 22.042C141.493 22.074 141.271 22.09 141.055 22.09C140.627 22.09 140.229 22.02 139.861 21.88C139.493 21.736 139.173 21.526 138.901 21.25C138.629 20.97 138.415 20.626 138.259 20.218C138.103 19.806 138.025 19.33 138.025 18.79C138.025 18.37 138.093 17.976 138.229 17.608C138.365 17.236 138.559 16.914 138.811 16.642C139.067 16.366 139.377 16.148 139.741 15.988C140.109 15.828 140.523 15.748 140.983 15.748C141.371 15.748 141.729 15.81 142.057 15.934C142.385 16.058 142.667 16.24 142.903 16.48C143.139 16.716 143.323 17.008 143.455 17.356C143.591 17.7 143.659 18.094 143.659 18.538C143.659 18.762 143.635 18.914 143.587 18.994C143.539 19.07 143.447 19.108 143.311 19.108H139.501ZM146.169 16.912C146.361 16.544 146.589 16.256 146.853 16.048C147.117 15.836 147.429 15.73 147.789 15.73C148.073 15.73 148.301 15.792 148.473 15.916L148.377 17.026C148.357 17.098 148.327 17.15 148.287 17.182C148.251 17.21 148.201 17.224 148.137 17.224C148.077 17.224 147.987 17.214 147.867 17.194C147.751 17.174 147.637 17.164 147.525 17.164C147.361 17.164 147.215 17.188 147.087 17.236C146.959 17.284 146.843 17.354 146.739 17.446C146.639 17.534 146.549 17.642 146.469 17.77C146.393 17.898 146.321 18.044 146.253 18.208V22H144.771V15.844H145.641C145.793 15.844 145.899 15.872 145.959 15.928C146.019 15.98 146.059 16.076 146.079 16.216L146.169 16.912ZM150.784 15.844V22H149.296V15.844H150.784ZM150.988 14.05C150.988 14.178 150.962 14.298 150.91 14.41C150.858 14.522 150.788 14.62 150.7 14.704C150.616 14.788 150.516 14.856 150.4 14.908C150.284 14.956 150.16 14.98 150.028 14.98C149.9 14.98 149.778 14.956 149.662 14.908C149.55 14.856 149.452 14.788 149.368 14.704C149.284 14.62 149.216 14.522 149.164 14.41C149.116 14.298 149.092 14.178 149.092 14.05C149.092 13.918 149.116 13.794 149.164 13.678C149.216 13.562 149.284 13.462 149.368 13.378C149.452 13.294 149.55 13.228 149.662 13.18C149.778 13.128 149.9 13.102 150.028 13.102C150.16 13.102 150.284 13.128 150.4 13.18C150.516 13.228 150.616 13.294 150.7 13.378C150.788 13.462 150.858 13.562 150.91 13.678C150.962 13.794 150.988 13.918 150.988 14.05ZM153.681 16.6C153.805 16.476 153.935 16.362 154.071 16.258C154.211 16.15 154.357 16.06 154.509 15.988C154.665 15.912 154.831 15.854 155.007 15.814C155.183 15.77 155.375 15.748 155.583 15.748C155.919 15.748 156.217 15.806 156.477 15.922C156.737 16.034 156.953 16.194 157.125 16.402C157.301 16.606 157.433 16.852 157.521 17.14C157.613 17.424 157.659 17.738 157.659 18.082V22H156.177V18.082C156.177 17.706 156.091 17.416 155.919 17.212C155.747 17.004 155.485 16.9 155.133 16.9C154.877 16.9 154.637 16.958 154.413 17.074C154.189 17.19 153.977 17.348 153.777 17.548V22H152.295V15.844H153.201C153.393 15.844 153.519 15.934 153.579 16.114L153.681 16.6ZM161.318 18.772C161.502 18.772 161.662 18.748 161.798 18.7C161.934 18.648 162.046 18.578 162.134 18.49C162.226 18.402 162.294 18.296 162.338 18.172C162.386 18.048 162.41 17.912 162.41 17.764C162.41 17.46 162.318 17.22 162.134 17.044C161.954 16.864 161.682 16.774 161.318 16.774C160.954 16.774 160.68 16.864 160.496 17.044C160.316 17.22 160.226 17.46 160.226 17.764C160.226 17.908 160.248 18.042 160.292 18.166C160.34 18.29 160.408 18.398 160.496 18.49C160.588 18.578 160.702 18.648 160.838 18.7C160.978 18.748 161.138 18.772 161.318 18.772ZM162.992 22.276C162.992 22.156 162.956 22.058 162.884 21.982C162.812 21.906 162.714 21.848 162.59 21.808C162.466 21.764 162.32 21.732 162.152 21.712C161.988 21.692 161.812 21.678 161.624 21.67C161.44 21.658 161.248 21.648 161.048 21.64C160.852 21.632 160.66 21.616 160.472 21.592C160.308 21.684 160.174 21.792 160.07 21.916C159.97 22.04 159.92 22.184 159.92 22.348C159.92 22.456 159.946 22.556 159.998 22.648C160.054 22.744 160.14 22.826 160.256 22.894C160.376 22.962 160.53 23.014 160.718 23.05C160.906 23.09 161.136 23.11 161.408 23.11C161.684 23.11 161.922 23.088 162.122 23.044C162.322 23.004 162.486 22.946 162.614 22.87C162.746 22.798 162.842 22.71 162.902 22.606C162.962 22.506 162.992 22.396 162.992 22.276ZM164.468 16.054V16.606C164.468 16.782 164.362 16.89 164.15 16.93L163.598 17.032C163.682 17.244 163.724 17.476 163.724 17.728C163.724 18.032 163.662 18.308 163.538 18.556C163.418 18.8 163.25 19.008 163.034 19.18C162.818 19.352 162.562 19.486 162.266 19.582C161.974 19.674 161.658 19.72 161.318 19.72C161.198 19.72 161.082 19.714 160.97 19.702C160.858 19.69 160.748 19.674 160.64 19.654C160.448 19.77 160.352 19.9 160.352 20.044C160.352 20.168 160.408 20.26 160.52 20.32C160.636 20.376 160.788 20.416 160.976 20.44C161.164 20.464 161.378 20.48 161.618 20.488C161.858 20.492 162.104 20.504 162.356 20.524C162.608 20.544 162.854 20.58 163.094 20.632C163.334 20.68 163.548 20.758 163.736 20.866C163.924 20.974 164.074 21.122 164.186 21.31C164.302 21.494 164.36 21.732 164.36 22.024C164.36 22.296 164.292 22.56 164.156 22.816C164.024 23.072 163.83 23.3 163.574 23.5C163.322 23.7 163.01 23.86 162.638 23.98C162.27 24.104 161.85 24.166 161.378 24.166C160.914 24.166 160.51 24.12 160.166 24.028C159.822 23.94 159.536 23.82 159.308 23.668C159.08 23.52 158.91 23.348 158.798 23.152C158.686 22.956 158.63 22.752 158.63 22.54C158.63 22.252 158.716 22.012 158.888 21.82C159.064 21.624 159.304 21.468 159.608 21.352C159.444 21.268 159.314 21.156 159.218 21.016C159.122 20.876 159.074 20.692 159.074 20.464C159.074 20.372 159.09 20.278 159.122 20.182C159.158 20.082 159.208 19.984 159.272 19.888C159.34 19.792 159.424 19.702 159.524 19.618C159.624 19.53 159.742 19.452 159.878 19.384C159.566 19.216 159.32 18.992 159.14 18.712C158.964 18.432 158.876 18.104 158.876 17.728C158.876 17.424 158.936 17.15 159.056 16.906C159.18 16.658 159.35 16.448 159.566 16.276C159.786 16.1 160.044 15.966 160.34 15.874C160.64 15.782 160.966 15.736 161.318 15.736C161.582 15.736 161.83 15.764 162.062 15.82C162.294 15.872 162.506 15.95 162.698 16.054H164.468ZM122.027 28.608V31.014H125.063V32.256H122.027V34.71H125.879V36H120.407V27.324H125.879V28.608H122.027ZM128.333 30.6C128.457 30.476 128.587 30.362 128.723 30.258C128.863 30.15 129.009 30.06 129.161 29.988C129.317 29.912 129.483 29.854 129.659 29.814C129.835 29.77 130.027 29.748 130.235 29.748C130.571 29.748 130.869 29.806 131.129 29.922C131.389 30.034 131.605 30.194 131.777 30.402C131.953 30.606 132.085 30.852 132.173 31.14C132.265 31.424 132.311 31.738 132.311 32.082V36H130.829V32.082C130.829 31.706 130.743 31.416 130.571 31.212C130.399 31.004 130.137 30.9 129.785 30.9C129.529 30.9 129.289 30.958 129.065 31.074C128.841 31.19 128.629 31.348 128.429 31.548V36H126.947V29.844H127.853C128.045 29.844 128.171 29.934 128.231 30.114L128.333 30.6ZM135.97 32.772C136.154 32.772 136.314 32.748 136.45 32.7C136.586 32.648 136.698 32.578 136.786 32.49C136.878 32.402 136.946 32.296 136.99 32.172C137.038 32.048 137.062 31.912 137.062 31.764C137.062 31.46 136.97 31.22 136.786 31.044C136.606 30.864 136.334 30.774 135.97 30.774C135.606 30.774 135.332 30.864 135.148 31.044C134.968 31.22 134.878 31.46 134.878 31.764C134.878 31.908 134.9 32.042 134.944 32.166C134.992 32.29 135.06 32.398 135.148 32.49C135.24 32.578 135.354 32.648 135.49 32.7C135.63 32.748 135.79 32.772 135.97 32.772ZM137.644 36.276C137.644 36.156 137.608 36.058 137.536 35.982C137.464 35.906 137.366 35.848 137.242 35.808C137.118 35.764 136.972 35.732 136.804 35.712C136.64 35.692 136.464 35.678 136.276 35.67C136.092 35.658 135.9 35.648 135.7 35.64C135.504 35.632 135.312 35.616 135.124 35.592C134.96 35.684 134.826 35.792 134.722 35.916C134.622 36.04 134.572 36.184 134.572 36.348C134.572 36.456 134.598 36.556 134.65 36.648C134.706 36.744 134.792 36.826 134.908 36.894C135.028 36.962 135.182 37.014 135.37 37.05C135.558 37.09 135.788 37.11 136.06 37.11C136.336 37.11 136.574 37.088 136.774 37.044C136.974 37.004 137.138 36.946 137.266 36.87C137.398 36.798 137.494 36.71 137.554 36.606C137.614 36.506 137.644 36.396 137.644 36.276ZM139.12 30.054V30.606C139.12 30.782 139.014 30.89 138.802 30.93L138.25 31.032C138.334 31.244 138.376 31.476 138.376 31.728C138.376 32.032 138.314 32.308 138.19 32.556C138.07 32.8 137.902 33.008 137.686 33.18C137.47 33.352 137.214 33.486 136.918 33.582C136.626 33.674 136.31 33.72 135.97 33.72C135.85 33.72 135.734 33.714 135.622 33.702C135.51 33.69 135.4 33.674 135.292 33.654C135.1 33.77 135.004 33.9 135.004 34.044C135.004 34.168 135.06 34.26 135.172 34.32C135.288 34.376 135.44 34.416 135.628 34.44C135.816 34.464 136.03 34.48 136.27 34.488C136.51 34.492 136.756 34.504 137.008 34.524C137.26 34.544 137.506 34.58 137.746 34.632C137.986 34.68 138.2 34.758 138.388 34.866C138.576 34.974 138.726 35.122 138.838 35.31C138.954 35.494 139.012 35.732 139.012 36.024C139.012 36.296 138.944 36.56 138.808 36.816C138.676 37.072 138.482 37.3 138.226 37.5C137.974 37.7 137.662 37.86 137.29 37.98C136.922 38.104 136.502 38.166 136.03 38.166C135.566 38.166 135.162 38.12 134.818 38.028C134.474 37.94 134.188 37.82 133.96 37.668C133.732 37.52 133.562 37.348 133.45 37.152C133.338 36.956 133.282 36.752 133.282 36.54C133.282 36.252 133.368 36.012 133.54 35.82C133.716 35.624 133.956 35.468 134.26 35.352C134.096 35.268 133.966 35.156 133.87 35.016C133.774 34.876 133.726 34.692 133.726 34.464C133.726 34.372 133.742 34.278 133.774 34.182C133.81 34.082 133.86 33.984 133.924 33.888C133.992 33.792 134.076 33.702 134.176 33.618C134.276 33.53 134.394 33.452 134.53 33.384C134.218 33.216 133.972 32.992 133.792 32.712C133.616 32.432 133.528 32.104 133.528 31.728C133.528 31.424 133.588 31.15 133.708 30.906C133.832 30.658 134.002 30.448 134.218 30.276C134.438 30.1 134.696 29.966 134.992 29.874C135.292 29.782 135.618 29.736 135.97 29.736C136.234 29.736 136.482 29.764 136.714 29.82C136.946 29.872 137.158 29.95 137.35 30.054H139.12ZM141.596 29.844V36H140.108V29.844H141.596ZM141.8 28.05C141.8 28.178 141.774 28.298 141.722 28.41C141.67 28.522 141.6 28.62 141.512 28.704C141.428 28.788 141.328 28.856 141.212 28.908C141.096 28.956 140.972 28.98 140.84 28.98C140.712 28.98 140.59 28.956 140.474 28.908C140.362 28.856 140.264 28.788 140.18 28.704C140.096 28.62 140.028 28.522 139.976 28.41C139.928 28.298 139.904 28.178 139.904 28.05C139.904 27.918 139.928 27.794 139.976 27.678C140.028 27.562 140.096 27.462 140.18 27.378C140.264 27.294 140.362 27.228 140.474 27.18C140.59 27.128 140.712 27.102 140.84 27.102C140.972 27.102 141.096 27.128 141.212 27.18C141.328 27.228 141.428 27.294 141.512 27.378C141.6 27.462 141.67 27.562 141.722 27.678C141.774 27.794 141.8 27.918 141.8 28.05ZM144.493 30.6C144.617 30.476 144.747 30.362 144.883 30.258C145.023 30.15 145.169 30.06 145.321 29.988C145.477 29.912 145.643 29.854 145.819 29.814C145.995 29.77 146.187 29.748 146.395 29.748C146.731 29.748 147.029 29.806 147.289 29.922C147.549 30.034 147.765 30.194 147.937 30.402C148.113 30.606 148.245 30.852 148.333 31.14C148.425 31.424 148.471 31.738 148.471 32.082V36H146.989V32.082C146.989 31.706 146.903 31.416 146.731 31.212C146.559 31.004 146.297 30.9 145.945 30.9C145.689 30.9 145.449 30.958 145.225 31.074C145.001 31.19 144.789 31.348 144.589 31.548V36H143.107V29.844H144.013C144.205 29.844 144.331 29.934 144.391 30.114L144.493 30.6ZM153.846 32.214C153.846 32.022 153.818 31.842 153.762 31.674C153.71 31.502 153.63 31.352 153.522 31.224C153.414 31.096 153.276 30.996 153.108 30.924C152.944 30.848 152.752 30.81 152.532 30.81C152.104 30.81 151.766 30.932 151.518 31.176C151.274 31.42 151.118 31.766 151.05 32.214H153.846ZM151.02 33.108C151.044 33.424 151.1 33.698 151.188 33.93C151.276 34.158 151.392 34.348 151.536 34.5C151.68 34.648 151.85 34.76 152.046 34.836C152.246 34.908 152.466 34.944 152.706 34.944C152.946 34.944 153.152 34.916 153.324 34.86C153.5 34.804 153.652 34.742 153.78 34.674C153.912 34.606 154.026 34.544 154.122 34.488C154.222 34.432 154.318 34.404 154.41 34.404C154.534 34.404 154.626 34.45 154.686 34.542L155.112 35.082C154.948 35.274 154.764 35.436 154.56 35.568C154.356 35.696 154.142 35.8 153.918 35.88C153.698 35.956 153.472 36.01 153.24 36.042C153.012 36.074 152.79 36.09 152.574 36.09C152.146 36.09 151.748 36.02 151.38 35.88C151.012 35.736 150.692 35.526 150.42 35.25C150.148 34.97 149.934 34.626 149.778 34.218C149.622 33.806 149.544 33.33 149.544 32.79C149.544 32.37 149.612 31.976 149.748 31.608C149.884 31.236 150.078 30.914 150.33 30.642C150.586 30.366 150.896 30.148 151.26 29.988C151.628 29.828 152.042 29.748 152.502 29.748C152.89 29.748 153.248 29.81 153.576 29.934C153.904 30.058 154.186 30.24 154.422 30.48C154.658 30.716 154.842 31.008 154.974 31.356C155.11 31.7 155.178 32.094 155.178 32.538C155.178 32.762 155.154 32.914 155.106 32.994C155.058 33.07 154.966 33.108 154.83 33.108H151.02Z" fill="black"/>
<rect x="95.5" y="0.5" width="84" height="47" rx="9.5" stroke="black"/>
<path d="M207.464 18.724L206.408 15.838C206.356 15.71 206.302 15.558 206.246 15.382C206.19 15.206 206.134 15.016 206.078 14.812C206.026 15.016 205.972 15.208 205.916 15.388C205.86 15.564 205.806 15.718 205.754 15.85L204.704 18.724H207.464ZM210.314 22H209.066C208.926 22 208.812 21.966 208.724 21.898C208.636 21.826 208.57 21.738 208.526 21.634L207.878 19.864H204.284L203.636 21.634C203.604 21.726 203.542 21.81 203.45 21.886C203.358 21.962 203.244 22 203.108 22H201.848L205.262 13.324H206.906L210.314 22ZM212.448 20.404C212.616 20.608 212.798 20.752 212.994 20.836C213.194 20.92 213.41 20.962 213.642 20.962C213.866 20.962 214.068 20.92 214.248 20.836C214.428 20.752 214.58 20.624 214.704 20.452C214.832 20.28 214.93 20.064 214.998 19.804C215.066 19.54 215.1 19.23 215.1 18.874C215.1 18.514 215.07 18.21 215.01 17.962C214.954 17.71 214.872 17.506 214.764 17.35C214.656 17.194 214.524 17.08 214.368 17.008C214.216 16.936 214.042 16.9 213.846 16.9C213.538 16.9 213.276 16.966 213.06 17.098C212.844 17.226 212.64 17.408 212.448 17.644V20.404ZM212.37 16.684C212.622 16.4 212.908 16.17 213.228 15.994C213.548 15.818 213.924 15.73 214.356 15.73C214.692 15.73 214.998 15.8 215.274 15.94C215.554 16.08 215.794 16.284 215.994 16.552C216.198 16.816 216.354 17.144 216.462 17.536C216.574 17.924 216.63 18.37 216.63 18.874C216.63 19.334 216.568 19.76 216.444 20.152C216.32 20.544 216.142 20.884 215.91 21.172C215.682 21.46 215.404 21.686 215.076 21.85C214.752 22.01 214.388 22.09 213.984 22.09C213.64 22.09 213.346 22.038 213.102 21.934C212.858 21.826 212.64 21.678 212.448 21.49V24.01H210.966V15.844H211.872C212.064 15.844 212.19 15.934 212.25 16.114L212.37 16.684ZM219.269 20.404C219.437 20.608 219.619 20.752 219.815 20.836C220.015 20.92 220.231 20.962 220.463 20.962C220.687 20.962 220.889 20.92 221.069 20.836C221.249 20.752 221.401 20.624 221.525 20.452C221.653 20.28 221.751 20.064 221.819 19.804C221.887 19.54 221.921 19.23 221.921 18.874C221.921 18.514 221.891 18.21 221.831 17.962C221.775 17.71 221.693 17.506 221.585 17.35C221.477 17.194 221.345 17.08 221.189 17.008C221.037 16.936 220.863 16.9 220.667 16.9C220.359 16.9 220.097 16.966 219.881 17.098C219.665 17.226 219.461 17.408 219.269 17.644V20.404ZM219.191 16.684C219.443 16.4 219.729 16.17 220.049 15.994C220.369 15.818 220.745 15.73 221.177 15.73C221.513 15.73 221.819 15.8 222.095 15.94C222.375 16.08 222.615 16.284 222.815 16.552C223.019 16.816 223.175 17.144 223.283 17.536C223.395 17.924 223.451 18.37 223.451 18.874C223.451 19.334 223.389 19.76 223.265 20.152C223.141 20.544 222.963 20.884 222.731 21.172C222.503 21.46 222.225 21.686 221.897 21.85C221.573 22.01 221.209 22.09 220.805 22.09C220.461 22.09 220.167 22.038 219.923 21.934C219.679 21.826 219.461 21.678 219.269 21.49V24.01H217.787V15.844H218.693C218.885 15.844 219.011 15.934 219.071 16.114L219.191 16.684ZM226.107 13.084V22H224.625V13.084H226.107ZM229.12 15.844V22H227.632V15.844H229.12ZM229.324 14.05C229.324 14.178 229.298 14.298 229.246 14.41C229.194 14.522 229.124 14.62 229.036 14.704C228.952 14.788 228.852 14.856 228.736 14.908C228.62 14.956 228.496 14.98 228.364 14.98C228.236 14.98 228.114 14.956 227.998 14.908C227.886 14.856 227.788 14.788 227.704 14.704C227.62 14.62 227.552 14.522 227.5 14.41C227.452 14.298 227.428 14.178 227.428 14.05C227.428 13.918 227.452 13.794 227.5 13.678C227.552 13.562 227.62 13.462 227.704 13.378C227.788 13.294 227.886 13.228 227.998 13.18C228.114 13.128 228.236 13.102 228.364 13.102C228.496 13.102 228.62 13.128 228.736 13.18C228.852 13.228 228.952 13.294 229.036 13.378C229.124 13.462 229.194 13.562 229.246 13.678C229.298 13.794 229.324 13.918 229.324 14.05ZM235.04 17.146C234.996 17.202 234.952 17.246 234.908 17.278C234.868 17.31 234.808 17.326 234.728 17.326C234.652 17.326 234.578 17.304 234.506 17.26C234.434 17.212 234.348 17.16 234.248 17.104C234.148 17.044 234.028 16.992 233.888 16.948C233.752 16.9 233.582 16.876 233.378 16.876C233.118 16.876 232.89 16.924 232.694 17.02C232.498 17.112 232.334 17.246 232.202 17.422C232.074 17.598 231.978 17.812 231.914 18.064C231.85 18.312 231.818 18.594 231.818 18.91C231.818 19.238 231.852 19.53 231.92 19.786C231.992 20.042 232.094 20.258 232.226 20.434C232.358 20.606 232.518 20.738 232.706 20.83C232.894 20.918 233.106 20.962 233.342 20.962C233.578 20.962 233.768 20.934 233.912 20.878C234.06 20.818 234.184 20.754 234.284 20.686C234.384 20.614 234.47 20.55 234.542 20.494C234.618 20.434 234.702 20.404 234.794 20.404C234.914 20.404 235.004 20.45 235.064 20.542L235.49 21.082C235.326 21.274 235.148 21.436 234.956 21.568C234.764 21.696 234.564 21.8 234.356 21.88C234.152 21.956 233.94 22.01 233.72 22.042C233.504 22.074 233.288 22.09 233.072 22.09C232.692 22.09 232.334 22.02 231.998 21.88C231.662 21.736 231.368 21.528 231.116 21.256C230.864 20.984 230.664 20.652 230.516 20.26C230.372 19.864 230.3 19.414 230.3 18.91C230.3 18.458 230.364 18.04 230.492 17.656C230.624 17.268 230.816 16.934 231.068 16.654C231.32 16.37 231.632 16.148 232.004 15.988C232.376 15.828 232.804 15.748 233.288 15.748C233.748 15.748 234.15 15.822 234.494 15.97C234.842 16.118 235.154 16.33 235.43 16.606L235.04 17.146ZM239.672 19.372C239.244 19.392 238.884 19.43 238.592 19.486C238.3 19.538 238.066 19.606 237.89 19.69C237.714 19.774 237.588 19.872 237.512 19.984C237.436 20.096 237.398 20.218 237.398 20.35C237.398 20.61 237.474 20.796 237.626 20.908C237.782 21.02 237.984 21.076 238.232 21.076C238.536 21.076 238.798 21.022 239.018 20.914C239.242 20.802 239.46 20.634 239.672 20.41V19.372ZM236.276 16.702C236.984 16.054 237.836 15.73 238.832 15.73C239.192 15.73 239.514 15.79 239.798 15.91C240.082 16.026 240.322 16.19 240.518 16.402C240.714 16.61 240.862 16.86 240.962 17.152C241.066 17.444 241.118 17.764 241.118 18.112V22H240.446C240.306 22 240.198 21.98 240.122 21.94C240.046 21.896 239.986 21.81 239.942 21.682L239.81 21.238C239.654 21.378 239.502 21.502 239.354 21.61C239.206 21.714 239.052 21.802 238.892 21.874C238.732 21.946 238.56 22 238.376 22.036C238.196 22.076 237.996 22.096 237.776 22.096C237.516 22.096 237.276 22.062 237.056 21.994C236.836 21.922 236.646 21.816 236.486 21.676C236.326 21.536 236.202 21.362 236.114 21.154C236.026 20.946 235.982 20.704 235.982 20.428C235.982 20.272 236.008 20.118 236.06 19.966C236.112 19.81 236.196 19.662 236.312 19.522C236.432 19.382 236.586 19.25 236.774 19.126C236.962 19.002 237.192 18.894 237.464 18.802C237.74 18.71 238.06 18.636 238.424 18.58C238.788 18.52 239.204 18.484 239.672 18.472V18.112C239.672 17.7 239.584 17.396 239.408 17.2C239.232 17 238.978 16.9 238.646 16.9C238.406 16.9 238.206 16.928 238.046 16.984C237.89 17.04 237.752 17.104 237.632 17.176C237.512 17.244 237.402 17.306 237.302 17.362C237.206 17.418 237.098 17.446 236.978 17.446C236.874 17.446 236.786 17.42 236.714 17.368C236.642 17.312 236.584 17.248 236.54 17.176L236.276 16.702ZM248.641 22H247.159V16.954H244.303V20.29C244.303 20.482 244.349 20.632 244.441 20.74C244.537 20.848 244.667 20.902 244.831 20.902C244.923 20.902 244.999 20.892 245.059 20.872C245.123 20.848 245.177 20.824 245.221 20.8C245.269 20.776 245.311 20.754 245.347 20.734C245.383 20.71 245.419 20.698 245.455 20.698C245.499 20.698 245.535 20.71 245.563 20.734C245.591 20.754 245.621 20.786 245.653 20.83L246.097 21.55C245.881 21.73 245.633 21.866 245.353 21.958C245.073 22.05 244.783 22.096 244.483 22.096C243.947 22.096 243.535 21.946 243.247 21.646C242.963 21.342 242.821 20.924 242.821 20.392V16.954H242.191C242.111 16.954 242.043 16.928 241.987 16.876C241.931 16.824 241.903 16.746 241.903 16.642V16.054L242.893 15.886L243.205 14.212C243.225 14.132 243.263 14.07 243.319 14.026C243.375 13.982 243.447 13.96 243.535 13.96H244.303V15.898H248.641V22ZM248.899 14.026C248.899 14.154 248.873 14.276 248.821 14.392C248.769 14.504 248.699 14.602 248.611 14.686C248.527 14.77 248.425 14.838 248.305 14.89C248.189 14.938 248.065 14.962 247.933 14.962C247.805 14.962 247.685 14.938 247.573 14.89C247.461 14.838 247.363 14.77 247.279 14.686C247.195 14.602 247.127 14.504 247.075 14.392C247.027 14.276 247.003 14.154 247.003 14.026C247.003 13.894 247.027 13.772 247.075 13.66C247.127 13.544 247.195 13.444 247.279 13.36C247.363 13.272 247.461 13.204 247.573 13.156C247.685 13.104 247.805 13.078 247.933 13.078C248.065 13.078 248.189 13.104 248.305 13.156C248.425 13.204 248.527 13.272 248.611 13.36C248.699 13.444 248.769 13.544 248.821 13.66C248.873 13.772 248.899 13.894 248.899 14.026ZM252.878 15.748C253.334 15.748 253.748 15.822 254.12 15.97C254.496 16.118 254.816 16.328 255.08 16.6C255.348 16.872 255.554 17.204 255.698 17.596C255.842 17.988 255.914 18.426 255.914 18.91C255.914 19.398 255.842 19.838 255.698 20.23C255.554 20.622 255.348 20.956 255.08 21.232C254.816 21.508 254.496 21.72 254.12 21.868C253.748 22.016 253.334 22.09 252.878 22.09C252.418 22.09 252 22.016 251.624 21.868C251.248 21.72 250.926 21.508 250.658 21.232C250.394 20.956 250.188 20.622 250.04 20.23C249.896 19.838 249.824 19.398 249.824 18.91C249.824 18.426 249.896 17.988 250.04 17.596C250.188 17.204 250.394 16.872 250.658 16.6C250.926 16.328 251.248 16.118 251.624 15.97C252 15.822 252.418 15.748 252.878 15.748ZM252.878 20.95C253.39 20.95 253.768 20.778 254.012 20.434C254.26 20.09 254.384 19.586 254.384 18.922C254.384 18.258 254.26 17.752 254.012 17.404C253.768 17.056 253.39 16.882 252.878 16.882C252.358 16.882 251.972 17.058 251.72 17.41C251.472 17.758 251.348 18.262 251.348 18.922C251.348 19.582 251.472 20.086 251.72 20.434C251.972 20.778 252.358 20.95 252.878 20.95ZM258.431 16.6C258.555 16.476 258.685 16.362 258.821 16.258C258.961 16.15 259.107 16.06 259.259 15.988C259.415 15.912 259.581 15.854 259.757 15.814C259.933 15.77 260.125 15.748 260.333 15.748C260.669 15.748 260.967 15.806 261.227 15.922C261.487 16.034 261.703 16.194 261.875 16.402C262.051 16.606 262.183 16.852 262.271 17.14C262.363 17.424 262.409 17.738 262.409 18.082V22H260.927V18.082C260.927 17.706 260.841 17.416 260.669 17.212C260.497 17.004 260.235 16.9 259.883 16.9C259.627 16.9 259.387 16.958 259.163 17.074C258.939 17.19 258.727 17.348 258.527 17.548V22H257.045V15.844H257.951C258.143 15.844 258.269 15.934 258.329 16.114L258.431 16.6ZM204.84 28.608V31.176H208.092V32.466H204.84V36H203.22V27.324H208.692V28.608H204.84ZM210.7 30.912C210.892 30.544 211.12 30.256 211.384 30.048C211.648 29.836 211.96 29.73 212.32 29.73C212.604 29.73 212.832 29.792 213.004 29.916L212.908 31.026C212.888 31.098 212.858 31.15 212.818 31.182C212.782 31.21 212.732 31.224 212.668 31.224C212.608 31.224 212.518 31.214 212.398 31.194C212.282 31.174 212.168 31.164 212.056 31.164C211.892 31.164 211.746 31.188 211.618 31.236C211.49 31.284 211.374 31.354 211.27 31.446C211.17 31.534 211.08 31.642 211 31.77C210.924 31.898 210.852 32.044 210.784 32.208V36H209.302V29.844H210.172C210.324 29.844 210.43 29.872 210.49 29.928C210.55 29.98 210.59 30.076 210.61 30.216L210.7 30.912ZM216.949 33.372C216.521 33.392 216.161 33.43 215.869 33.486C215.577 33.538 215.343 33.606 215.167 33.69C214.991 33.774 214.865 33.872 214.789 33.984C214.713 34.096 214.675 34.218 214.675 34.35C214.675 34.61 214.751 34.796 214.903 34.908C215.059 35.02 215.261 35.076 215.509 35.076C215.813 35.076 216.075 35.022 216.295 34.914C216.519 34.802 216.737 34.634 216.949 34.41V33.372ZM213.553 30.702C214.261 30.054 215.113 29.73 216.109 29.73C216.469 29.73 216.791 29.79 217.075 29.91C217.359 30.026 217.599 30.19 217.795 30.402C217.991 30.61 218.139 30.86 218.239 31.152C218.343 31.444 218.395 31.764 218.395 32.112V36H217.723C217.583 36 217.475 35.98 217.399 35.94C217.323 35.896 217.263 35.81 217.219 35.682L217.087 35.238C216.931 35.378 216.779 35.502 216.631 35.61C216.483 35.714 216.329 35.802 216.169 35.874C216.009 35.946 215.837 36 215.653 36.036C215.473 36.076 215.273 36.096 215.053 36.096C214.793 36.096 214.553 36.062 214.333 35.994C214.113 35.922 213.923 35.816 213.763 35.676C213.603 35.536 213.479 35.362 213.391 35.154C213.303 34.946 213.259 34.704 213.259 34.428C213.259 34.272 213.285 34.118 213.337 33.966C213.389 33.81 213.473 33.662 213.589 33.522C213.709 33.382 213.863 33.25 214.051 33.126C214.239 33.002 214.469 32.894 214.741 32.802C215.017 32.71 215.337 32.636 215.701 32.58C216.065 32.52 216.481 32.484 216.949 32.472V32.112C216.949 31.7 216.861 31.396 216.685 31.2C216.509 31 216.255 30.9 215.923 30.9C215.683 30.9 215.483 30.928 215.323 30.984C215.167 31.04 215.029 31.104 214.909 31.176C214.789 31.244 214.679 31.306 214.579 31.362C214.483 31.418 214.375 31.446 214.255 31.446C214.151 31.446 214.063 31.42 213.991 31.368C213.919 31.312 213.861 31.248 213.817 31.176L213.553 30.702ZM219.791 36V29.844H220.697C220.889 29.844 221.015 29.934 221.075 30.114L221.171 30.57C221.279 30.45 221.391 30.34 221.507 30.24C221.627 30.14 221.753 30.054 221.885 29.982C222.021 29.91 222.165 29.854 222.317 29.814C222.473 29.77 222.643 29.748 222.827 29.748C223.215 29.748 223.533 29.854 223.781 30.066C224.033 30.274 224.221 30.552 224.345 30.9C224.441 30.696 224.561 30.522 224.705 30.378C224.849 30.23 225.007 30.11 225.179 30.018C225.351 29.926 225.533 29.858 225.725 29.814C225.921 29.77 226.117 29.748 226.313 29.748C226.653 29.748 226.955 29.8 227.219 29.904C227.483 30.008 227.705 30.16 227.885 30.36C228.065 30.56 228.201 30.804 228.293 31.092C228.389 31.38 228.437 31.71 228.437 32.082V36H226.955V32.082C226.955 31.69 226.869 31.396 226.697 31.2C226.525 31 226.273 30.9 225.941 30.9C225.789 30.9 225.647 30.926 225.515 30.978C225.387 31.03 225.273 31.106 225.173 31.206C225.077 31.302 225.001 31.424 224.945 31.572C224.889 31.72 224.861 31.89 224.861 32.082V36H223.373V32.082C223.373 31.67 223.289 31.37 223.121 31.182C222.957 30.994 222.715 30.9 222.395 30.9C222.179 30.9 221.977 30.954 221.789 31.062C221.605 31.166 221.433 31.31 221.273 31.494V36H219.791ZM233.811 32.214C233.811 32.022 233.783 31.842 233.727 31.674C233.675 31.502 233.595 31.352 233.487 31.224C233.379 31.096 233.241 30.996 233.073 30.924C232.909 30.848 232.717 30.81 232.497 30.81C232.069 30.81 231.731 30.932 231.483 31.176C231.239 31.42 231.083 31.766 231.015 32.214H233.811ZM230.985 33.108C231.009 33.424 231.065 33.698 231.153 33.93C231.241 34.158 231.357 34.348 231.501 34.5C231.645 34.648 231.815 34.76 232.011 34.836C232.211 34.908 232.431 34.944 232.671 34.944C232.911 34.944 233.117 34.916 233.289 34.86C233.465 34.804 233.617 34.742 233.745 34.674C233.877 34.606 233.991 34.544 234.087 34.488C234.187 34.432 234.283 34.404 234.375 34.404C234.499 34.404 234.591 34.45 234.651 34.542L235.077 35.082C234.913 35.274 234.729 35.436 234.525 35.568C234.321 35.696 234.107 35.8 233.883 35.88C233.663 35.956 233.437 36.01 233.205 36.042C232.977 36.074 232.755 36.09 232.539 36.09C232.111 36.09 231.713 36.02 231.345 35.88C230.977 35.736 230.657 35.526 230.385 35.25C230.113 34.97 229.899 34.626 229.743 34.218C229.587 33.806 229.509 33.33 229.509 32.79C229.509 32.37 229.577 31.976 229.713 31.608C229.849 31.236 230.043 30.914 230.295 30.642C230.551 30.366 230.861 30.148 231.225 29.988C231.593 29.828 232.007 29.748 232.467 29.748C232.855 29.748 233.213 29.81 233.541 29.934C233.869 30.058 234.151 30.24 234.387 30.48C234.623 30.716 234.807 31.008 234.939 31.356C235.075 31.7 235.143 32.094 235.143 32.538C235.143 32.762 235.119 32.914 235.071 32.994C235.023 33.07 234.931 33.108 234.795 33.108H230.985ZM244.963 29.844L243.007 36H241.819C241.683 36 241.589 35.912 241.537 35.736L240.433 32.178C240.397 32.058 240.363 31.94 240.331 31.824C240.303 31.704 240.279 31.584 240.259 31.464C240.235 31.584 240.207 31.706 240.175 31.83C240.147 31.95 240.115 32.07 240.079 32.19L238.957 35.736C238.909 35.912 238.803 36 238.639 36H237.499L235.549 29.844H236.731C236.839 29.844 236.931 29.87 237.007 29.922C237.083 29.974 237.133 30.04 237.157 30.12L238.039 33.408C238.083 33.588 238.121 33.764 238.153 33.936C238.189 34.108 238.219 34.28 238.243 34.452C238.287 34.28 238.333 34.108 238.381 33.936C238.433 33.764 238.487 33.588 238.543 33.408L239.563 30.108C239.587 30.028 239.633 29.962 239.701 29.91C239.773 29.858 239.859 29.832 239.959 29.832H240.613C240.717 29.832 240.805 29.858 240.877 29.91C240.953 29.962 241.003 30.028 241.027 30.108L242.017 33.408C242.069 33.588 242.117 33.766 242.161 33.942C242.209 34.114 242.255 34.286 242.299 34.458C242.351 34.118 242.425 33.768 242.521 33.408L243.427 30.12C243.455 30.04 243.505 29.974 243.577 29.922C243.649 29.87 243.735 29.844 243.835 29.844H244.963ZM248.425 29.748C248.881 29.748 249.295 29.822 249.667 29.97C250.043 30.118 250.363 30.328 250.627 30.6C250.895 30.872 251.101 31.204 251.245 31.596C251.389 31.988 251.461 32.426 251.461 32.91C251.461 33.398 251.389 33.838 251.245 34.23C251.101 34.622 250.895 34.956 250.627 35.232C250.363 35.508 250.043 35.72 249.667 35.868C249.295 36.016 248.881 36.09 248.425 36.09C247.965 36.09 247.547 36.016 247.171 35.868C246.795 35.72 246.473 35.508 246.205 35.232C245.941 34.956 245.735 34.622 245.587 34.23C245.443 33.838 245.371 33.398 245.371 32.91C245.371 32.426 245.443 31.988 245.587 31.596C245.735 31.204 245.941 30.872 246.205 30.6C246.473 30.328 246.795 30.118 247.171 29.97C247.547 29.822 247.965 29.748 248.425 29.748ZM248.425 34.95C248.937 34.95 249.315 34.778 249.559 34.434C249.807 34.09 249.931 33.586 249.931 32.922C249.931 32.258 249.807 31.752 249.559 31.404C249.315 31.056 248.937 30.882 248.425 30.882C247.905 30.882 247.519 31.058 247.267 31.41C247.019 31.758 246.895 32.262 246.895 32.922C246.895 33.582 247.019 34.086 247.267 34.434C247.519 34.778 247.905 34.95 248.425 34.95ZM253.989 30.912C254.181 30.544 254.409 30.256 254.673 30.048C254.937 29.836 255.249 29.73 255.609 29.73C255.893 29.73 256.121 29.792 256.293 29.916L256.197 31.026C256.177 31.098 256.147 31.15 256.107 31.182C256.071 31.21 256.021 31.224 255.957 31.224C255.897 31.224 255.807 31.214 255.687 31.194C255.571 31.174 255.457 31.164 255.345 31.164C255.181 31.164 255.035 31.188 254.907 31.236C254.779 31.284 254.663 31.354 254.559 31.446C254.459 31.534 254.369 31.642 254.289 31.77C254.213 31.898 254.141 32.044 254.073 32.208V36H252.591V29.844H253.461C253.613 29.844 253.719 29.872 253.779 29.928C253.839 29.98 253.879 30.076 253.899 30.216L253.989 30.912ZM258.55 27.084V32.19H258.826C258.926 32.19 259.004 32.178 259.06 32.154C259.12 32.126 259.18 32.072 259.24 31.992L260.77 30.102C260.834 30.018 260.904 29.954 260.98 29.91C261.06 29.866 261.162 29.844 261.286 29.844H262.642L260.728 32.13C260.592 32.31 260.444 32.448 260.284 32.544C260.368 32.604 260.442 32.674 260.506 32.754C260.574 32.834 260.638 32.92 260.698 33.012L262.75 36H261.412C261.296 36 261.196 35.982 261.112 35.946C261.028 35.906 260.958 35.836 260.902 35.736L259.33 33.402C259.274 33.31 259.216 33.25 259.156 33.222C259.096 33.194 259.006 33.18 258.886 33.18H258.55V36H257.068V27.084H258.55Z" fill="black"/>
<rect x="190.5" y="0.5" width="84" height="47" rx="9.5" stroke="black"/>
<path d="M138.03 55.4697C137.737 55.1768 137.263 55.1768 136.97 55.4697L132.197 60.2426C131.904 60.5355 131.904 61.0104 132.197 61.3033C132.49 61.5962 132.964 61.5962 133.257 61.3033L137.5 57.0607L141.743 61.3033C142.036 61.5962 142.51 61.5962 142.803 61.3033C143.096 61.0104 143.096 60.5355 142.803 60.2426L138.03 55.4697ZM138.25 81V56H136.75V81H138.25Z" fill="black"/>
<path d="M138.03 55.4697C137.737 55.1768 137.263 55.1768 136.97 55.4697L132.197 60.2426C131.904 60.5355 131.904 61.0104 132.197 61.3033C132.49 61.5962 132.964 61.5962 133.257 61.3033L137.5 57.0607L141.743 61.3033C142.036 61.5962 142.51 61.5962 142.803 61.3033C143.096 61.0104 143.096 60.5355 142.803 60.2426L138.03 55.4697ZM138.25 81V56H136.75V81H138.25Z" fill="black"/>
<path d="M138.03 55.4697C137.737 55.1768 137.263 55.1768 136.97 55.4697L132.197 60.2426C131.904 60.5355 131.904 61.0104 132.197 61.3033C132.49 61.5962 132.964 61.5962 133.257 61.3033L137.5 57.0607L141.743 61.3033C142.036 61.5962 142.51 61.5962 142.803 61.3033C143.096 61.0104 143.096 60.5355 142.803 60.2426L138.03 55.4697ZM138.25 81V56H136.75V81H138.25Z" fill="black"/>
<path d="M125.656 102.324L122.152 111H120.694L117.19 102.324H118.486C118.626 102.324 118.74 102.358 118.828 102.426C118.916 102.494 118.982 102.582 119.026 102.69L121.072 107.982C121.14 108.154 121.204 108.344 121.264 108.552C121.328 108.756 121.388 108.97 121.444 109.194C121.492 108.97 121.544 108.756 121.6 108.552C121.656 108.344 121.718 108.154 121.786 107.982L123.82 102.69C123.852 102.598 123.914 102.514 124.006 102.438C124.102 102.362 124.218 102.324 124.354 102.324H125.656ZM128.095 104.748C128.551 104.748 128.965 104.822 129.337 104.97C129.713 105.118 130.033 105.328 130.297 105.6C130.565 105.872 130.771 106.204 130.915 106.596C131.059 106.988 131.131 107.426 131.131 107.91C131.131 108.398 131.059 108.838 130.915 109.23C130.771 109.622 130.565 109.956 130.297 110.232C130.033 110.508 129.713 110.72 129.337 110.868C128.965 111.016 128.551 111.09 128.095 111.09C127.635 111.09 127.217 111.016 126.841 110.868C126.465 110.72 126.143 110.508 125.875 110.232C125.611 109.956 125.405 109.622 125.257 109.23C125.113 108.838 125.041 108.398 125.041 107.91C125.041 107.426 125.113 106.988 125.257 106.596C125.405 106.204 125.611 105.872 125.875 105.6C126.143 105.328 126.465 105.118 126.841 104.97C127.217 104.822 127.635 104.748 128.095 104.748ZM128.095 109.95C128.607 109.95 128.985 109.778 129.229 109.434C129.477 109.09 129.601 108.586 129.601 107.922C129.601 107.258 129.477 106.752 129.229 106.404C128.985 106.056 128.607 105.882 128.095 105.882C127.575 105.882 127.189 106.058 126.937 106.41C126.689 106.758 126.565 107.262 126.565 107.922C126.565 108.582 126.689 109.086 126.937 109.434C127.189 109.778 127.575 109.95 128.095 109.95ZM133.761 102.084V111H132.279V102.084H133.761ZM140.542 104.844V111H139.636C139.44 111 139.316 110.91 139.264 110.73L139.162 110.238C138.91 110.494 138.632 110.702 138.328 110.862C138.024 111.018 137.666 111.096 137.254 111.096C136.918 111.096 136.62 111.04 136.36 110.928C136.104 110.812 135.888 110.65 135.712 110.442C135.536 110.234 135.402 109.988 135.31 109.704C135.222 109.416 135.178 109.1 135.178 108.756V104.844H136.66V108.756C136.66 109.132 136.746 109.424 136.918 109.632C137.094 109.836 137.356 109.938 137.704 109.938C137.96 109.938 138.2 109.882 138.424 109.77C138.648 109.654 138.86 109.496 139.06 109.296V104.844H140.542ZM142.011 111V104.844H142.917C143.109 104.844 143.235 104.934 143.295 105.114L143.391 105.57C143.499 105.45 143.611 105.34 143.727 105.24C143.847 105.14 143.973 105.054 144.105 104.982C144.241 104.91 144.385 104.854 144.537 104.814C144.693 104.77 144.863 104.748 145.047 104.748C145.435 104.748 145.753 104.854 146.001 105.066C146.253 105.274 146.441 105.552 146.565 105.9C146.661 105.696 146.781 105.522 146.925 105.378C147.069 105.23 147.227 105.11 147.399 105.018C147.571 104.926 147.753 104.858 147.945 104.814C148.141 104.77 148.337 104.748 148.533 104.748C148.873 104.748 149.175 104.8 149.439 104.904C149.703 105.008 149.925 105.16 150.105 105.36C150.285 105.56 150.421 105.804 150.513 106.092C150.609 106.38 150.657 106.71 150.657 107.082V111H149.175V107.082C149.175 106.69 149.089 106.396 148.917 106.2C148.745 106 148.493 105.9 148.161 105.9C148.009 105.9 147.867 105.926 147.735 105.978C147.607 106.03 147.493 106.106 147.393 106.206C147.297 106.302 147.221 106.424 147.165 106.572C147.109 106.72 147.081 106.89 147.081 107.082V111H145.593V107.082C145.593 106.67 145.509 106.37 145.341 106.182C145.177 105.994 144.935 105.9 144.615 105.9C144.399 105.9 144.197 105.954 144.009 106.062C143.825 106.166 143.653 106.31 143.493 106.494V111H142.011ZM156.032 107.214C156.032 107.022 156.004 106.842 155.948 106.674C155.896 106.502 155.816 106.352 155.708 106.224C155.6 106.096 155.462 105.996 155.294 105.924C155.13 105.848 154.938 105.81 154.718 105.81C154.29 105.81 153.952 105.932 153.704 106.176C153.46 106.42 153.304 106.766 153.236 107.214H156.032ZM153.206 108.108C153.23 108.424 153.286 108.698 153.374 108.93C153.462 109.158 153.578 109.348 153.722 109.5C153.866 109.648 154.036 109.76 154.232 109.836C154.432 109.908 154.652 109.944 154.892 109.944C155.132 109.944 155.338 109.916 155.51 109.86C155.686 109.804 155.838 109.742 155.966 109.674C156.098 109.606 156.212 109.544 156.308 109.488C156.408 109.432 156.504 109.404 156.596 109.404C156.72 109.404 156.812 109.45 156.872 109.542L157.298 110.082C157.134 110.274 156.95 110.436 156.746 110.568C156.542 110.696 156.328 110.8 156.104 110.88C155.884 110.956 155.658 111.01 155.426 111.042C155.198 111.074 154.976 111.09 154.76 111.09C154.332 111.09 153.934 111.02 153.566 110.88C153.198 110.736 152.878 110.526 152.606 110.25C152.334 109.97 152.12 109.626 151.964 109.218C151.808 108.806 151.73 108.33 151.73 107.79C151.73 107.37 151.798 106.976 151.934 106.608C152.07 106.236 152.264 105.914 152.516 105.642C152.772 105.366 153.082 105.148 153.446 104.988C153.814 104.828 154.228 104.748 154.688 104.748C155.076 104.748 155.434 104.81 155.762 104.934C156.09 105.058 156.372 105.24 156.608 105.48C156.844 105.716 157.028 106.008 157.16 106.356C157.296 106.7 157.364 107.094 157.364 107.538C157.364 107.762 157.34 107.914 157.292 107.994C157.244 108.07 157.152 108.108 157.016 108.108H153.206Z" fill="black"/>
<rect x="88" y="89.5" width="99" height="33" rx="16.5" stroke="black"/>
<path d="M138.03 130.47C137.737 130.177 137.263 130.177 136.97 130.47L132.197 135.243C131.904 135.536 131.904 136.01 132.197 136.303C132.49 136.596 132.964 136.596 133.257 136.303L137.5 132.061L141.743 136.303C142.036 136.596 142.51 136.596 142.803 136.303C143.096 136.01 143.096 135.536 142.803 135.243L138.03 130.47ZM138.25 156V131H136.75V156H138.25Z" fill="black"/>
<path d="M138.03 130.47C137.737 130.177 137.263 130.177 136.97 130.47L132.197 135.243C131.904 135.536 131.904 136.01 132.197 136.303C132.49 136.596 132.964 136.596 133.257 136.303L137.5 132.061L141.743 136.303C142.036 136.596 142.51 136.596 142.803 136.303C143.096 136.01 143.096 135.536 142.803 135.243L138.03 130.47ZM138.25 156V131H136.75V156H138.25Z" fill="black"/>
<path d="M138.03 130.47C137.737 130.177 137.263 130.177 136.97 130.47L132.197 135.243C131.904 135.536 131.904 136.01 132.197 136.303C132.49 136.596 132.964 136.596 133.257 136.303L137.5 132.061L141.743 136.303C142.036 136.596 142.51 136.596 142.803 136.303C143.096 136.01 143.096 135.536 142.803 135.243L138.03 130.47ZM138.25 156V131H136.75V156H138.25Z" fill="black"/>
<path d="M133.397 181.662C133.397 182.298 133.291 182.882 133.079 183.414C132.867 183.946 132.569 184.404 132.185 184.788C131.801 185.172 131.339 185.47 130.799 185.682C130.259 185.894 129.659 186 128.999 186H125.693V177.324H128.999C129.659 177.324 130.259 177.432 130.799 177.648C131.339 177.86 131.801 178.158 132.185 178.542C132.569 178.922 132.867 179.378 133.079 179.91C133.291 180.442 133.397 181.026 133.397 181.662ZM131.741 181.662C131.741 181.186 131.677 180.76 131.549 180.384C131.425 180.004 131.243 179.684 131.003 179.424C130.767 179.16 130.479 178.958 130.139 178.818C129.803 178.678 129.423 178.608 128.999 178.608H127.313V184.716H128.999C129.423 184.716 129.803 184.646 130.139 184.506C130.479 184.366 130.767 184.166 131.003 183.906C131.243 183.642 131.425 183.322 131.549 182.946C131.677 182.566 131.741 182.138 131.741 181.662ZM137.687 183.372C137.259 183.392 136.899 183.43 136.607 183.486C136.315 183.538 136.081 183.606 135.905 183.69C135.729 183.774 135.603 183.872 135.527 183.984C135.451 184.096 135.413 184.218 135.413 184.35C135.413 184.61 135.489 184.796 135.641 184.908C135.797 185.02 135.999 185.076 136.247 185.076C136.551 185.076 136.813 185.022 137.033 184.914C137.257 184.802 137.475 184.634 137.687 184.41V183.372ZM134.291 180.702C134.999 180.054 135.851 179.73 136.847 179.73C137.207 179.73 137.529 179.79 137.813 179.91C138.097 180.026 138.337 180.19 138.533 180.402C138.729 180.61 138.877 180.86 138.977 181.152C139.081 181.444 139.133 181.764 139.133 182.112V186H138.461C138.321 186 138.213 185.98 138.137 185.94C138.061 185.896 138.001 185.81 137.957 185.682L137.825 185.238C137.669 185.378 137.517 185.502 137.369 185.61C137.221 185.714 137.067 185.802 136.907 185.874C136.747 185.946 136.575 186 136.391 186.036C136.211 186.076 136.011 186.096 135.791 186.096C135.531 186.096 135.291 186.062 135.071 185.994C134.851 185.922 134.661 185.816 134.501 185.676C134.341 185.536 134.217 185.362 134.129 185.154C134.041 184.946 133.997 184.704 133.997 184.428C133.997 184.272 134.023 184.118 134.075 183.966C134.127 183.81 134.211 183.662 134.327 183.522C134.447 183.382 134.601 183.25 134.789 183.126C134.977 183.002 135.207 182.894 135.479 182.802C135.755 182.71 136.075 182.636 136.439 182.58C136.803 182.52 137.219 182.484 137.687 182.472V182.112C137.687 181.7 137.599 181.396 137.423 181.2C137.247 181 136.993 180.9 136.661 180.9C136.421 180.9 136.221 180.928 136.061 180.984C135.905 181.04 135.767 181.104 135.647 181.176C135.527 181.244 135.417 181.306 135.317 181.362C135.221 181.418 135.113 181.446 134.993 181.446C134.889 181.446 134.801 181.42 134.729 181.368C134.657 181.312 134.599 181.248 134.555 181.176L134.291 180.702ZM142.499 186.096C141.963 186.096 141.551 185.946 141.263 185.646C140.979 185.342 140.837 184.924 140.837 184.392V180.954H140.207C140.127 180.954 140.059 180.928 140.003 180.876C139.947 180.824 139.919 180.746 139.919 180.642V180.054L140.909 179.892L141.221 178.212C141.241 178.132 141.279 178.07 141.335 178.026C141.391 177.982 141.463 177.96 141.551 177.96H142.319V179.898H143.963V180.954H142.319V184.29C142.319 184.482 142.365 184.632 142.457 184.74C142.553 184.848 142.683 184.902 142.847 184.902C142.939 184.902 143.015 184.892 143.075 184.872C143.139 184.848 143.193 184.824 143.237 184.8C143.285 184.776 143.327 184.754 143.363 184.734C143.399 184.71 143.435 184.698 143.471 184.698C143.515 184.698 143.551 184.71 143.579 184.734C143.607 184.754 143.637 184.786 143.669 184.83L144.113 185.55C143.897 185.73 143.649 185.866 143.369 185.958C143.089 186.05 142.799 186.096 142.499 186.096ZM148.164 183.372C147.736 183.392 147.376 183.43 147.084 183.486C146.792 183.538 146.558 183.606 146.382 183.69C146.206 183.774 146.08 183.872 146.004 183.984C145.928 184.096 145.89 184.218 145.89 184.35C145.89 184.61 145.966 184.796 146.118 184.908C146.274 185.02 146.476 185.076 146.724 185.076C147.028 185.076 147.29 185.022 147.51 184.914C147.734 184.802 147.952 184.634 148.164 184.41V183.372ZM144.768 180.702C145.476 180.054 146.328 179.73 147.324 179.73C147.684 179.73 148.006 179.79 148.29 179.91C148.574 180.026 148.814 180.19 149.01 180.402C149.206 180.61 149.354 180.86 149.454 181.152C149.558 181.444 149.61 181.764 149.61 182.112V186H148.938C148.798 186 148.69 185.98 148.614 185.94C148.538 185.896 148.478 185.81 148.434 185.682L148.302 185.238C148.146 185.378 147.994 185.502 147.846 185.61C147.698 185.714 147.544 185.802 147.384 185.874C147.224 185.946 147.052 186 146.868 186.036C146.688 186.076 146.488 186.096 146.268 186.096C146.008 186.096 145.768 186.062 145.548 185.994C145.328 185.922 145.138 185.816 144.978 185.676C144.818 185.536 144.694 185.362 144.606 185.154C144.518 184.946 144.474 184.704 144.474 184.428C144.474 184.272 144.5 184.118 144.552 183.966C144.604 183.81 144.688 183.662 144.804 183.522C144.924 183.382 145.078 183.25 145.266 183.126C145.454 183.002 145.684 182.894 145.956 182.802C146.232 182.71 146.552 182.636 146.916 182.58C147.28 182.52 147.696 182.484 148.164 182.472V182.112C148.164 181.7 148.076 181.396 147.9 181.2C147.724 181 147.47 180.9 147.138 180.9C146.898 180.9 146.698 180.928 146.538 180.984C146.382 181.04 146.244 181.104 146.124 181.176C146.004 181.244 145.894 181.306 145.794 181.362C145.698 181.418 145.59 181.446 145.47 181.446C145.366 181.446 145.278 181.42 145.206 181.368C145.134 181.312 145.076 181.248 145.032 181.176L144.768 180.702ZM115.313 200H113.693V191.324H115.313V200ZM118.313 194.6C118.437 194.476 118.567 194.362 118.703 194.258C118.843 194.15 118.989 194.06 119.141 193.988C119.297 193.912 119.463 193.854 119.639 193.814C119.815 193.77 120.007 193.748 120.215 193.748C120.551 193.748 120.849 193.806 121.109 193.922C121.369 194.034 121.585 194.194 121.757 194.402C121.933 194.606 122.065 194.852 122.153 195.14C122.245 195.424 122.291 195.738 122.291 196.082V200H120.809V196.082C120.809 195.706 120.723 195.416 120.551 195.212C120.379 195.004 120.117 194.9 119.765 194.9C119.509 194.9 119.269 194.958 119.045 195.074C118.821 195.19 118.609 195.348 118.409 195.548V200H116.927V193.844H117.833C118.025 193.844 118.151 193.934 118.211 194.114L118.313 194.6ZM125.951 196.772C126.135 196.772 126.295 196.748 126.431 196.7C126.567 196.648 126.679 196.578 126.767 196.49C126.859 196.402 126.927 196.296 126.971 196.172C127.019 196.048 127.043 195.912 127.043 195.764C127.043 195.46 126.951 195.22 126.767 195.044C126.587 194.864 126.315 194.774 125.951 194.774C125.587 194.774 125.313 194.864 125.129 195.044C124.949 195.22 124.859 195.46 124.859 195.764C124.859 195.908 124.881 196.042 124.925 196.166C124.973 196.29 125.041 196.398 125.129 196.49C125.221 196.578 125.335 196.648 125.471 196.7C125.611 196.748 125.771 196.772 125.951 196.772ZM127.625 200.276C127.625 200.156 127.589 200.058 127.517 199.982C127.445 199.906 127.347 199.848 127.223 199.808C127.099 199.764 126.953 199.732 126.785 199.712C126.621 199.692 126.445 199.678 126.257 199.67C126.073 199.658 125.881 199.648 125.681 199.64C125.485 199.632 125.293 199.616 125.105 199.592C124.941 199.684 124.807 199.792 124.703 199.916C124.603 200.04 124.553 200.184 124.553 200.348C124.553 200.456 124.579 200.556 124.631 200.648C124.687 200.744 124.773 200.826 124.889 200.894C125.009 200.962 125.163 201.014 125.351 201.05C125.539 201.09 125.769 201.11 126.041 201.11C126.317 201.11 126.555 201.088 126.755 201.044C126.955 201.004 127.119 200.946 127.247 200.87C127.379 200.798 127.475 200.71 127.535 200.606C127.595 200.506 127.625 200.396 127.625 200.276ZM129.101 194.054V194.606C129.101 194.782 128.995 194.89 128.783 194.93L128.231 195.032C128.315 195.244 128.357 195.476 128.357 195.728C128.357 196.032 128.295 196.308 128.171 196.556C128.051 196.8 127.883 197.008 127.667 197.18C127.451 197.352 127.195 197.486 126.899 197.582C126.607 197.674 126.291 197.72 125.951 197.72C125.831 197.72 125.715 197.714 125.603 197.702C125.491 197.69 125.381 197.674 125.273 197.654C125.081 197.77 124.985 197.9 124.985 198.044C124.985 198.168 125.041 198.26 125.153 198.32C125.269 198.376 125.421 198.416 125.609 198.44C125.797 198.464 126.011 198.48 126.251 198.488C126.491 198.492 126.737 198.504 126.989 198.524C127.241 198.544 127.487 198.58 127.727 198.632C127.967 198.68 128.181 198.758 128.369 198.866C128.557 198.974 128.707 199.122 128.819 199.31C128.935 199.494 128.993 199.732 128.993 200.024C128.993 200.296 128.925 200.56 128.789 200.816C128.657 201.072 128.463 201.3 128.207 201.5C127.955 201.7 127.643 201.86 127.271 201.98C126.903 202.104 126.483 202.166 126.011 202.166C125.547 202.166 125.143 202.12 124.799 202.028C124.455 201.94 124.169 201.82 123.941 201.668C123.713 201.52 123.543 201.348 123.431 201.152C123.319 200.956 123.263 200.752 123.263 200.54C123.263 200.252 123.349 200.012 123.521 199.82C123.697 199.624 123.937 199.468 124.241 199.352C124.077 199.268 123.947 199.156 123.851 199.016C123.755 198.876 123.707 198.692 123.707 198.464C123.707 198.372 123.723 198.278 123.755 198.182C123.791 198.082 123.841 197.984 123.905 197.888C123.973 197.792 124.057 197.702 124.157 197.618C124.257 197.53 124.375 197.452 124.511 197.384C124.199 197.216 123.953 196.992 123.773 196.712C123.597 196.432 123.509 196.104 123.509 195.728C123.509 195.424 123.569 195.15 123.689 194.906C123.813 194.658 123.983 194.448 124.199 194.276C124.419 194.1 124.677 193.966 124.973 193.874C125.273 193.782 125.599 193.736 125.951 193.736C126.215 193.736 126.463 193.764 126.695 193.82C126.927 193.872 127.139 193.95 127.331 194.054H129.101ZM133.901 196.214C133.901 196.022 133.873 195.842 133.817 195.674C133.765 195.502 133.685 195.352 133.577 195.224C133.469 195.096 133.331 194.996 133.163 194.924C132.999 194.848 132.807 194.81 132.587 194.81C132.159 194.81 131.821 194.932 131.573 195.176C131.329 195.42 131.173 195.766 131.105 196.214H133.901ZM131.075 197.108C131.099 197.424 131.155 197.698 131.243 197.93C131.331 198.158 131.447 198.348 131.591 198.5C131.735 198.648 131.905 198.76 132.101 198.836C132.301 198.908 132.521 198.944 132.761 198.944C133.001 198.944 133.207 198.916 133.379 198.86C133.555 198.804 133.707 198.742 133.835 198.674C133.967 198.606 134.081 198.544 134.177 198.488C134.277 198.432 134.373 198.404 134.465 198.404C134.589 198.404 134.681 198.45 134.741 198.542L135.167 199.082C135.003 199.274 134.819 199.436 134.615 199.568C134.411 199.696 134.197 199.8 133.973 199.88C133.753 199.956 133.527 200.01 133.295 200.042C133.067 200.074 132.845 200.09 132.629 200.09C132.201 200.09 131.803 200.02 131.435 199.88C131.067 199.736 130.747 199.526 130.475 199.25C130.203 198.97 129.989 198.626 129.833 198.218C129.677 197.806 129.599 197.33 129.599 196.79C129.599 196.37 129.667 195.976 129.803 195.608C129.939 195.236 130.133 194.914 130.385 194.642C130.641 194.366 130.951 194.148 131.315 193.988C131.683 193.828 132.097 193.748 132.557 193.748C132.945 193.748 133.303 193.81 133.631 193.934C133.959 194.058 134.241 194.24 134.477 194.48C134.713 194.716 134.897 195.008 135.029 195.356C135.165 195.7 135.233 196.094 135.233 196.538C135.233 196.762 135.209 196.914 135.161 196.994C135.113 197.07 135.021 197.108 134.885 197.108H131.075ZM140.101 195.044C140.061 195.108 140.019 195.154 139.975 195.182C139.931 195.206 139.875 195.218 139.807 195.218C139.735 195.218 139.657 195.198 139.573 195.158C139.493 195.118 139.399 195.074 139.291 195.026C139.183 194.974 139.059 194.928 138.919 194.888C138.783 194.848 138.621 194.828 138.433 194.828C138.141 194.828 137.911 194.89 137.743 195.014C137.579 195.138 137.497 195.3 137.497 195.5C137.497 195.632 137.539 195.744 137.623 195.836C137.711 195.924 137.825 196.002 137.965 196.07C138.109 196.138 138.271 196.2 138.451 196.256C138.631 196.308 138.813 196.366 138.997 196.43C139.185 196.494 139.369 196.568 139.549 196.652C139.729 196.732 139.889 196.836 140.029 196.964C140.173 197.088 140.287 197.238 140.371 197.414C140.459 197.59 140.503 197.802 140.503 198.05C140.503 198.346 140.449 198.62 140.341 198.872C140.237 199.12 140.081 199.336 139.873 199.52C139.665 199.7 139.407 199.842 139.099 199.946C138.795 200.046 138.443 200.096 138.043 200.096C137.831 200.096 137.623 200.076 137.419 200.036C137.219 200 137.025 199.948 136.837 199.88C136.653 199.812 136.481 199.732 136.321 199.64C136.165 199.548 136.027 199.448 135.907 199.34L136.249 198.776C136.293 198.708 136.345 198.656 136.405 198.62C136.465 198.584 136.541 198.566 136.633 198.566C136.725 198.566 136.811 198.592 136.891 198.644C136.975 198.696 137.071 198.752 137.179 198.812C137.287 198.872 137.413 198.928 137.557 198.98C137.705 199.032 137.891 199.058 138.115 199.058C138.291 199.058 138.441 199.038 138.565 198.998C138.693 198.954 138.797 198.898 138.877 198.83C138.961 198.762 139.021 198.684 139.057 198.596C139.097 198.504 139.117 198.41 139.117 198.314C139.117 198.17 139.073 198.052 138.985 197.96C138.901 197.868 138.787 197.788 138.643 197.72C138.503 197.652 138.341 197.592 138.157 197.54C137.977 197.484 137.791 197.424 137.599 197.36C137.411 197.296 137.225 197.222 137.041 197.138C136.861 197.05 136.699 196.94 136.555 196.808C136.415 196.676 136.301 196.514 136.213 196.322C136.129 196.13 136.087 195.898 136.087 195.626C136.087 195.374 136.137 195.134 136.237 194.906C136.337 194.678 136.483 194.48 136.675 194.312C136.871 194.14 137.113 194.004 137.401 193.904C137.693 193.8 138.029 193.748 138.409 193.748C138.833 193.748 139.219 193.818 139.567 193.958C139.915 194.098 140.205 194.282 140.437 194.51L140.101 195.044ZM147.829 200H146.347V194.954H143.491V198.29C143.491 198.482 143.537 198.632 143.629 198.74C143.725 198.848 143.855 198.902 144.019 198.902C144.111 198.902 144.187 198.892 144.247 198.872C144.311 198.848 144.365 198.824 144.409 198.8C144.457 198.776 144.499 198.754 144.535 198.734C144.571 198.71 144.607 198.698 144.643 198.698C144.687 198.698 144.723 198.71 144.751 198.734C144.779 198.754 144.809 198.786 144.841 198.83L145.285 199.55C145.069 199.73 144.821 199.866 144.541 199.958C144.261 200.05 143.971 200.096 143.671 200.096C143.135 200.096 142.723 199.946 142.435 199.646C142.151 199.342 142.009 198.924 142.009 198.392V194.954H141.379C141.299 194.954 141.231 194.928 141.175 194.876C141.119 194.824 141.091 194.746 141.091 194.642V194.054L142.081 193.886L142.393 192.212C142.413 192.132 142.451 192.07 142.507 192.026C142.563 191.982 142.635 191.96 142.723 191.96H143.491V193.898H147.829V200ZM148.087 192.026C148.087 192.154 148.061 192.276 148.009 192.392C147.957 192.504 147.887 192.602 147.799 192.686C147.715 192.77 147.613 192.838 147.493 192.89C147.377 192.938 147.253 192.962 147.121 192.962C146.993 192.962 146.873 192.938 146.761 192.89C146.649 192.838 146.551 192.77 146.467 192.686C146.383 192.602 146.315 192.504 146.263 192.392C146.215 192.276 146.191 192.154 146.191 192.026C146.191 191.894 146.215 191.772 146.263 191.66C146.315 191.544 146.383 191.444 146.467 191.36C146.551 191.272 146.649 191.204 146.761 191.156C146.873 191.104 146.993 191.078 147.121 191.078C147.253 191.078 147.377 191.104 147.493 191.156C147.613 191.204 147.715 191.272 147.799 191.36C147.887 191.444 147.957 191.544 148.009 191.66C148.061 191.772 148.087 191.894 148.087 192.026ZM152.065 193.748C152.521 193.748 152.935 193.822 153.307 193.97C153.683 194.118 154.003 194.328 154.267 194.6C154.535 194.872 154.741 195.204 154.885 195.596C155.029 195.988 155.101 196.426 155.101 196.91C155.101 197.398 155.029 197.838 154.885 198.23C154.741 198.622 154.535 198.956 154.267 199.232C154.003 199.508 153.683 199.72 153.307 199.868C152.935 200.016 152.521 200.09 152.065 200.09C151.605 200.09 151.187 200.016 150.811 199.868C150.435 199.72 150.113 199.508 149.845 199.232C149.581 198.956 149.375 198.622 149.227 198.23C149.083 197.838 149.011 197.398 149.011 196.91C149.011 196.426 149.083 195.988 149.227 195.596C149.375 195.204 149.581 194.872 149.845 194.6C150.113 194.328 150.435 194.118 150.811 193.97C151.187 193.822 151.605 193.748 152.065 193.748ZM152.065 198.95C152.577 198.95 152.955 198.778 153.199 198.434C153.447 198.09 153.571 197.586 153.571 196.922C153.571 196.258 153.447 195.752 153.199 195.404C152.955 195.056 152.577 194.882 152.065 194.882C151.545 194.882 151.159 195.058 150.907 195.41C150.659 195.758 150.535 196.262 150.535 196.922C150.535 197.582 150.659 198.086 150.907 198.434C151.159 198.778 151.545 198.95 152.065 198.95ZM157.618 194.6C157.742 194.476 157.872 194.362 158.008 194.258C158.148 194.15 158.294 194.06 158.446 193.988C158.602 193.912 158.768 193.854 158.944 193.814C159.12 193.77 159.312 193.748 159.52 193.748C159.856 193.748 160.154 193.806 160.414 193.922C160.674 194.034 160.89 194.194 161.062 194.402C161.238 194.606 161.37 194.852 161.458 195.14C161.55 195.424 161.596 195.738 161.596 196.082V200H160.114V196.082C160.114 195.706 160.028 195.416 159.856 195.212C159.684 195.004 159.422 194.9 159.07 194.9C158.814 194.9 158.574 194.958 158.35 195.074C158.126 195.19 157.914 195.348 157.714 195.548V200H156.232V193.844H157.138C157.33 193.844 157.456 193.934 157.516 194.114L157.618 194.6ZM119.841 209.686C120.137 209.686 120.395 209.65 120.615 209.578C120.835 209.502 121.017 209.396 121.161 209.26C121.309 209.12 121.419 208.952 121.491 208.756C121.563 208.556 121.599 208.334 121.599 208.09C121.599 207.858 121.563 207.648 121.491 207.46C121.419 207.272 121.311 207.112 121.167 206.98C121.023 206.848 120.841 206.748 120.621 206.68C120.401 206.608 120.141 206.572 119.841 206.572H118.635V209.686H119.841ZM119.841 205.324C120.421 205.324 120.923 205.392 121.347 205.528C121.771 205.664 122.121 205.854 122.397 206.098C122.673 206.342 122.877 206.634 123.009 206.974C123.145 207.314 123.213 207.686 123.213 208.09C123.213 208.51 123.143 208.896 123.003 209.248C122.863 209.596 122.653 209.896 122.373 210.148C122.093 210.4 121.741 210.596 121.317 210.736C120.897 210.876 120.405 210.946 119.841 210.946H118.635V214H117.021V205.324H119.841ZM125.729 207.844V214H124.241V207.844H125.729ZM125.933 206.05C125.933 206.178 125.907 206.298 125.855 206.41C125.803 206.522 125.733 206.62 125.645 206.704C125.561 206.788 125.461 206.856 125.345 206.908C125.229 206.956 125.105 206.98 124.973 206.98C124.845 206.98 124.723 206.956 124.607 206.908C124.495 206.856 124.397 206.788 124.313 206.704C124.229 206.62 124.161 206.522 124.109 206.41C124.061 206.298 124.037 206.178 124.037 206.05C124.037 205.918 124.061 205.794 124.109 205.678C124.161 205.562 124.229 205.462 124.313 205.378C124.397 205.294 124.495 205.228 124.607 205.18C124.723 205.128 124.845 205.102 124.973 205.102C125.105 205.102 125.229 205.128 125.345 205.18C125.461 205.228 125.561 205.294 125.645 205.378C125.733 205.462 125.803 205.562 125.855 205.678C125.907 205.794 125.933 205.918 125.933 206.05ZM128.722 212.404C128.89 212.608 129.072 212.752 129.268 212.836C129.468 212.92 129.684 212.962 129.916 212.962C130.14 212.962 130.342 212.92 130.522 212.836C130.702 212.752 130.854 212.624 130.978 212.452C131.106 212.28 131.204 212.064 131.272 211.804C131.34 211.54 131.374 211.23 131.374 210.874C131.374 210.514 131.344 210.21 131.284 209.962C131.228 209.71 131.146 209.506 131.038 209.35C130.93 209.194 130.798 209.08 130.642 209.008C130.49 208.936 130.316 208.9 130.12 208.9C129.812 208.9 129.55 208.966 129.334 209.098C129.118 209.226 128.914 209.408 128.722 209.644V212.404ZM128.644 208.684C128.896 208.4 129.182 208.17 129.502 207.994C129.822 207.818 130.198 207.73 130.63 207.73C130.966 207.73 131.272 207.8 131.548 207.94C131.828 208.08 132.068 208.284 132.268 208.552C132.472 208.816 132.628 209.144 132.736 209.536C132.848 209.924 132.904 210.37 132.904 210.874C132.904 211.334 132.842 211.76 132.718 212.152C132.594 212.544 132.416 212.884 132.184 213.172C131.956 213.46 131.678 213.686 131.35 213.85C131.026 214.01 130.662 214.09 130.258 214.09C129.914 214.09 129.62 214.038 129.376 213.934C129.132 213.826 128.914 213.678 128.722 213.49V216.01H127.24V207.844H128.146C128.338 207.844 128.464 207.934 128.524 208.114L128.644 208.684ZM138.026 210.214C138.026 210.022 137.998 209.842 137.942 209.674C137.89 209.502 137.81 209.352 137.702 209.224C137.594 209.096 137.456 208.996 137.288 208.924C137.124 208.848 136.932 208.81 136.712 208.81C136.284 208.81 135.946 208.932 135.698 209.176C135.454 209.42 135.298 209.766 135.23 210.214H138.026ZM135.2 211.108C135.224 211.424 135.28 211.698 135.368 211.93C135.456 212.158 135.572 212.348 135.716 212.5C135.86 212.648 136.03 212.76 136.226 212.836C136.426 212.908 136.646 212.944 136.886 212.944C137.126 212.944 137.332 212.916 137.504 212.86C137.68 212.804 137.832 212.742 137.96 212.674C138.092 212.606 138.206 212.544 138.302 212.488C138.402 212.432 138.498 212.404 138.59 212.404C138.714 212.404 138.806 212.45 138.866 212.542L139.292 213.082C139.128 213.274 138.944 213.436 138.74 213.568C138.536 213.696 138.322 213.8 138.098 213.88C137.878 213.956 137.652 214.01 137.42 214.042C137.192 214.074 136.97 214.09 136.754 214.09C136.326 214.09 135.928 214.02 135.56 213.88C135.192 213.736 134.872 213.526 134.6 213.25C134.328 212.97 134.114 212.626 133.958 212.218C133.802 211.806 133.724 211.33 133.724 210.79C133.724 210.37 133.792 209.976 133.928 209.608C134.064 209.236 134.258 208.914 134.51 208.642C134.766 208.366 135.076 208.148 135.44 207.988C135.808 207.828 136.222 207.748 136.682 207.748C137.07 207.748 137.428 207.81 137.756 207.934C138.084 208.058 138.366 208.24 138.602 208.48C138.838 208.716 139.022 209.008 139.154 209.356C139.29 209.7 139.358 210.094 139.358 210.538C139.358 210.762 139.334 210.914 139.286 210.994C139.238 211.07 139.146 211.108 139.01 211.108H135.2ZM141.97 205.084V214H140.488V205.084H141.97ZM144.983 207.844V214H143.495V207.844H144.983ZM145.187 206.05C145.187 206.178 145.161 206.298 145.109 206.41C145.057 206.522 144.987 206.62 144.899 206.704C144.815 206.788 144.715 206.856 144.599 206.908C144.483 206.956 144.359 206.98 144.227 206.98C144.099 206.98 143.977 206.956 143.861 206.908C143.749 206.856 143.651 206.788 143.567 206.704C143.483 206.62 143.415 206.522 143.363 206.41C143.315 206.298 143.291 206.178 143.291 206.05C143.291 205.918 143.315 205.794 143.363 205.678C143.415 205.562 143.483 205.462 143.567 205.378C143.651 205.294 143.749 205.228 143.861 205.18C143.977 205.128 144.099 205.102 144.227 205.102C144.359 205.102 144.483 205.128 144.599 205.18C144.715 205.228 144.815 205.294 144.899 205.378C144.987 205.462 145.057 205.562 145.109 205.678C145.161 205.794 145.187 205.918 145.187 206.05ZM147.88 208.6C148.004 208.476 148.134 208.362 148.27 208.258C148.41 208.15 148.556 208.06 148.708 207.988C148.864 207.912 149.03 207.854 149.206 207.814C149.382 207.77 149.574 207.748 149.782 207.748C150.118 207.748 150.416 207.806 150.676 207.922C150.936 208.034 151.152 208.194 151.324 208.402C151.5 208.606 151.632 208.852 151.72 209.14C151.812 209.424 151.858 209.738 151.858 210.082V214H150.376V210.082C150.376 209.706 150.29 209.416 150.118 209.212C149.946 209.004 149.684 208.9 149.332 208.9C149.076 208.9 148.836 208.958 148.612 209.074C148.388 209.19 148.176 209.348 147.976 209.548V214H146.494V207.844H147.4C147.592 207.844 147.718 207.934 147.778 208.114L147.88 208.6ZM157.233 210.214C157.233 210.022 157.205 209.842 157.149 209.674C157.097 209.502 157.017 209.352 156.909 209.224C156.801 209.096 156.663 208.996 156.495 208.924C156.331 208.848 156.139 208.81 155.919 208.81C155.491 208.81 155.153 208.932 154.905 209.176C154.661 209.42 154.505 209.766 154.437 210.214H157.233ZM154.407 211.108C154.431 211.424 154.487 211.698 154.575 211.93C154.663 212.158 154.779 212.348 154.923 212.5C155.067 212.648 155.237 212.76 155.433 212.836C155.633 212.908 155.853 212.944 156.093 212.944C156.333 212.944 156.539 212.916 156.711 212.86C156.887 212.804 157.039 212.742 157.167 212.674C157.299 212.606 157.413 212.544 157.509 212.488C157.609 212.432 157.705 212.404 157.797 212.404C157.921 212.404 158.013 212.45 158.073 212.542L158.499 213.082C158.335 213.274 158.151 213.436 157.947 213.568C157.743 213.696 157.529 213.8 157.305 213.88C157.085 213.956 156.859 214.01 156.627 214.042C156.399 214.074 156.177 214.09 155.961 214.09C155.533 214.09 155.135 214.02 154.767 213.88C154.399 213.736 154.079 213.526 153.807 213.25C153.535 212.97 153.321 212.626 153.165 212.218C153.009 211.806 152.931 211.33 152.931 210.79C152.931 210.37 152.999 209.976 153.135 209.608C153.271 209.236 153.465 208.914 153.717 208.642C153.973 208.366 154.283 208.148 154.647 207.988C155.015 207.828 155.429 207.748 155.889 207.748C156.277 207.748 156.635 207.81 156.963 207.934C157.291 208.058 157.573 208.24 157.809 208.48C158.045 208.716 158.229 209.008 158.361 209.356C158.497 209.7 158.565 210.094 158.565 210.538C158.565 210.762 158.541 210.914 158.493 210.994C158.445 211.07 158.353 211.108 158.217 211.108H154.407Z" fill="black"/>
<rect x="88" y="164.5" width="99" height="61" rx="4.5" stroke="black"/>
<path d="M138.03 233.47C137.737 233.177 137.263 233.177 136.97 233.47L132.197 238.243C131.904 238.536 131.904 239.01 132.197 239.303C132.49 239.596 132.964 239.596 133.257 239.303L137.5 235.061L141.743 239.303C142.036 239.596 142.51 239.596 142.803 239.303C143.096 239.01 143.096 238.536 142.803 238.243L138.03 233.47ZM138.25 259V234H136.75V259H138.25Z" fill="black"/>
<path d="M138.03 233.47C137.737 233.177 137.263 233.177 136.97 233.47L132.197 238.243C131.904 238.536 131.904 239.01 132.197 239.303C132.49 239.596 132.964 239.596 133.257 239.303L137.5 235.061L141.743 239.303C142.036 239.596 142.51 239.596 142.803 239.303C143.096 239.01 143.096 238.536 142.803 238.243L138.03 233.47ZM138.25 259V234H136.75V259H138.25Z" fill="black"/>
<path d="M138.03 233.47C137.737 233.177 137.263 233.177 136.97 233.47L132.197 238.243C131.904 238.536 131.904 239.01 132.197 239.303C132.49 239.596 132.964 239.596 133.257 239.303L137.5 235.061L141.743 239.303C142.036 239.596 142.51 239.596 142.803 239.303C143.096 239.01 143.096 238.536 142.803 238.243L138.03 233.47ZM138.25 259V234H136.75V259H138.25Z" fill="black"/>
<path d="M111.201 284.662C111.201 285.298 111.095 285.882 110.883 286.414C110.671 286.946 110.373 287.404 109.989 287.788C109.605 288.172 109.143 288.47 108.603 288.682C108.063 288.894 107.463 289 106.803 289H103.497V280.324H106.803C107.463 280.324 108.063 280.432 108.603 280.648C109.143 280.86 109.605 281.158 109.989 281.542C110.373 281.922 110.671 282.378 110.883 282.91C111.095 283.442 111.201 284.026 111.201 284.662ZM109.545 284.662C109.545 284.186 109.481 283.76 109.353 283.384C109.229 283.004 109.047 282.684 108.807 282.424C108.571 282.16 108.283 281.958 107.943 281.818C107.607 281.678 107.227 281.608 106.803 281.608H105.117V287.716H106.803C107.227 287.716 107.607 287.646 107.943 287.506C108.283 287.366 108.571 287.166 108.807 286.906C109.047 286.642 109.229 286.322 109.353 285.946C109.481 285.566 109.545 285.138 109.545 284.662ZM114.246 289H112.626V280.324H114.246V289ZM122.147 286.954C122.235 286.954 122.313 286.988 122.381 287.056L123.017 287.746C122.665 288.182 122.231 288.516 121.715 288.748C121.203 288.98 120.587 289.096 119.867 289.096C119.223 289.096 118.643 288.986 118.127 288.766C117.615 288.546 117.177 288.24 116.813 287.848C116.449 287.456 116.169 286.988 115.973 286.444C115.781 285.9 115.685 285.306 115.685 284.662C115.685 284.01 115.789 283.414 115.997 282.874C116.205 282.33 116.497 281.862 116.873 281.47C117.253 281.078 117.705 280.774 118.229 280.558C118.753 280.338 119.333 280.228 119.969 280.228C120.601 280.228 121.161 280.332 121.649 280.54C122.141 280.748 122.559 281.02 122.903 281.356L122.363 282.106C122.331 282.154 122.289 282.196 122.237 282.232C122.189 282.268 122.121 282.286 122.033 282.286C121.973 282.286 121.911 282.27 121.847 282.238C121.783 282.202 121.713 282.16 121.637 282.112C121.561 282.06 121.473 282.004 121.373 281.944C121.273 281.884 121.157 281.83 121.025 281.782C120.893 281.73 120.739 281.688 120.563 281.656C120.391 281.62 120.191 281.602 119.963 281.602C119.575 281.602 119.219 281.672 118.895 281.812C118.575 281.948 118.299 282.148 118.067 282.412C117.835 282.672 117.655 282.992 117.527 283.372C117.399 283.748 117.335 284.178 117.335 284.662C117.335 285.15 117.403 285.584 117.539 285.964C117.679 286.344 117.867 286.664 118.103 286.924C118.339 287.184 118.617 287.384 118.937 287.524C119.257 287.66 119.601 287.728 119.969 287.728C120.189 287.728 120.387 287.716 120.563 287.692C120.743 287.668 120.907 287.63 121.055 287.578C121.207 287.526 121.349 287.46 121.481 287.38C121.617 287.296 121.751 287.194 121.883 287.074C121.923 287.038 121.965 287.01 122.009 286.99C122.053 286.966 122.099 286.954 122.147 286.954ZM132.209 284.662C132.209 285.298 132.103 285.888 131.891 286.432C131.683 286.972 131.387 287.44 131.003 287.836C130.619 288.232 130.157 288.542 129.617 288.766C129.077 288.986 128.477 289.096 127.817 289.096C127.161 289.096 126.563 288.986 126.023 288.766C125.483 288.542 125.019 288.232 124.631 287.836C124.247 287.44 123.949 286.972 123.737 286.432C123.525 285.888 123.419 285.298 123.419 284.662C123.419 284.026 123.525 283.438 123.737 282.898C123.949 282.354 124.247 281.884 124.631 281.488C125.019 281.092 125.483 280.784 126.023 280.564C126.563 280.34 127.161 280.228 127.817 280.228C128.257 280.228 128.671 280.28 129.059 280.384C129.447 280.484 129.803 280.628 130.127 280.816C130.451 281 130.741 281.226 130.997 281.494C131.257 281.758 131.477 282.054 131.657 282.382C131.837 282.71 131.973 283.066 132.065 283.45C132.161 283.834 132.209 284.238 132.209 284.662ZM130.559 284.662C130.559 284.186 130.495 283.76 130.367 283.384C130.239 283.004 130.057 282.682 129.821 282.418C129.585 282.154 129.297 281.952 128.957 281.812C128.621 281.672 128.241 281.602 127.817 281.602C127.393 281.602 127.011 281.672 126.671 281.812C126.335 281.952 126.047 282.154 125.807 282.418C125.571 282.682 125.389 283.004 125.261 283.384C125.133 283.76 125.069 284.186 125.069 284.662C125.069 285.138 125.133 285.566 125.261 285.946C125.389 286.322 125.571 286.642 125.807 286.906C126.047 287.166 126.335 287.366 126.671 287.506C127.011 287.646 127.393 287.716 127.817 287.716C128.241 287.716 128.621 287.646 128.957 287.506C129.297 287.366 129.585 287.166 129.821 286.906C130.057 286.642 130.239 286.322 130.367 285.946C130.495 285.566 130.559 285.138 130.559 284.662ZM143.034 280.324V289H141.612V283.396C141.612 283.172 141.624 282.93 141.648 282.67L139.026 287.596C138.902 287.832 138.712 287.95 138.456 287.95H138.228C137.972 287.95 137.782 287.832 137.658 287.596L135.006 282.652C135.018 282.784 135.028 282.914 135.036 283.042C135.044 283.17 135.048 283.288 135.048 283.396V289H133.626V280.324H134.844C134.916 280.324 134.978 280.326 135.03 280.33C135.082 280.334 135.128 280.344 135.168 280.36C135.212 280.376 135.25 280.402 135.282 280.438C135.318 280.474 135.352 280.522 135.384 280.582L137.982 285.4C138.05 285.528 138.112 285.66 138.168 285.796C138.228 285.932 138.286 286.072 138.342 286.216C138.398 286.068 138.456 285.926 138.516 285.79C138.576 285.65 138.64 285.516 138.708 285.388L141.27 280.582C141.302 280.522 141.336 280.474 141.372 280.438C141.408 280.402 141.446 280.376 141.486 280.36C141.53 280.344 141.578 280.334 141.63 280.33C141.682 280.326 141.744 280.324 141.816 280.324H143.034ZM155.592 284.662C155.592 285.298 155.486 285.882 155.274 286.414C155.062 286.946 154.764 287.404 154.38 287.788C153.996 288.172 153.534 288.47 152.994 288.682C152.454 288.894 151.854 289 151.194 289H147.888V280.324H151.194C151.854 280.324 152.454 280.432 152.994 280.648C153.534 280.86 153.996 281.158 154.38 281.542C154.764 281.922 155.062 282.378 155.274 282.91C155.486 283.442 155.592 284.026 155.592 284.662ZM153.936 284.662C153.936 284.186 153.872 283.76 153.744 283.384C153.62 283.004 153.438 282.684 153.198 282.424C152.962 282.16 152.674 281.958 152.334 281.818C151.998 281.678 151.618 281.608 151.194 281.608H149.508V287.716H151.194C151.618 287.716 151.998 287.646 152.334 287.506C152.674 287.366 152.962 287.166 153.198 286.906C153.438 286.642 153.62 286.322 153.744 285.946C153.872 285.566 153.936 285.138 153.936 284.662ZM159.882 286.372C159.454 286.392 159.094 286.43 158.802 286.486C158.51 286.538 158.276 286.606 158.1 286.69C157.924 286.774 157.798 286.872 157.722 286.984C157.646 287.096 157.608 287.218 157.608 287.35C157.608 287.61 157.684 287.796 157.836 287.908C157.992 288.02 158.194 288.076 158.442 288.076C158.746 288.076 159.008 288.022 159.228 287.914C159.452 287.802 159.67 287.634 159.882 287.41V286.372ZM156.486 283.702C157.194 283.054 158.046 282.73 159.042 282.73C159.402 282.73 159.724 282.79 160.008 282.91C160.292 283.026 160.532 283.19 160.728 283.402C160.924 283.61 161.072 283.86 161.172 284.152C161.276 284.444 161.328 284.764 161.328 285.112V289H160.656C160.516 289 160.408 288.98 160.332 288.94C160.256 288.896 160.196 288.81 160.152 288.682L160.02 288.238C159.864 288.378 159.712 288.502 159.564 288.61C159.416 288.714 159.262 288.802 159.102 288.874C158.942 288.946 158.77 289 158.586 289.036C158.406 289.076 158.206 289.096 157.986 289.096C157.726 289.096 157.486 289.062 157.266 288.994C157.046 288.922 156.856 288.816 156.696 288.676C156.536 288.536 156.412 288.362 156.324 288.154C156.236 287.946 156.192 287.704 156.192 287.428C156.192 287.272 156.218 287.118 156.27 286.966C156.322 286.81 156.406 286.662 156.522 286.522C156.642 286.382 156.796 286.25 156.984 286.126C157.172 286.002 157.402 285.894 157.674 285.802C157.95 285.71 158.27 285.636 158.634 285.58C158.998 285.52 159.414 285.484 159.882 285.472V285.112C159.882 284.7 159.794 284.396 159.618 284.2C159.442 284 159.188 283.9 158.856 283.9C158.616 283.9 158.416 283.928 158.256 283.984C158.1 284.04 157.962 284.104 157.842 284.176C157.722 284.244 157.612 284.306 157.512 284.362C157.416 284.418 157.308 284.446 157.188 284.446C157.084 284.446 156.996 284.42 156.924 284.368C156.852 284.312 156.794 284.248 156.75 284.176L156.486 283.702ZM164.694 289.096C164.158 289.096 163.746 288.946 163.458 288.646C163.174 288.342 163.032 287.924 163.032 287.392V283.954H162.402C162.322 283.954 162.254 283.928 162.198 283.876C162.142 283.824 162.114 283.746 162.114 283.642V283.054L163.104 282.892L163.416 281.212C163.436 281.132 163.474 281.07 163.53 281.026C163.586 280.982 163.658 280.96 163.746 280.96H164.514V282.898H166.158V283.954H164.514V287.29C164.514 287.482 164.56 287.632 164.652 287.74C164.748 287.848 164.878 287.902 165.042 287.902C165.134 287.902 165.21 287.892 165.27 287.872C165.334 287.848 165.388 287.824 165.432 287.8C165.48 287.776 165.522 287.754 165.558 287.734C165.594 287.71 165.63 287.698 165.666 287.698C165.71 287.698 165.746 287.71 165.774 287.734C165.802 287.754 165.832 287.786 165.864 287.83L166.308 288.55C166.092 288.73 165.844 288.866 165.564 288.958C165.284 289.05 164.994 289.096 164.694 289.096ZM170.359 286.372C169.931 286.392 169.571 286.43 169.279 286.486C168.987 286.538 168.753 286.606 168.577 286.69C168.401 286.774 168.275 286.872 168.199 286.984C168.123 287.096 168.085 287.218 168.085 287.35C168.085 287.61 168.161 287.796 168.313 287.908C168.469 288.02 168.671 288.076 168.919 288.076C169.223 288.076 169.485 288.022 169.705 287.914C169.929 287.802 170.147 287.634 170.359 287.41V286.372ZM166.963 283.702C167.671 283.054 168.523 282.73 169.519 282.73C169.879 282.73 170.201 282.79 170.485 282.91C170.769 283.026 171.009 283.19 171.205 283.402C171.401 283.61 171.549 283.86 171.649 284.152C171.753 284.444 171.805 284.764 171.805 285.112V289H171.133C170.993 289 170.885 288.98 170.809 288.94C170.733 288.896 170.673 288.81 170.629 288.682L170.497 288.238C170.341 288.378 170.189 288.502 170.041 288.61C169.893 288.714 169.739 288.802 169.579 288.874C169.419 288.946 169.247 289 169.063 289.036C168.883 289.076 168.683 289.096 168.463 289.096C168.203 289.096 167.963 289.062 167.743 288.994C167.523 288.922 167.333 288.816 167.173 288.676C167.013 288.536 166.889 288.362 166.801 288.154C166.713 287.946 166.669 287.704 166.669 287.428C166.669 287.272 166.695 287.118 166.747 286.966C166.799 286.81 166.883 286.662 166.999 286.522C167.119 286.382 167.273 286.25 167.461 286.126C167.649 286.002 167.879 285.894 168.151 285.802C168.427 285.71 168.747 285.636 169.111 285.58C169.475 285.52 169.891 285.484 170.359 285.472V285.112C170.359 284.7 170.271 284.396 170.095 284.2C169.919 284 169.665 283.9 169.333 283.9C169.093 283.9 168.893 283.928 168.733 283.984C168.577 284.04 168.439 284.104 168.319 284.176C168.199 284.244 168.089 284.306 167.989 284.362C167.893 284.418 167.785 284.446 167.665 284.446C167.561 284.446 167.473 284.42 167.401 284.368C167.329 284.312 167.271 284.248 167.227 284.176L166.963 283.702Z" fill="black"/>
<rect x="88" y="267.5" width="99" height="33" rx="16.5" stroke="black"/>
</svg>
