<svg width="486" height="157" viewBox="0 0 486 157" fill="none" xmlns="http://www.w3.org/2000/svg">
<g clip-path="url(#clip0_2236_1045)">
<path d="M202.474 4.085C202.434 4.155 202.391 4.20667 202.344 4.24C202.301 4.27 202.246 4.285 202.179 4.285C202.109 4.285 202.033 4.26 201.949 4.21C201.869 4.15667 201.773 4.09833 201.659 4.035C201.546 3.97167 201.413 3.915 201.259 3.865C201.109 3.81167 200.931 3.785 200.724 3.785C200.538 3.785 200.374 3.80833 200.234 3.855C200.094 3.89833 199.976 3.96 199.879 4.04C199.786 4.12 199.716 4.21667 199.669 4.33C199.623 4.44 199.599 4.56167 199.599 4.695C199.599 4.865 199.646 5.00667 199.739 5.12C199.836 5.23333 199.963 5.33 200.119 5.41C200.276 5.49 200.454 5.56167 200.654 5.625C200.854 5.68833 201.059 5.75667 201.269 5.83C201.479 5.9 201.684 5.98333 201.884 6.08C202.084 6.17333 202.263 6.29333 202.419 6.44C202.576 6.58333 202.701 6.76 202.794 6.97C202.891 7.18 202.939 7.435 202.939 7.735C202.939 8.06167 202.883 8.36833 202.769 8.655C202.659 8.93833 202.496 9.18667 202.279 9.4C202.066 9.61 201.804 9.77667 201.494 9.9C201.184 10.02 200.829 10.08 200.429 10.08C200.199 10.08 199.973 10.0567 199.749 10.01C199.526 9.96667 199.311 9.90333 199.104 9.82C198.901 9.73667 198.709 9.63667 198.529 9.52C198.349 9.40333 198.189 9.27333 198.049 9.13L198.444 8.485C198.478 8.43833 198.521 8.4 198.574 8.37C198.628 8.33667 198.684 8.32 198.744 8.32C198.828 8.32 198.918 8.355 199.014 8.425C199.111 8.49167 199.226 8.56667 199.359 8.65C199.493 8.73333 199.648 8.81 199.824 8.88C200.004 8.94667 200.219 8.98 200.469 8.98C200.853 8.98 201.149 8.89 201.359 8.71C201.569 8.52667 201.674 8.265 201.674 7.925C201.674 7.735 201.626 7.58 201.529 7.46C201.436 7.34 201.311 7.24 201.154 7.16C200.998 7.07667 200.819 7.00667 200.619 6.95C200.419 6.89333 200.216 6.83167 200.009 6.765C199.803 6.69833 199.599 6.61833 199.399 6.525C199.199 6.43167 199.021 6.31 198.864 6.16C198.708 6.01 198.581 5.82333 198.484 5.6C198.391 5.37333 198.344 5.095 198.344 4.765C198.344 4.50167 198.396 4.245 198.499 3.995C198.606 3.745 198.759 3.52333 198.959 3.33C199.159 3.13667 199.406 2.98167 199.699 2.865C199.993 2.74833 200.329 2.69 200.709 2.69C201.136 2.69 201.529 2.75667 201.889 2.89C202.249 3.02333 202.556 3.21 202.809 3.45L202.474 4.085ZM206.168 4.79C206.548 4.79 206.893 4.85167 207.203 4.975C207.516 5.09833 207.783 5.27333 208.003 5.5C208.226 5.72667 208.398 6.00333 208.518 6.33C208.638 6.65667 208.698 7.02167 208.698 7.425C208.698 7.83167 208.638 8.19833 208.518 8.525C208.398 8.85167 208.226 9.13 208.003 9.36C207.783 9.59 207.516 9.76667 207.203 9.89C206.893 10.0133 206.548 10.075 206.168 10.075C205.785 10.075 205.436 10.0133 205.123 9.89C204.81 9.76667 204.541 9.59 204.318 9.36C204.098 9.13 203.926 8.85167 203.803 8.525C203.683 8.19833 203.623 7.83167 203.623 7.425C203.623 7.02167 203.683 6.65667 203.803 6.33C203.926 6.00333 204.098 5.72667 204.318 5.5C204.541 5.27333 204.81 5.09833 205.123 4.975C205.436 4.85167 205.785 4.79 206.168 4.79ZM206.168 9.125C206.595 9.125 206.91 8.98167 207.113 8.695C207.32 8.40833 207.423 7.98833 207.423 7.435C207.423 6.88167 207.32 6.46 207.113 6.17C206.91 5.88 206.595 5.735 206.168 5.735C205.735 5.735 205.413 5.88167 205.203 6.175C204.996 6.465 204.893 6.885 204.893 7.435C204.893 7.985 204.996 8.405 205.203 8.695C205.413 8.98167 205.735 9.125 206.168 9.125ZM214.428 5.795V8.575C214.428 8.735 214.468 8.86 214.548 8.95C214.628 9.04 214.735 9.085 214.868 9.085C214.945 9.085 215.008 9.07667 215.058 9.06C215.112 9.04 215.157 9.02 215.193 9C215.233 8.98 215.268 8.96167 215.298 8.945C215.328 8.925 215.358 8.915 215.388 8.915C215.425 8.915 215.455 8.925 215.478 8.945C215.502 8.96167 215.527 8.98833 215.553 9.025L215.923 9.625C215.743 9.775 215.537 9.88833 215.303 9.965C215.073 10.0417 214.833 10.08 214.583 10.08C214.137 10.08 213.793 9.955 213.553 9.705C213.313 9.45167 213.193 9.10333 213.193 8.66V5.795H211.108V10H209.873V5.8L209.428 5.73C209.332 5.71 209.253 5.67667 209.193 5.63C209.137 5.58 209.108 5.51 209.108 5.42V4.915H209.873V4.535C209.873 4.24167 209.917 3.97833 210.003 3.745C210.093 3.51167 210.22 3.31333 210.383 3.15C210.55 2.98667 210.752 2.86167 210.988 2.775C211.225 2.68833 211.492 2.645 211.788 2.645C212.025 2.645 212.245 2.67667 212.448 2.74L212.423 3.36C212.42 3.40667 212.407 3.445 212.383 3.475C212.36 3.50167 212.328 3.52333 212.288 3.54C212.252 3.55333 212.208 3.56333 212.158 3.57C212.108 3.57333 212.055 3.575 211.998 3.575C211.852 3.575 211.72 3.59167 211.603 3.625C211.49 3.655 211.393 3.71 211.313 3.79C211.233 3.86667 211.172 3.97 211.128 4.1C211.088 4.22667 211.068 4.385 211.068 4.575V4.915H213.248L213.513 3.51C213.53 3.44333 213.562 3.39167 213.608 3.355C213.655 3.31833 213.715 3.3 213.788 3.3H214.428V4.915H215.798V5.795H214.428ZM223.909 4.87L222.279 10H221.289C221.175 10 221.097 9.92667 221.054 9.78L220.134 6.815C220.104 6.715 220.075 6.61667 220.049 6.52C220.025 6.42 220.005 6.32 219.989 6.22C219.969 6.32 219.945 6.42167 219.919 6.525C219.895 6.625 219.869 6.725 219.839 6.825L218.904 9.78C218.864 9.92667 218.775 10 218.639 10H217.689L216.064 4.87H217.049C217.139 4.87 217.215 4.89167 217.279 4.935C217.342 4.97833 217.384 5.03333 217.404 5.1L218.139 7.84C218.175 7.99 218.207 8.13667 218.234 8.28C218.264 8.42333 218.289 8.56667 218.309 8.71C218.345 8.56667 218.384 8.42333 218.424 8.28C218.467 8.13667 218.512 7.99 218.559 7.84L219.409 5.09C219.429 5.02333 219.467 4.96833 219.524 4.925C219.584 4.88167 219.655 4.86 219.739 4.86H220.284C220.37 4.86 220.444 4.88167 220.504 4.925C220.567 4.96833 220.609 5.02333 220.629 5.09L221.454 7.84C221.497 7.99 221.537 8.13833 221.574 8.285C221.614 8.42833 221.652 8.57167 221.689 8.715C221.732 8.43167 221.794 8.14 221.874 7.84L222.629 5.1C222.652 5.03333 222.694 4.97833 222.754 4.935C222.814 4.89167 222.885 4.87 222.969 4.87H223.909ZM227.253 7.81C226.896 7.82667 226.596 7.85833 226.353 7.905C226.109 7.94833 225.914 8.005 225.768 8.075C225.621 8.145 225.516 8.22667 225.453 8.32C225.389 8.41333 225.358 8.515 225.358 8.625C225.358 8.84167 225.421 8.99667 225.548 9.09C225.678 9.18333 225.846 9.23 226.053 9.23C226.306 9.23 226.524 9.185 226.708 9.095C226.894 9.00167 227.076 8.86167 227.253 8.675V7.81ZM224.423 5.585C225.013 5.045 225.723 4.775 226.553 4.775C226.853 4.775 227.121 4.825 227.358 4.925C227.594 5.02167 227.794 5.15833 227.958 5.335C228.121 5.50833 228.244 5.71667 228.328 5.96C228.414 6.20333 228.458 6.47 228.458 6.76V10H227.898C227.781 10 227.691 9.98333 227.628 9.95C227.564 9.91333 227.514 9.84167 227.478 9.735L227.368 9.365C227.238 9.48167 227.111 9.585 226.988 9.675C226.864 9.76167 226.736 9.835 226.603 9.895C226.469 9.955 226.326 10 226.173 10.03C226.023 10.0633 225.856 10.08 225.673 10.08C225.456 10.08 225.256 10.0517 225.073 9.995C224.889 9.935 224.731 9.84667 224.598 9.73C224.464 9.61333 224.361 9.46833 224.288 9.295C224.214 9.12167 224.178 8.92 224.178 8.69C224.178 8.56 224.199 8.43167 224.243 8.305C224.286 8.175 224.356 8.05167 224.453 7.935C224.553 7.81833 224.681 7.70833 224.838 7.605C224.994 7.50167 225.186 7.41167 225.413 7.335C225.643 7.25833 225.909 7.19667 226.213 7.15C226.516 7.1 226.863 7.07 227.253 7.06V6.76C227.253 6.41667 227.179 6.16333 227.033 6C226.886 5.83333 226.674 5.75 226.398 5.75C226.198 5.75 226.031 5.77333 225.898 5.82C225.768 5.86667 225.653 5.92 225.553 5.98C225.453 6.03667 225.361 6.08833 225.278 6.135C225.198 6.18167 225.108 6.205 225.008 6.205C224.921 6.205 224.848 6.18333 224.788 6.14C224.728 6.09333 224.679 6.04 224.643 5.98L224.423 5.585ZM230.786 5.76C230.946 5.45333 231.136 5.21333 231.356 5.04C231.576 4.86333 231.836 4.775 232.136 4.775C232.372 4.775 232.562 4.82667 232.706 4.93L232.626 5.855C232.609 5.915 232.584 5.95833 232.551 5.985C232.521 6.00833 232.479 6.02 232.426 6.02C232.376 6.02 232.301 6.01167 232.201 5.995C232.104 5.97833 232.009 5.97 231.916 5.97C231.779 5.97 231.657 5.99 231.551 6.03C231.444 6.07 231.347 6.12833 231.261 6.205C231.177 6.27833 231.102 6.36833 231.036 6.475C230.972 6.58167 230.912 6.70333 230.856 6.84V10H229.621V4.87H230.346C230.472 4.87 230.561 4.89333 230.611 4.94C230.661 4.98333 230.694 5.06333 230.711 5.18L230.786 5.76ZM236.51 6.845C236.51 6.685 236.486 6.535 236.44 6.395C236.396 6.25167 236.33 6.12667 236.24 6.02C236.15 5.91333 236.035 5.83 235.895 5.77C235.758 5.70667 235.598 5.675 235.415 5.675C235.058 5.675 234.776 5.77667 234.57 5.98C234.366 6.18333 234.236 6.47167 234.18 6.845H236.51ZM234.155 7.59C234.175 7.85333 234.221 8.08167 234.295 8.275C234.368 8.465 234.465 8.62333 234.585 8.75C234.705 8.87333 234.846 8.96667 235.01 9.03C235.176 9.09 235.36 9.12 235.56 9.12C235.76 9.12 235.931 9.09667 236.075 9.05C236.221 9.00333 236.348 8.95167 236.455 8.895C236.565 8.83833 236.66 8.78667 236.74 8.74C236.823 8.69333 236.903 8.67 236.98 8.67C237.083 8.67 237.16 8.70833 237.21 8.785L237.565 9.235C237.428 9.395 237.275 9.53 237.105 9.64C236.935 9.74667 236.756 9.83333 236.57 9.9C236.386 9.96333 236.198 10.0083 236.005 10.035C235.815 10.0617 235.63 10.075 235.45 10.075C235.093 10.075 234.761 10.0167 234.455 9.9C234.148 9.78 233.881 9.605 233.655 9.375C233.428 9.14167 233.25 8.855 233.12 8.515C232.99 8.17167 232.925 7.775 232.925 7.325C232.925 6.975 232.981 6.64667 233.095 6.34C233.208 6.03 233.37 5.76167 233.58 5.535C233.793 5.305 234.051 5.12333 234.355 4.99C234.661 4.85667 235.006 4.79 235.39 4.79C235.713 4.79 236.011 4.84167 236.285 4.945C236.558 5.04833 236.793 5.2 236.99 5.4C237.186 5.59667 237.34 5.84 237.45 6.13C237.563 6.41667 237.62 6.745 237.62 7.115C237.62 7.30167 237.6 7.42833 237.56 7.495C237.52 7.55833 237.443 7.59 237.33 7.59H234.155ZM244.083 8.915C244.343 8.915 244.575 8.87167 244.778 8.785C244.985 8.69833 245.158 8.57667 245.298 8.42C245.438 8.26333 245.545 8.07333 245.618 7.85C245.695 7.62667 245.733 7.37667 245.733 7.1V2.77H247.078V7.1C247.078 7.53 247.008 7.92833 246.868 8.295C246.731 8.65833 246.533 8.97333 246.273 9.24C246.016 9.50333 245.703 9.71 245.333 9.86C244.963 10.0067 244.546 10.08 244.083 10.08C243.616 10.08 243.198 10.0067 242.828 9.86C242.458 9.71 242.143 9.50333 241.883 9.24C241.626 8.97333 241.428 8.65833 241.288 8.295C241.151 7.92833 241.083 7.53 241.083 7.1V2.77H242.428V7.095C242.428 7.37167 242.465 7.62167 242.538 7.845C242.615 8.06833 242.723 8.26 242.863 8.42C243.006 8.57667 243.18 8.69833 243.383 8.785C243.59 8.87167 243.823 8.915 244.083 8.915ZM249.389 5.5C249.492 5.39667 249.601 5.30167 249.714 5.215C249.831 5.125 249.952 5.05 250.079 4.99C250.209 4.92667 250.347 4.87833 250.494 4.845C250.641 4.80833 250.801 4.79 250.974 4.79C251.254 4.79 251.502 4.83833 251.719 4.935C251.936 5.02833 252.116 5.16167 252.259 5.335C252.406 5.505 252.516 5.71 252.589 5.95C252.666 6.18667 252.704 6.44833 252.704 6.735V10H251.469V6.735C251.469 6.42167 251.397 6.18 251.254 6.01C251.111 5.83667 250.892 5.75 250.599 5.75C250.386 5.75 250.186 5.79833 249.999 5.895C249.812 5.99167 249.636 6.12333 249.469 6.29V10H248.234V4.87H248.989C249.149 4.87 249.254 4.945 249.304 5.095L249.389 5.5ZM257.099 6.18C256.959 6.01 256.805 5.89 256.639 5.82C256.475 5.75 256.299 5.715 256.109 5.715C255.922 5.715 255.754 5.75 255.604 5.82C255.454 5.89 255.325 5.99667 255.219 6.14C255.112 6.28 255.03 6.46 254.974 6.68C254.917 6.89667 254.889 7.15333 254.889 7.45C254.889 7.75 254.912 8.005 254.959 8.215C255.009 8.42167 255.079 8.59167 255.169 8.725C255.259 8.855 255.369 8.95 255.499 9.01C255.629 9.06667 255.774 9.095 255.934 9.095C256.19 9.095 256.409 9.04167 256.589 8.935C256.769 8.82833 256.939 8.67667 257.099 8.48V6.18ZM258.334 2.57V10H257.579C257.415 10 257.312 9.925 257.269 9.775L257.164 9.28C256.957 9.51667 256.719 9.70833 256.449 9.855C256.182 10.0017 255.87 10.075 255.514 10.075C255.234 10.075 254.977 10.0167 254.744 9.9C254.51 9.78333 254.309 9.615 254.139 9.395C253.972 9.17167 253.842 8.89667 253.749 8.57C253.659 8.24333 253.614 7.87 253.614 7.45C253.614 7.07 253.665 6.71667 253.769 6.39C253.872 6.06333 254.02 5.78 254.214 5.54C254.407 5.3 254.639 5.11333 254.909 4.98C255.179 4.84333 255.482 4.775 255.819 4.775C256.105 4.775 256.35 4.82 256.554 4.91C256.757 5 256.939 5.12167 257.099 5.275V2.57H258.334ZM262.857 6.845C262.857 6.685 262.834 6.535 262.787 6.395C262.744 6.25167 262.677 6.12667 262.587 6.02C262.497 5.91333 262.382 5.83 262.242 5.77C262.106 5.70667 261.946 5.675 261.762 5.675C261.406 5.675 261.124 5.77667 260.917 5.98C260.714 6.18333 260.584 6.47167 260.527 6.845H262.857ZM260.502 7.59C260.522 7.85333 260.569 8.08167 260.642 8.275C260.716 8.465 260.812 8.62333 260.932 8.75C261.052 8.87333 261.194 8.96667 261.357 9.03C261.524 9.09 261.707 9.12 261.907 9.12C262.107 9.12 262.279 9.09667 262.422 9.05C262.569 9.00333 262.696 8.95167 262.802 8.895C262.912 8.83833 263.007 8.78667 263.087 8.74C263.171 8.69333 263.251 8.67 263.327 8.67C263.431 8.67 263.507 8.70833 263.557 8.785L263.912 9.235C263.776 9.395 263.622 9.53 263.452 9.64C263.282 9.74667 263.104 9.83333 262.917 9.9C262.734 9.96333 262.546 10.0083 262.352 10.035C262.162 10.0617 261.977 10.075 261.797 10.075C261.441 10.075 261.109 10.0167 260.802 9.9C260.496 9.78 260.229 9.605 260.002 9.375C259.776 9.14167 259.597 8.855 259.467 8.515C259.337 8.17167 259.272 7.775 259.272 7.325C259.272 6.975 259.329 6.64667 259.442 6.34C259.556 6.03 259.717 5.76167 259.927 5.535C260.141 5.305 260.399 5.12333 260.702 4.99C261.009 4.85667 261.354 4.79 261.737 4.79C262.061 4.79 262.359 4.84167 262.632 4.945C262.906 5.04833 263.141 5.2 263.337 5.4C263.534 5.59667 263.687 5.84 263.797 6.13C263.911 6.41667 263.967 6.745 263.967 7.115C263.967 7.30167 263.947 7.42833 263.907 7.495C263.867 7.55833 263.791 7.59 263.677 7.59H260.502ZM266.059 5.76C266.219 5.45333 266.409 5.21333 266.629 5.04C266.849 4.86333 267.109 4.775 267.409 4.775C267.646 4.775 267.836 4.82667 267.979 4.93L267.899 5.855C267.883 5.915 267.858 5.95833 267.824 5.985C267.794 6.00833 267.753 6.02 267.699 6.02C267.649 6.02 267.574 6.01167 267.474 5.995C267.378 5.97833 267.283 5.97 267.189 5.97C267.053 5.97 266.931 5.99 266.824 6.03C266.718 6.07 266.621 6.12833 266.534 6.205C266.451 6.27833 266.376 6.36833 266.309 6.475C266.246 6.58167 266.186 6.70333 266.129 6.84V10H264.894V4.87H265.619C265.746 4.87 265.834 4.89333 265.884 4.94C265.934 4.98333 265.968 5.06333 265.984 5.18L266.059 5.76ZM275.784 3.875H273.604V10H272.259V3.875H270.079V2.77H275.784V3.875ZM278.639 6.845C278.639 6.685 278.615 6.535 278.569 6.395C278.525 6.25167 278.459 6.12667 278.369 6.02C278.279 5.91333 278.164 5.83 278.024 5.77C277.887 5.70667 277.727 5.675 277.544 5.675C277.187 5.675 276.905 5.77667 276.699 5.98C276.495 6.18333 276.365 6.47167 276.309 6.845H278.639ZM276.284 7.59C276.304 7.85333 276.35 8.08167 276.424 8.275C276.497 8.465 276.594 8.62333 276.714 8.75C276.834 8.87333 276.975 8.96667 277.139 9.03C277.305 9.09 277.489 9.12 277.689 9.12C277.889 9.12 278.06 9.09667 278.204 9.05C278.35 9.00333 278.477 8.95167 278.584 8.895C278.694 8.83833 278.789 8.78667 278.869 8.74C278.952 8.69333 279.032 8.67 279.109 8.67C279.212 8.67 279.289 8.70833 279.339 8.785L279.694 9.235C279.557 9.395 279.404 9.53 279.234 9.64C279.064 9.74667 278.885 9.83333 278.699 9.9C278.515 9.96333 278.327 10.0083 278.134 10.035C277.944 10.0617 277.759 10.075 277.579 10.075C277.222 10.075 276.89 10.0167 276.584 9.9C276.277 9.78 276.01 9.605 275.784 9.375C275.557 9.14167 275.379 8.855 275.249 8.515C275.119 8.17167 275.054 7.775 275.054 7.325C275.054 6.975 275.11 6.64667 275.224 6.34C275.337 6.03 275.499 5.76167 275.709 5.535C275.922 5.305 276.18 5.12333 276.484 4.99C276.79 4.85667 277.135 4.79 277.519 4.79C277.842 4.79 278.14 4.84167 278.414 4.945C278.687 5.04833 278.922 5.2 279.119 5.4C279.315 5.59667 279.469 5.84 279.579 6.13C279.692 6.41667 279.749 6.745 279.749 7.115C279.749 7.30167 279.729 7.42833 279.689 7.495C279.649 7.55833 279.572 7.59 279.459 7.59H276.284ZM283.805 5.87C283.772 5.92333 283.737 5.96167 283.7 5.985C283.664 6.005 283.617 6.015 283.56 6.015C283.5 6.015 283.435 5.99833 283.365 5.965C283.299 5.93167 283.22 5.895 283.13 5.855C283.04 5.81167 282.937 5.77333 282.82 5.74C282.707 5.70667 282.572 5.69 282.415 5.69C282.172 5.69 281.98 5.74167 281.84 5.845C281.704 5.94833 281.635 6.08333 281.635 6.25C281.635 6.36 281.67 6.45333 281.74 6.53C281.814 6.60333 281.909 6.66833 282.025 6.725C282.145 6.78167 282.28 6.83333 282.43 6.88C282.58 6.92333 282.732 6.97167 282.885 7.025C283.042 7.07833 283.195 7.14 283.345 7.21C283.495 7.27667 283.629 7.36333 283.745 7.47C283.865 7.57333 283.96 7.69833 284.03 7.845C284.104 7.99167 284.14 8.16833 284.14 8.375C284.14 8.62167 284.095 8.85 284.005 9.06C283.919 9.26667 283.789 9.44667 283.615 9.6C283.442 9.75 283.227 9.86833 282.97 9.955C282.717 10.0383 282.424 10.08 282.09 10.08C281.914 10.08 281.74 10.0633 281.57 10.03C281.404 10 281.242 9.95667 281.085 9.9C280.932 9.84333 280.789 9.77667 280.655 9.7C280.525 9.62333 280.41 9.54 280.31 9.45L280.595 8.98C280.632 8.92333 280.675 8.88 280.725 8.85C280.775 8.82 280.839 8.805 280.915 8.805C280.992 8.805 281.064 8.82667 281.13 8.87C281.2 8.91333 281.28 8.96 281.37 9.01C281.46 9.06 281.565 9.10667 281.685 9.15C281.809 9.19333 281.964 9.215 282.15 9.215C282.297 9.215 282.422 9.19833 282.525 9.165C282.632 9.12833 282.719 9.08167 282.785 9.025C282.855 8.96833 282.905 8.90333 282.935 8.83C282.969 8.75333 282.985 8.675 282.985 8.595C282.985 8.475 282.949 8.37667 282.875 8.3C282.805 8.22333 282.71 8.15667 282.59 8.1C282.474 8.04333 282.339 7.99333 282.185 7.95C282.035 7.90333 281.88 7.85333 281.72 7.8C281.564 7.74667 281.409 7.685 281.255 7.615C281.105 7.54167 280.97 7.45 280.85 7.34C280.734 7.23 280.639 7.095 280.565 6.935C280.495 6.775 280.46 6.58167 280.46 6.355C280.46 6.145 280.502 5.945 280.585 5.755C280.669 5.565 280.79 5.4 280.95 5.26C281.114 5.11667 281.315 5.00333 281.555 4.92C281.799 4.83333 282.079 4.79 282.395 4.79C282.749 4.79 283.07 4.84833 283.36 4.965C283.65 5.08167 283.892 5.235 284.085 5.425L283.805 5.87ZM286.78 10.08C286.333 10.08 285.99 9.955 285.75 9.705C285.513 9.45167 285.395 9.10333 285.395 8.66V5.795H284.87C284.803 5.795 284.747 5.77333 284.7 5.73C284.653 5.68667 284.63 5.62167 284.63 5.535V5.045L285.455 4.91L285.715 3.51C285.732 3.44333 285.763 3.39167 285.81 3.355C285.857 3.31833 285.917 3.3 285.99 3.3H286.63V4.915H288V5.795H286.63V8.575C286.63 8.735 286.668 8.86 286.745 8.95C286.825 9.04 286.933 9.085 287.07 9.085C287.147 9.085 287.21 9.07667 287.26 9.06C287.313 9.04 287.358 9.02 287.395 9C287.435 8.98 287.47 8.96167 287.5 8.945C287.53 8.925 287.56 8.915 287.59 8.915C287.627 8.915 287.657 8.925 287.68 8.945C287.703 8.96167 287.728 8.98833 287.755 9.025L288.125 9.625C287.945 9.775 287.738 9.88833 287.505 9.965C287.272 10.0417 287.03 10.08 286.78 10.08Z" fill="white"/>
<path d="M5.05637 79.085C5.01637 79.155 4.97303 79.2067 4.92637 79.24C4.88303 79.27 4.82803 79.285 4.76137 79.285C4.69137 79.285 4.6147 79.26 4.53137 79.21C4.45137 79.1567 4.3547 79.0983 4.24137 79.035C4.12803 78.9717 3.9947 78.915 3.84137 78.865C3.69137 78.8117 3.51303 78.785 3.30637 78.785C3.1197 78.785 2.95637 78.8083 2.81637 78.855C2.67637 78.8983 2.55803 78.96 2.46137 79.04C2.36803 79.12 2.29803 79.2167 2.25137 79.33C2.2047 79.44 2.18137 79.5617 2.18137 79.695C2.18137 79.865 2.22803 80.0067 2.32137 80.12C2.41803 80.2333 2.5447 80.33 2.70137 80.41C2.85803 80.49 3.03637 80.5617 3.23637 80.625C3.43637 80.6883 3.64137 80.7567 3.85137 80.83C4.06137 80.9 4.26637 80.9833 4.46637 81.08C4.66637 81.1733 4.8447 81.2933 5.00137 81.44C5.15803 81.5833 5.28303 81.76 5.37637 81.97C5.47303 82.18 5.52137 82.435 5.52137 82.735C5.52137 83.0617 5.4647 83.3683 5.35137 83.655C5.24137 83.9383 5.07803 84.1867 4.86137 84.4C4.64803 84.61 4.38637 84.7767 4.07637 84.9C3.76637 85.02 3.41137 85.08 3.01137 85.08C2.78137 85.08 2.5547 85.0567 2.33137 85.01C2.10803 84.9667 1.89303 84.9033 1.68637 84.82C1.48303 84.7367 1.29137 84.6367 1.11137 84.52C0.931367 84.4033 0.771367 84.2733 0.631367 84.13L1.02637 83.485C1.0597 83.4383 1.10303 83.4 1.15637 83.37C1.2097 83.3367 1.26637 83.32 1.32637 83.32C1.4097 83.32 1.4997 83.355 1.59637 83.425C1.69303 83.4917 1.80803 83.5667 1.94137 83.65C2.0747 83.7333 2.2297 83.81 2.40637 83.88C2.58637 83.9467 2.80137 83.98 3.05137 83.98C3.4347 83.98 3.73137 83.89 3.94137 83.71C4.15137 83.5267 4.25637 83.265 4.25637 82.925C4.25637 82.735 4.20803 82.58 4.11137 82.46C4.01803 82.34 3.89303 82.24 3.73637 82.16C3.5797 82.0767 3.40137 82.0067 3.20137 81.95C3.00137 81.8933 2.79803 81.8317 2.59137 81.765C2.3847 81.6983 2.18137 81.6183 1.98137 81.525C1.78137 81.4317 1.60303 81.31 1.44637 81.16C1.2897 81.01 1.16303 80.8233 1.06637 80.6C0.973034 80.3733 0.926367 80.095 0.926367 79.765C0.926367 79.5017 0.978034 79.245 1.08137 78.995C1.18803 78.745 1.34137 78.5233 1.54137 78.33C1.74137 78.1367 1.98803 77.9817 2.28137 77.865C2.5747 77.7483 2.91137 77.69 3.29137 77.69C3.71803 77.69 4.11137 77.7567 4.47137 77.89C4.83137 78.0233 5.13803 78.21 5.39137 78.45L5.05637 79.085ZM10.9057 79.87L8.11074 86.41C8.07408 86.4967 8.02574 86.5617 7.96574 86.605C7.90908 86.6517 7.82074 86.675 7.70074 86.675H6.78074L7.74074 84.615L5.66574 79.87H6.75074C6.84741 79.87 6.92241 79.8933 6.97574 79.94C7.03241 79.9867 7.07408 80.04 7.10074 80.1L8.19074 82.76C8.22741 82.85 8.25741 82.94 8.28074 83.03C8.30741 83.12 8.33241 83.2117 8.35574 83.305C8.38574 83.2117 8.41574 83.12 8.44574 83.03C8.47574 82.9367 8.50908 82.845 8.54574 82.755L9.57574 80.1C9.60241 80.0333 9.64574 79.9783 9.70574 79.935C9.76908 79.8917 9.83908 79.87 9.91574 79.87H10.9057ZM14.5418 80.87C14.5084 80.9233 14.4734 80.9617 14.4368 80.985C14.4001 81.005 14.3534 81.015 14.2968 81.015C14.2368 81.015 14.1718 80.9983 14.1018 80.965C14.0351 80.9317 13.9568 80.895 13.8668 80.855C13.7768 80.8117 13.6734 80.7733 13.5568 80.74C13.4434 80.7067 13.3084 80.69 13.1518 80.69C12.9084 80.69 12.7168 80.7417 12.5768 80.845C12.4401 80.9483 12.3718 81.0833 12.3718 81.25C12.3718 81.36 12.4068 81.4533 12.4768 81.53C12.5501 81.6033 12.6451 81.6683 12.7618 81.725C12.8818 81.7817 13.0168 81.8333 13.1668 81.88C13.3168 81.9233 13.4684 81.9717 13.6218 82.025C13.7784 82.0783 13.9318 82.14 14.0818 82.21C14.2318 82.2767 14.3651 82.3633 14.4818 82.47C14.6018 82.5733 14.6968 82.6983 14.7668 82.845C14.8401 82.9917 14.8768 83.1683 14.8768 83.375C14.8768 83.6217 14.8318 83.85 14.7418 84.06C14.6551 84.2667 14.5251 84.4467 14.3518 84.6C14.1784 84.75 13.9634 84.8683 13.7068 84.955C13.4534 85.0383 13.1601 85.08 12.8268 85.08C12.6501 85.08 12.4768 85.0633 12.3068 85.03C12.1401 85 11.9784 84.9567 11.8218 84.9C11.6684 84.8433 11.5251 84.7767 11.3918 84.7C11.2618 84.6233 11.1468 84.54 11.0468 84.45L11.3318 83.98C11.3684 83.9233 11.4118 83.88 11.4618 83.85C11.5118 83.82 11.5751 83.805 11.6518 83.805C11.7284 83.805 11.8001 83.8267 11.8668 83.87C11.9368 83.9133 12.0168 83.96 12.1068 84.01C12.1968 84.06 12.3018 84.1067 12.4218 84.15C12.5451 84.1933 12.7001 84.215 12.8868 84.215C13.0334 84.215 13.1584 84.1983 13.2618 84.165C13.3684 84.1283 13.4551 84.0817 13.5218 84.025C13.5918 83.9683 13.6418 83.9033 13.6718 83.83C13.7051 83.7533 13.7218 83.675 13.7218 83.595C13.7218 83.475 13.6851 83.3767 13.6118 83.3C13.5418 83.2233 13.4468 83.1567 13.3268 83.1C13.2101 83.0433 13.0751 82.9933 12.9218 82.95C12.7718 82.9033 12.6168 82.8533 12.4568 82.8C12.3001 82.7467 12.1451 82.685 11.9918 82.615C11.8418 82.5417 11.7068 82.45 11.5868 82.34C11.4701 82.23 11.3751 82.095 11.3018 81.935C11.2318 81.775 11.1968 81.5817 11.1968 81.355C11.1968 81.145 11.2384 80.945 11.3218 80.755C11.4051 80.565 11.5268 80.4 11.6868 80.26C11.8501 80.1167 12.0518 80.0033 12.2918 79.92C12.5351 79.8333 12.8151 79.79 13.1318 79.79C13.4851 79.79 13.8068 79.8483 14.0968 79.965C14.3868 80.0817 14.6284 80.235 14.8218 80.425L14.5418 80.87ZM17.5163 85.08C17.0696 85.08 16.7263 84.955 16.4863 84.705C16.2496 84.4517 16.1313 84.1033 16.1313 83.66V80.795H15.6063C15.5396 80.795 15.483 80.7733 15.4363 80.73C15.3896 80.6867 15.3663 80.6217 15.3663 80.535V80.045L16.1913 79.91L16.4513 78.51C16.468 78.4433 16.4996 78.3917 16.5463 78.355C16.593 78.3183 16.653 78.3 16.7263 78.3H17.3663V79.915H18.7363V80.795H17.3663V83.575C17.3663 83.735 17.4046 83.86 17.4813 83.95C17.5613 84.04 17.6696 84.085 17.8063 84.085C17.883 84.085 17.9463 84.0767 17.9963 84.06C18.0496 84.04 18.0946 84.02 18.1313 84C18.1713 83.98 18.2063 83.9617 18.2363 83.945C18.2663 83.925 18.2963 83.915 18.3263 83.915C18.363 83.915 18.393 83.925 18.4163 83.945C18.4396 83.9617 18.4646 83.9883 18.4913 84.025L18.8613 84.625C18.6813 84.775 18.4746 84.8883 18.2413 84.965C18.008 85.0417 17.7663 85.08 17.5163 85.08ZM22.7929 81.845C22.7929 81.685 22.7696 81.535 22.7229 81.395C22.6796 81.2517 22.6129 81.1267 22.5229 81.02C22.4329 80.9133 22.3179 80.83 22.1779 80.77C22.0413 80.7067 21.8813 80.675 21.6979 80.675C21.3413 80.675 21.0596 80.7767 20.8529 80.98C20.6496 81.1833 20.5196 81.4717 20.4629 81.845H22.7929ZM20.4379 82.59C20.4579 82.8533 20.5046 83.0817 20.5779 83.275C20.6513 83.465 20.7479 83.6233 20.8679 83.75C20.9879 83.8733 21.1296 83.9667 21.2929 84.03C21.4596 84.09 21.6429 84.12 21.8429 84.12C22.0429 84.12 22.2146 84.0967 22.3579 84.05C22.5046 84.0033 22.6313 83.9517 22.7379 83.895C22.8479 83.8383 22.9429 83.7867 23.0229 83.74C23.1063 83.6933 23.1863 83.67 23.2629 83.67C23.3663 83.67 23.4429 83.7083 23.4929 83.785L23.8479 84.235C23.7113 84.395 23.5579 84.53 23.3879 84.64C23.2179 84.7467 23.0396 84.8333 22.8529 84.9C22.6696 84.9633 22.4813 85.0083 22.2879 85.035C22.0979 85.0617 21.9129 85.075 21.7329 85.075C21.3763 85.075 21.0446 85.0167 20.7379 84.9C20.4313 84.78 20.1646 84.605 19.9379 84.375C19.7113 84.1417 19.5329 83.855 19.4029 83.515C19.2729 83.1717 19.2079 82.775 19.2079 82.325C19.2079 81.975 19.2646 81.6467 19.3779 81.34C19.4913 81.03 19.6529 80.7617 19.8629 80.535C20.0763 80.305 20.3346 80.1233 20.6379 79.99C20.9446 79.8567 21.2896 79.79 21.6729 79.79C21.9963 79.79 22.2946 79.8417 22.5679 79.945C22.8413 80.0483 23.0763 80.2 23.2729 80.4C23.4696 80.5967 23.6229 80.84 23.7329 81.13C23.8463 81.4167 23.9029 81.745 23.9029 82.115C23.9029 82.3017 23.8829 82.4283 23.8429 82.495C23.8029 82.5583 23.7263 82.59 23.6129 82.59H20.4379ZM24.8297 85V79.87H25.5847C25.7447 79.87 25.8497 79.945 25.8997 80.095L25.9797 80.475C26.0697 80.375 26.1631 80.2833 26.2597 80.2C26.3597 80.1167 26.4647 80.045 26.5747 79.985C26.6881 79.925 26.8081 79.8783 26.9347 79.845C27.0647 79.8083 27.2064 79.79 27.3597 79.79C27.6831 79.79 27.9481 79.8783 28.1547 80.055C28.3647 80.2283 28.5214 80.46 28.6247 80.75C28.7047 80.58 28.8047 80.435 28.9247 80.315C29.0447 80.1917 29.1764 80.0917 29.3197 80.015C29.4631 79.9383 29.6147 79.8817 29.7747 79.845C29.9381 79.8083 30.1014 79.79 30.2647 79.79C30.5481 79.79 30.7997 79.8333 31.0197 79.92C31.2397 80.0067 31.4247 80.1333 31.5747 80.3C31.7247 80.4667 31.8381 80.67 31.9147 80.91C31.9947 81.15 32.0347 81.425 32.0347 81.735V85H30.7997V81.735C30.7997 81.4083 30.7281 81.1633 30.5847 81C30.4414 80.8333 30.2314 80.75 29.9547 80.75C29.8281 80.75 29.7097 80.7717 29.5997 80.815C29.4931 80.8583 29.3981 80.9217 29.3147 81.005C29.2347 81.085 29.1714 81.1867 29.1247 81.31C29.0781 81.4333 29.0547 81.575 29.0547 81.735V85H27.8147V81.735C27.8147 81.3917 27.7447 81.1417 27.6047 80.985C27.4681 80.8283 27.2664 80.75 26.9997 80.75C26.8197 80.75 26.6514 80.795 26.4947 80.885C26.3414 80.9717 26.1981 81.0917 26.0647 81.245V85H24.8297ZM6.86301 97H5.51301V89.77H6.86301V97ZM9.36363 92.5C9.46697 92.3967 9.5753 92.3017 9.68863 92.215C9.8053 92.125 9.92697 92.05 10.0536 91.99C10.1836 91.9267 10.322 91.8783 10.4686 91.845C10.6153 91.8083 10.7753 91.79 10.9486 91.79C11.2286 91.79 11.477 91.8383 11.6936 91.935C11.9103 92.0283 12.0903 92.1617 12.2336 92.335C12.3803 92.505 12.4903 92.71 12.5636 92.95C12.6403 93.1867 12.6786 93.4483 12.6786 93.735V97H11.4436V93.735C11.4436 93.4217 11.372 93.18 11.2286 93.01C11.0853 92.8367 10.867 92.75 10.5736 92.75C10.3603 92.75 10.1603 92.7983 9.97363 92.895C9.78697 92.9917 9.6103 93.1233 9.44363 93.29V97H8.20863V91.87H8.96363C9.12363 91.87 9.22863 91.945 9.27863 92.095L9.36363 92.5ZM15.0882 95.67C15.2282 95.84 15.3798 95.96 15.5432 96.03C15.7098 96.1 15.8898 96.135 16.0832 96.135C16.2698 96.135 16.4382 96.1 16.5882 96.03C16.7382 95.96 16.8648 95.8533 16.9682 95.71C17.0748 95.5667 17.1565 95.3867 17.2132 95.17C17.2698 94.95 17.2982 94.6917 17.2982 94.395C17.2982 94.095 17.2732 93.8417 17.2232 93.635C17.1765 93.425 17.1082 93.255 17.0182 93.125C16.9282 92.995 16.8182 92.9 16.6882 92.84C16.5615 92.78 16.4165 92.75 16.2532 92.75C15.9965 92.75 15.7782 92.805 15.5982 92.915C15.4182 93.0217 15.2482 93.1733 15.0882 93.37V95.67ZM15.0232 92.57C15.2332 92.3333 15.4715 92.1417 15.7382 91.995C16.0048 91.8483 16.3182 91.775 16.6782 91.775C16.9582 91.775 17.2132 91.8333 17.4432 91.95C17.6765 92.0667 17.8765 92.2367 18.0432 92.46C18.2132 92.68 18.3432 92.9533 18.4332 93.28C18.5265 93.6033 18.5732 93.975 18.5732 94.395C18.5732 94.7783 18.5215 95.1333 18.4182 95.46C18.3148 95.7867 18.1665 96.07 17.9732 96.31C17.7832 96.55 17.5515 96.7383 17.2782 96.875C17.0082 97.0083 16.7048 97.075 16.3682 97.075C16.0815 97.075 15.8365 97.0317 15.6332 96.945C15.4298 96.855 15.2482 96.7317 15.0882 96.575V98.675H13.8532V91.87H14.6082C14.7682 91.87 14.8732 91.945 14.9232 92.095L15.0232 92.57ZM23.9568 91.87V97H23.2018C23.0384 97 22.9351 96.925 22.8918 96.775L22.8068 96.365C22.5968 96.5783 22.3651 96.7517 22.1118 96.885C21.8584 97.015 21.5601 97.08 21.2168 97.08C20.9368 97.08 20.6884 97.0333 20.4718 96.94C20.2584 96.8433 20.0784 96.7083 19.9318 96.535C19.7851 96.3617 19.6734 96.1567 19.5968 95.92C19.5234 95.68 19.4868 95.4167 19.4868 95.13V91.87H20.7218V95.13C20.7218 95.4433 20.7934 95.6867 20.9368 95.86C21.0834 96.03 21.3018 96.115 21.5918 96.115C21.8051 96.115 22.0051 96.0683 22.1918 95.975C22.3784 95.8783 22.5551 95.7467 22.7218 95.58V91.87H23.9568ZM26.8913 97.08C26.4446 97.08 26.1013 96.955 25.8613 96.705C25.6246 96.4517 25.5063 96.1033 25.5063 95.66V92.795H24.9813C24.9146 92.795 24.858 92.7733 24.8113 92.73C24.7646 92.6867 24.7413 92.6217 24.7413 92.535V92.045L25.5663 91.91L25.8263 90.51C25.843 90.4433 25.8746 90.3917 25.9213 90.355C25.968 90.3183 26.028 90.3 26.1013 90.3H26.7413V91.915H28.1113V92.795H26.7413V95.575C26.7413 95.735 26.7796 95.86 26.8563 95.95C26.9363 96.04 27.0446 96.085 27.1813 96.085C27.258 96.085 27.3213 96.0767 27.3713 96.06C27.4246 96.04 27.4696 96.02 27.5063 96C27.5463 95.98 27.5813 95.9617 27.6113 95.945C27.6413 95.925 27.6713 95.915 27.7013 95.915C27.738 95.915 27.768 95.925 27.7913 95.945C27.8146 95.9617 27.8396 95.9883 27.8663 96.025L28.2363 96.625C28.0563 96.775 27.8496 96.8883 27.6163 96.965C27.383 97.0417 27.1413 97.08 26.8913 97.08Z" fill="white"/>
<path d="M443.354 87.3536C443.549 87.1583 443.549 86.8417 443.354 86.6464L440.172 83.4645C439.976 83.2692 439.66 83.2692 439.464 83.4645C439.269 83.6597 439.269 83.9763 439.464 84.1716L442.293 87L439.464 89.8284C439.269 90.0237 439.269 90.3403 439.464 90.5355C439.66 90.7308 439.976 90.7308 440.172 90.5355L443.354 87.3536ZM403 87.5H443V86.5H403V87.5Z" fill="white" fill-opacity="0.5"/>
<path d="M338.082 89.295C338.155 89.295 338.22 89.3233 338.277 89.38L338.807 89.955C338.513 90.3183 338.152 90.5967 337.722 90.79C337.295 90.9833 336.782 91.08 336.182 91.08C335.645 91.08 335.162 90.9883 334.732 90.805C334.305 90.6217 333.94 90.3667 333.637 90.04C333.333 89.7133 333.1 89.3233 332.937 88.87C332.777 88.4167 332.697 87.9217 332.697 87.385C332.697 86.8417 332.783 86.345 332.957 85.895C333.13 85.4417 333.373 85.0517 333.687 84.725C334.003 84.3983 334.38 84.145 334.817 83.965C335.253 83.7817 335.737 83.69 336.267 83.69C336.793 83.69 337.26 83.7767 337.667 83.95C338.077 84.1233 338.425 84.35 338.712 84.63L338.262 85.255C338.235 85.295 338.2 85.33 338.157 85.36C338.117 85.39 338.06 85.405 337.987 85.405C337.937 85.405 337.885 85.3917 337.832 85.365C337.778 85.335 337.72 85.3 337.657 85.26C337.593 85.2167 337.52 85.17 337.437 85.12C337.353 85.07 337.257 85.025 337.147 84.985C337.037 84.9417 336.908 84.9067 336.762 84.88C336.618 84.85 336.452 84.835 336.262 84.835C335.938 84.835 335.642 84.8933 335.372 85.01C335.105 85.1233 334.875 85.29 334.682 85.51C334.488 85.7267 334.338 85.9933 334.232 86.31C334.125 86.6233 334.072 86.9817 334.072 87.385C334.072 87.7917 334.128 88.1533 334.242 88.47C334.358 88.7867 334.515 89.0533 334.712 89.27C334.908 89.4867 335.14 89.6533 335.407 89.77C335.673 89.8833 335.96 89.94 336.267 89.94C336.45 89.94 336.615 89.93 336.762 89.91C336.912 89.89 337.048 89.8583 337.172 89.815C337.298 89.7717 337.417 89.7167 337.527 89.65C337.64 89.58 337.752 89.495 337.862 89.395C337.895 89.365 337.93 89.3417 337.967 89.325C338.003 89.305 338.042 89.295 338.082 89.295ZM341.695 85.79C342.075 85.79 342.42 85.8517 342.73 85.975C343.044 86.0983 343.31 86.2733 343.53 86.5C343.754 86.7267 343.925 87.0033 344.045 87.33C344.165 87.6567 344.225 88.0217 344.225 88.425C344.225 88.8317 344.165 89.1983 344.045 89.525C343.925 89.8517 343.754 90.13 343.53 90.36C343.31 90.59 343.044 90.7667 342.73 90.89C342.42 91.0133 342.075 91.075 341.695 91.075C341.312 91.075 340.964 91.0133 340.65 90.89C340.337 90.7667 340.069 90.59 339.845 90.36C339.625 90.13 339.454 89.8517 339.33 89.525C339.21 89.1983 339.15 88.8317 339.15 88.425C339.15 88.0217 339.21 87.6567 339.33 87.33C339.454 87.0033 339.625 86.7267 339.845 86.5C340.069 86.2733 340.337 86.0983 340.65 85.975C340.964 85.8517 341.312 85.79 341.695 85.79ZM341.695 90.125C342.122 90.125 342.437 89.9817 342.64 89.695C342.847 89.4083 342.95 88.9883 342.95 88.435C342.95 87.8817 342.847 87.46 342.64 87.17C342.437 86.88 342.122 86.735 341.695 86.735C341.262 86.735 340.94 86.8817 340.73 87.175C340.524 87.465 340.42 87.885 340.42 88.435C340.42 88.985 340.524 89.405 340.73 89.695C340.94 89.9817 341.262 90.125 341.695 90.125ZM345.168 91V85.87H345.923C346.083 85.87 346.188 85.945 346.238 86.095L346.318 86.475C346.408 86.375 346.501 86.2833 346.598 86.2C346.698 86.1167 346.803 86.045 346.913 85.985C347.026 85.925 347.146 85.8783 347.273 85.845C347.403 85.8083 347.544 85.79 347.698 85.79C348.021 85.79 348.286 85.8783 348.493 86.055C348.703 86.2283 348.859 86.46 348.963 86.75C349.043 86.58 349.143 86.435 349.263 86.315C349.383 86.1917 349.514 86.0917 349.658 86.015C349.801 85.9383 349.953 85.8817 350.113 85.845C350.276 85.8083 350.439 85.79 350.603 85.79C350.886 85.79 351.138 85.8333 351.358 85.92C351.578 86.0067 351.763 86.1333 351.913 86.3C352.063 86.4667 352.176 86.67 352.253 86.91C352.333 87.15 352.373 87.425 352.373 87.735V91H351.138V87.735C351.138 87.4083 351.066 87.1633 350.923 87C350.779 86.8333 350.569 86.75 350.293 86.75C350.166 86.75 350.048 86.7717 349.938 86.815C349.831 86.8583 349.736 86.9217 349.653 87.005C349.573 87.085 349.509 87.1867 349.463 87.31C349.416 87.4333 349.393 87.575 349.393 87.735V91H348.153V87.735C348.153 87.3917 348.083 87.1417 347.943 86.985C347.806 86.8283 347.604 86.75 347.338 86.75C347.158 86.75 346.989 86.795 346.833 86.885C346.679 86.9717 346.536 87.0917 346.403 87.245V91H345.168ZM354.782 89.67C354.922 89.84 355.073 89.96 355.237 90.03C355.403 90.1 355.583 90.135 355.777 90.135C355.963 90.135 356.132 90.1 356.282 90.03C356.432 89.96 356.558 89.8533 356.662 89.71C356.768 89.5667 356.85 89.3867 356.907 89.17C356.963 88.95 356.992 88.6917 356.992 88.395C356.992 88.095 356.967 87.8417 356.917 87.635C356.87 87.425 356.802 87.255 356.712 87.125C356.622 86.995 356.512 86.9 356.382 86.84C356.255 86.78 356.11 86.75 355.947 86.75C355.69 86.75 355.472 86.805 355.292 86.915C355.112 87.0217 354.942 87.1733 354.782 87.37V89.67ZM354.717 86.57C354.927 86.3333 355.165 86.1417 355.432 85.995C355.698 85.8483 356.012 85.775 356.372 85.775C356.652 85.775 356.907 85.8333 357.137 85.95C357.37 86.0667 357.57 86.2367 357.737 86.46C357.907 86.68 358.037 86.9533 358.127 87.28C358.22 87.6033 358.267 87.975 358.267 88.395C358.267 88.7783 358.215 89.1333 358.112 89.46C358.008 89.7867 357.86 90.07 357.667 90.31C357.477 90.55 357.245 90.7383 356.972 90.875C356.702 91.0083 356.398 91.075 356.062 91.075C355.775 91.075 355.53 91.0317 355.327 90.945C355.123 90.855 354.942 90.7317 354.782 90.575V92.675H353.547V85.87H354.302C354.462 85.87 354.567 85.945 354.617 86.095L354.717 86.57ZM361.5 85.79C361.88 85.79 362.225 85.8517 362.535 85.975C362.848 86.0983 363.115 86.2733 363.335 86.5C363.558 86.7267 363.73 87.0033 363.85 87.33C363.97 87.6567 364.03 88.0217 364.03 88.425C364.03 88.8317 363.97 89.1983 363.85 89.525C363.73 89.8517 363.558 90.13 363.335 90.36C363.115 90.59 362.848 90.7667 362.535 90.89C362.225 91.0133 361.88 91.075 361.5 91.075C361.117 91.075 360.768 91.0133 360.455 90.89C360.142 90.7667 359.873 90.59 359.65 90.36C359.43 90.13 359.258 89.8517 359.135 89.525C359.015 89.1983 358.955 88.8317 358.955 88.425C358.955 88.0217 359.015 87.6567 359.135 87.33C359.258 87.0033 359.43 86.7267 359.65 86.5C359.873 86.2733 360.142 86.0983 360.455 85.975C360.768 85.8517 361.117 85.79 361.5 85.79ZM361.5 90.125C361.927 90.125 362.242 89.9817 362.445 89.695C362.652 89.4083 362.755 88.9883 362.755 88.435C362.755 87.8817 362.652 87.46 362.445 87.17C362.242 86.88 361.927 86.735 361.5 86.735C361.067 86.735 360.745 86.8817 360.535 87.175C360.328 87.465 360.225 87.885 360.225 88.435C360.225 88.985 360.328 89.405 360.535 89.695C360.745 89.9817 361.067 90.125 361.5 90.125ZM366.127 86.5C366.231 86.3967 366.339 86.3017 366.452 86.215C366.569 86.125 366.691 86.05 366.817 85.99C366.947 85.9267 367.086 85.8783 367.232 85.845C367.379 85.8083 367.539 85.79 367.712 85.79C367.992 85.79 368.241 85.8383 368.457 85.935C368.674 86.0283 368.854 86.1617 368.997 86.335C369.144 86.505 369.254 86.71 369.327 86.95C369.404 87.1867 369.442 87.4483 369.442 87.735V91H368.207V87.735C368.207 87.4217 368.136 87.18 367.992 87.01C367.849 86.8367 367.631 86.75 367.337 86.75C367.124 86.75 366.924 86.7983 366.737 86.895C366.551 86.9917 366.374 87.1233 366.207 87.29V91H364.972V85.87H365.727C365.887 85.87 365.992 85.945 366.042 86.095L366.127 86.5ZM373.922 87.845C373.922 87.685 373.899 87.535 373.852 87.395C373.809 87.2517 373.742 87.1267 373.652 87.02C373.562 86.9133 373.447 86.83 373.307 86.77C373.17 86.7067 373.01 86.675 372.827 86.675C372.47 86.675 372.189 86.7767 371.982 86.98C371.779 87.1833 371.649 87.4717 371.592 87.845H373.922ZM371.567 88.59C371.587 88.8533 371.634 89.0817 371.707 89.275C371.78 89.465 371.877 89.6233 371.997 89.75C372.117 89.8733 372.259 89.9667 372.422 90.03C372.589 90.09 372.772 90.12 372.972 90.12C373.172 90.12 373.344 90.0967 373.487 90.05C373.634 90.0033 373.76 89.9517 373.867 89.895C373.977 89.8383 374.072 89.7867 374.152 89.74C374.235 89.6933 374.315 89.67 374.392 89.67C374.495 89.67 374.572 89.7083 374.622 89.785L374.977 90.235C374.84 90.395 374.687 90.53 374.517 90.64C374.347 90.7467 374.169 90.8333 373.982 90.9C373.799 90.9633 373.61 91.0083 373.417 91.035C373.227 91.0617 373.042 91.075 372.862 91.075C372.505 91.075 372.174 91.0167 371.867 90.9C371.56 90.78 371.294 90.605 371.067 90.375C370.84 90.1417 370.662 89.855 370.532 89.515C370.402 89.1717 370.337 88.775 370.337 88.325C370.337 87.975 370.394 87.6467 370.507 87.34C370.62 87.03 370.782 86.7617 370.992 86.535C371.205 86.305 371.464 86.1233 371.767 85.99C372.074 85.8567 372.419 85.79 372.802 85.79C373.125 85.79 373.424 85.8417 373.697 85.945C373.97 86.0483 374.205 86.2 374.402 86.4C374.599 86.5967 374.752 86.84 374.862 87.13C374.975 87.4167 375.032 87.745 375.032 88.115C375.032 88.3017 375.012 88.4283 374.972 88.495C374.932 88.5583 374.855 88.59 374.742 88.59H371.567ZM377.114 86.5C377.217 86.3967 377.325 86.3017 377.439 86.215C377.555 86.125 377.677 86.05 377.804 85.99C377.934 85.9267 378.072 85.8783 378.219 85.845C378.365 85.8083 378.525 85.79 378.699 85.79C378.979 85.79 379.227 85.8383 379.444 85.935C379.66 86.0283 379.84 86.1617 379.984 86.335C380.13 86.505 380.24 86.71 380.314 86.95C380.39 87.1867 380.429 87.4483 380.429 87.735V91H379.194V87.735C379.194 87.4217 379.122 87.18 378.979 87.01C378.835 86.8367 378.617 86.75 378.324 86.75C378.11 86.75 377.91 86.7983 377.724 86.895C377.537 86.9917 377.36 87.1233 377.194 87.29V91H375.959V85.87H376.714C376.874 85.87 376.979 85.945 377.029 86.095L377.114 86.5ZM383.245 91.08C382.798 91.08 382.455 90.955 382.215 90.705C381.978 90.4517 381.86 90.1033 381.86 89.66V86.795H381.335C381.268 86.795 381.211 86.7733 381.165 86.73C381.118 86.6867 381.095 86.6217 381.095 86.535V86.045L381.92 85.91L382.18 84.51C382.196 84.4433 382.228 84.3917 382.275 84.355C382.321 84.3183 382.381 84.3 382.455 84.3H383.095V85.915H384.465V86.795H383.095V89.575C383.095 89.735 383.133 89.86 383.21 89.95C383.29 90.04 383.398 90.085 383.535 90.085C383.611 90.085 383.675 90.0767 383.725 90.06C383.778 90.04 383.823 90.02 383.86 90C383.9 89.98 383.935 89.9617 383.965 89.945C383.995 89.925 384.025 89.915 384.055 89.915C384.091 89.915 384.121 89.925 384.145 89.945C384.168 89.9617 384.193 89.9883 384.22 90.025L384.59 90.625C384.41 90.775 384.203 90.8883 383.97 90.965C383.736 91.0417 383.495 91.08 383.245 91.08ZM392.847 89.295C392.92 89.295 392.985 89.3233 393.042 89.38L393.572 89.955C393.279 90.3183 392.917 90.5967 392.487 90.79C392.06 90.9833 391.547 91.08 390.947 91.08C390.41 91.08 389.927 90.9883 389.497 90.805C389.07 90.6217 388.705 90.3667 388.402 90.04C388.099 89.7133 387.865 89.3233 387.702 88.87C387.542 88.4167 387.462 87.9217 387.462 87.385C387.462 86.8417 387.549 86.345 387.722 85.895C387.895 85.4417 388.139 85.0517 388.452 84.725C388.769 84.3983 389.145 84.145 389.582 83.965C390.019 83.7817 390.502 83.69 391.032 83.69C391.559 83.69 392.025 83.7767 392.432 83.95C392.842 84.1233 393.19 84.35 393.477 84.63L393.027 85.255C393 85.295 392.965 85.33 392.922 85.36C392.882 85.39 392.825 85.405 392.752 85.405C392.702 85.405 392.65 85.3917 392.597 85.365C392.544 85.335 392.485 85.3 392.422 85.26C392.359 85.2167 392.285 85.17 392.202 85.12C392.119 85.07 392.022 85.025 391.912 84.985C391.802 84.9417 391.674 84.9067 391.527 84.88C391.384 84.85 391.217 84.835 391.027 84.835C390.704 84.835 390.407 84.8933 390.137 85.01C389.87 85.1233 389.64 85.29 389.447 85.51C389.254 85.7267 389.104 85.9933 388.997 86.31C388.89 86.6233 388.837 86.9817 388.837 87.385C388.837 87.7917 388.894 88.1533 389.007 88.47C389.124 88.7867 389.28 89.0533 389.477 89.27C389.674 89.4867 389.905 89.6533 390.172 89.77C390.439 89.8833 390.725 89.94 391.032 89.94C391.215 89.94 391.38 89.93 391.527 89.91C391.677 89.89 391.814 89.8583 391.937 89.815C392.064 89.7717 392.182 89.7167 392.292 89.65C392.405 89.58 392.517 89.495 392.627 89.395C392.66 89.365 392.695 89.3417 392.732 89.325C392.769 89.305 392.807 89.295 392.847 89.295Z" fill="white"/>
<rect x="313.5" y="37.5" width="99" height="99" rx="19.5" stroke="white"/>
<path d="M323.354 87.3536C323.549 87.1583 323.549 86.8417 323.354 86.6464L320.172 83.4645C319.976 83.2692 319.66 83.2692 319.464 83.4645C319.269 83.6597 319.269 83.9763 319.464 84.1716L322.293 87L319.464 89.8284C319.269 90.0237 319.269 90.3403 319.464 90.5355C319.66 90.7308 319.976 90.7308 320.172 90.5355L323.354 87.3536ZM283 87.5H323V86.5H283V87.5Z" fill="white" fill-opacity="0.5"/>
<path d="M218.096 89.295C218.17 89.295 218.235 89.3233 218.291 89.38L218.821 89.955C218.528 90.3183 218.166 90.5967 217.736 90.79C217.31 90.9833 216.796 91.08 216.196 91.08C215.66 91.08 215.176 90.9883 214.746 90.805C214.32 90.6217 213.955 90.3667 213.651 90.04C213.348 89.7133 213.115 89.3233 212.951 88.87C212.791 88.4167 212.711 87.9217 212.711 87.385C212.711 86.8417 212.798 86.345 212.971 85.895C213.145 85.4417 213.388 85.0517 213.701 84.725C214.018 84.3983 214.395 84.145 214.831 83.965C215.268 83.7817 215.751 83.69 216.281 83.69C216.808 83.69 217.275 83.7767 217.681 83.95C218.091 84.1233 218.44 84.35 218.726 84.63L218.276 85.255C218.25 85.295 218.215 85.33 218.171 85.36C218.131 85.39 218.075 85.405 218.001 85.405C217.951 85.405 217.9 85.3917 217.846 85.365C217.793 85.335 217.735 85.3 217.671 85.26C217.608 85.2167 217.535 85.17 217.451 85.12C217.368 85.07 217.271 85.025 217.161 84.985C217.051 84.9417 216.923 84.9067 216.776 84.88C216.633 84.85 216.466 84.835 216.276 84.835C215.953 84.835 215.656 84.8933 215.386 85.01C215.12 85.1233 214.89 85.29 214.696 85.51C214.503 85.7267 214.353 85.9933 214.246 86.31C214.14 86.6233 214.086 86.9817 214.086 87.385C214.086 87.7917 214.143 88.1533 214.256 88.47C214.373 88.7867 214.53 89.0533 214.726 89.27C214.923 89.4867 215.155 89.6533 215.421 89.77C215.688 89.8833 215.975 89.94 216.281 89.94C216.465 89.94 216.63 89.93 216.776 89.91C216.926 89.89 217.063 89.8583 217.186 89.815C217.313 89.7717 217.431 89.7167 217.541 89.65C217.655 89.58 217.766 89.495 217.876 89.395C217.91 89.365 217.945 89.3417 217.981 89.325C218.018 89.305 218.056 89.295 218.096 89.295ZM221.71 85.79C222.09 85.79 222.435 85.8517 222.745 85.975C223.058 86.0983 223.325 86.2733 223.545 86.5C223.768 86.7267 223.94 87.0033 224.06 87.33C224.18 87.6567 224.24 88.0217 224.24 88.425C224.24 88.8317 224.18 89.1983 224.06 89.525C223.94 89.8517 223.768 90.13 223.545 90.36C223.325 90.59 223.058 90.7667 222.745 90.89C222.435 91.0133 222.09 91.075 221.71 91.075C221.327 91.075 220.978 91.0133 220.665 90.89C220.352 90.7667 220.083 90.59 219.86 90.36C219.64 90.13 219.468 89.8517 219.345 89.525C219.225 89.1983 219.165 88.8317 219.165 88.425C219.165 88.0217 219.225 87.6567 219.345 87.33C219.468 87.0033 219.64 86.7267 219.86 86.5C220.083 86.2733 220.352 86.0983 220.665 85.975C220.978 85.8517 221.327 85.79 221.71 85.79ZM221.71 90.125C222.137 90.125 222.452 89.9817 222.655 89.695C222.862 89.4083 222.965 88.9883 222.965 88.435C222.965 87.8817 222.862 87.46 222.655 87.17C222.452 86.88 222.137 86.735 221.71 86.735C221.277 86.735 220.955 86.8817 220.745 87.175C220.538 87.465 220.435 87.885 220.435 88.435C220.435 88.985 220.538 89.405 220.745 89.695C220.955 89.9817 221.277 90.125 221.71 90.125ZM225.182 91V85.87H225.937C226.097 85.87 226.202 85.945 226.252 86.095L226.332 86.475C226.422 86.375 226.516 86.2833 226.612 86.2C226.712 86.1167 226.817 86.045 226.927 85.985C227.041 85.925 227.161 85.8783 227.287 85.845C227.417 85.8083 227.559 85.79 227.712 85.79C228.036 85.79 228.301 85.8783 228.507 86.055C228.717 86.2283 228.874 86.46 228.977 86.75C229.057 86.58 229.157 86.435 229.277 86.315C229.397 86.1917 229.529 86.0917 229.672 86.015C229.816 85.9383 229.967 85.8817 230.127 85.845C230.291 85.8083 230.454 85.79 230.617 85.79C230.901 85.79 231.152 85.8333 231.372 85.92C231.592 86.0067 231.777 86.1333 231.927 86.3C232.077 86.4667 232.191 86.67 232.267 86.91C232.347 87.15 232.387 87.425 232.387 87.735V91H231.152V87.735C231.152 87.4083 231.081 87.1633 230.937 87C230.794 86.8333 230.584 86.75 230.307 86.75C230.181 86.75 230.062 86.7717 229.952 86.815C229.846 86.8583 229.751 86.9217 229.667 87.005C229.587 87.085 229.524 87.1867 229.477 87.31C229.431 87.4333 229.407 87.575 229.407 87.735V91H228.167V87.735C228.167 87.3917 228.097 87.1417 227.957 86.985C227.821 86.8283 227.619 86.75 227.352 86.75C227.172 86.75 227.004 86.795 226.847 86.885C226.694 86.9717 226.551 87.0917 226.417 87.245V91H225.182ZM234.796 89.67C234.936 89.84 235.088 89.96 235.251 90.03C235.418 90.1 235.598 90.135 235.791 90.135C235.978 90.135 236.146 90.1 236.296 90.03C236.446 89.96 236.573 89.8533 236.676 89.71C236.783 89.5667 236.865 89.3867 236.921 89.17C236.978 88.95 237.006 88.6917 237.006 88.395C237.006 88.095 236.981 87.8417 236.931 87.635C236.885 87.425 236.816 87.255 236.726 87.125C236.636 86.995 236.526 86.9 236.396 86.84C236.27 86.78 236.125 86.75 235.961 86.75C235.705 86.75 235.486 86.805 235.306 86.915C235.126 87.0217 234.956 87.1733 234.796 87.37V89.67ZM234.731 86.57C234.941 86.3333 235.18 86.1417 235.446 85.995C235.713 85.8483 236.026 85.775 236.386 85.775C236.666 85.775 236.921 85.8333 237.151 85.95C237.385 86.0667 237.585 86.2367 237.751 86.46C237.921 86.68 238.051 86.9533 238.141 87.28C238.235 87.6033 238.281 87.975 238.281 88.395C238.281 88.7783 238.23 89.1333 238.126 89.46C238.023 89.7867 237.875 90.07 237.681 90.31C237.491 90.55 237.26 90.7383 236.986 90.875C236.716 91.0083 236.413 91.075 236.076 91.075C235.79 91.075 235.545 91.0317 235.341 90.945C235.138 90.855 234.956 90.7317 234.796 90.575V92.675H233.561V85.87H234.316C234.476 85.87 234.581 85.945 234.631 86.095L234.731 86.57ZM241.515 85.79C241.895 85.79 242.24 85.8517 242.55 85.975C242.863 86.0983 243.13 86.2733 243.35 86.5C243.573 86.7267 243.745 87.0033 243.865 87.33C243.985 87.6567 244.045 88.0217 244.045 88.425C244.045 88.8317 243.985 89.1983 243.865 89.525C243.745 89.8517 243.573 90.13 243.35 90.36C243.13 90.59 242.863 90.7667 242.55 90.89C242.24 91.0133 241.895 91.075 241.515 91.075C241.131 91.075 240.783 91.0133 240.47 90.89C240.156 90.7667 239.888 90.59 239.665 90.36C239.445 90.13 239.273 89.8517 239.15 89.525C239.03 89.1983 238.97 88.8317 238.97 88.425C238.97 88.0217 239.03 87.6567 239.15 87.33C239.273 87.0033 239.445 86.7267 239.665 86.5C239.888 86.2733 240.156 86.0983 240.47 85.975C240.783 85.8517 241.131 85.79 241.515 85.79ZM241.515 90.125C241.941 90.125 242.256 89.9817 242.46 89.695C242.666 89.4083 242.77 88.9883 242.77 88.435C242.77 87.8817 242.666 87.46 242.46 87.17C242.256 86.88 241.941 86.735 241.515 86.735C241.081 86.735 240.76 86.8817 240.55 87.175C240.343 87.465 240.24 87.885 240.24 88.435C240.24 88.985 240.343 89.405 240.55 89.695C240.76 89.9817 241.081 90.125 241.515 90.125ZM246.142 86.5C246.245 86.3967 246.354 86.3017 246.467 86.215C246.584 86.125 246.705 86.05 246.832 85.99C246.962 85.9267 247.1 85.8783 247.247 85.845C247.394 85.8083 247.554 85.79 247.727 85.79C248.007 85.79 248.255 85.8383 248.472 85.935C248.689 86.0283 248.869 86.1617 249.012 86.335C249.159 86.505 249.269 86.71 249.342 86.95C249.419 87.1867 249.457 87.4483 249.457 87.735V91H248.222V87.735C248.222 87.4217 248.15 87.18 248.007 87.01C247.864 86.8367 247.645 86.75 247.352 86.75C247.139 86.75 246.939 86.7983 246.752 86.895C246.565 86.9917 246.389 87.1233 246.222 87.29V91H244.987V85.87H245.742C245.902 85.87 246.007 85.945 246.057 86.095L246.142 86.5ZM253.936 87.845C253.936 87.685 253.913 87.535 253.866 87.395C253.823 87.2517 253.756 87.1267 253.666 87.02C253.576 86.9133 253.461 86.83 253.321 86.77C253.185 86.7067 253.025 86.675 252.841 86.675C252.485 86.675 252.203 86.7767 251.996 86.98C251.793 87.1833 251.663 87.4717 251.606 87.845H253.936ZM251.581 88.59C251.601 88.8533 251.648 89.0817 251.721 89.275C251.795 89.465 251.891 89.6233 252.011 89.75C252.131 89.8733 252.273 89.9667 252.436 90.03C252.603 90.09 252.786 90.12 252.986 90.12C253.186 90.12 253.358 90.0967 253.501 90.05C253.648 90.0033 253.775 89.9517 253.881 89.895C253.991 89.8383 254.086 89.7867 254.166 89.74C254.25 89.6933 254.33 89.67 254.406 89.67C254.51 89.67 254.586 89.7083 254.636 89.785L254.991 90.235C254.855 90.395 254.701 90.53 254.531 90.64C254.361 90.7467 254.183 90.8333 253.996 90.9C253.813 90.9633 253.625 91.0083 253.431 91.035C253.241 91.0617 253.056 91.075 252.876 91.075C252.52 91.075 252.188 91.0167 251.881 90.9C251.575 90.78 251.308 90.605 251.081 90.375C250.855 90.1417 250.676 89.855 250.546 89.515C250.416 89.1717 250.351 88.775 250.351 88.325C250.351 87.975 250.408 87.6467 250.521 87.34C250.635 87.03 250.796 86.7617 251.006 86.535C251.22 86.305 251.478 86.1233 251.781 85.99C252.088 85.8567 252.433 85.79 252.816 85.79C253.14 85.79 253.438 85.8417 253.711 85.945C253.985 86.0483 254.22 86.2 254.416 86.4C254.613 86.5967 254.766 86.84 254.876 87.13C254.99 87.4167 255.046 87.745 255.046 88.115C255.046 88.3017 255.026 88.4283 254.986 88.495C254.946 88.5583 254.87 88.59 254.756 88.59H251.581ZM257.128 86.5C257.232 86.3967 257.34 86.3017 257.453 86.215C257.57 86.125 257.692 86.05 257.818 85.99C257.948 85.9267 258.087 85.8783 258.233 85.845C258.38 85.8083 258.54 85.79 258.713 85.79C258.993 85.79 259.242 85.8383 259.458 85.935C259.675 86.0283 259.855 86.1617 259.998 86.335C260.145 86.505 260.255 86.71 260.328 86.95C260.405 87.1867 260.443 87.4483 260.443 87.735V91H259.208V87.735C259.208 87.4217 259.137 87.18 258.993 87.01C258.85 86.8367 258.632 86.75 258.338 86.75C258.125 86.75 257.925 86.7983 257.738 86.895C257.552 86.9917 257.375 87.1233 257.208 87.29V91H255.973V85.87H256.728C256.888 85.87 256.993 85.945 257.043 86.095L257.128 86.5ZM263.259 91.08C262.813 91.08 262.469 90.955 262.229 90.705C261.993 90.4517 261.874 90.1033 261.874 89.66V86.795H261.349C261.283 86.795 261.226 86.7733 261.179 86.73C261.133 86.6867 261.109 86.6217 261.109 86.535V86.045L261.934 85.91L262.194 84.51C262.211 84.4433 262.243 84.3917 262.289 84.355C262.336 84.3183 262.396 84.3 262.469 84.3H263.109V85.915H264.479V86.795H263.109V89.575C263.109 89.735 263.148 89.86 263.224 89.95C263.304 90.04 263.413 90.085 263.549 90.085C263.626 90.085 263.689 90.0767 263.739 90.06C263.793 90.04 263.838 90.02 263.874 90C263.914 89.98 263.949 89.9617 263.979 89.945C264.009 89.925 264.039 89.915 264.069 89.915C264.106 89.915 264.136 89.925 264.159 89.945C264.183 89.9617 264.208 89.9883 264.234 90.025L264.604 90.625C264.424 90.775 264.218 90.8883 263.984 90.965C263.751 91.0417 263.509 91.08 263.259 91.08ZM270.602 89.95C270.852 89.95 271.062 89.92 271.232 89.86C271.402 89.8 271.537 89.72 271.637 89.62C271.74 89.52 271.813 89.4033 271.857 89.27C271.903 89.1367 271.927 88.995 271.927 88.845C271.927 88.6883 271.902 88.5483 271.852 88.425C271.802 88.2983 271.723 88.1917 271.617 88.105C271.51 88.015 271.372 87.9467 271.202 87.9C271.035 87.8533 270.833 87.83 270.597 87.83H269.242V89.95H270.602ZM269.242 84.81V86.9H270.312C270.772 86.9 271.118 86.8167 271.352 86.65C271.588 86.4833 271.707 86.2183 271.707 85.855C271.707 85.4783 271.6 85.21 271.387 85.05C271.173 84.89 270.84 84.81 270.387 84.81H269.242ZM270.387 83.77C270.86 83.77 271.265 83.815 271.602 83.905C271.938 83.995 272.213 84.1233 272.427 84.29C272.643 84.4567 272.802 84.6583 272.902 84.895C273.002 85.1317 273.052 85.3983 273.052 85.695C273.052 85.865 273.027 86.0283 272.977 86.185C272.927 86.3383 272.848 86.4833 272.742 86.62C272.638 86.7533 272.505 86.875 272.342 86.985C272.182 87.095 271.99 87.1883 271.767 87.265C272.76 87.4883 273.257 88.025 273.257 88.875C273.257 89.1817 273.198 89.465 273.082 89.725C272.965 89.985 272.795 90.21 272.572 90.4C272.348 90.5867 272.073 90.7333 271.747 90.84C271.42 90.9467 271.047 91 270.627 91H267.897V83.77H270.387Z" fill="white"/>
<rect x="193.5" y="37.5" width="99" height="99" rx="19.5" stroke="white"/>
<path d="M203.354 87.3536C203.549 87.1583 203.549 86.8417 203.354 86.6464L200.172 83.4645C199.976 83.2692 199.66 83.2692 199.464 83.4645C199.269 83.6597 199.269 83.9763 199.464 84.1716L202.293 87L199.464 89.8284C199.269 90.0237 199.269 90.3403 199.464 90.5355C199.66 90.7308 199.976 90.7308 200.172 90.5355L203.354 87.3536ZM163 87.5H203V86.5H163V87.5Z" fill="white" fill-opacity="0.5"/>
<path d="M98.0815 89.295C98.1549 89.295 98.2199 89.3233 98.2765 89.38L98.8065 89.955C98.5132 90.3183 98.1515 90.5967 97.7215 90.79C97.2949 90.9833 96.7815 91.08 96.1815 91.08C95.6449 91.08 95.1615 90.9883 94.7315 90.805C94.3049 90.6217 93.9399 90.3667 93.6365 90.04C93.3332 89.7133 93.0999 89.3233 92.9365 88.87C92.7765 88.4167 92.6965 87.9217 92.6965 87.385C92.6965 86.8417 92.7832 86.345 92.9565 85.895C93.1299 85.4417 93.3732 85.0517 93.6865 84.725C94.0032 84.3983 94.3799 84.145 94.8165 83.965C95.2532 83.7817 95.7365 83.69 96.2665 83.69C96.7932 83.69 97.2599 83.7767 97.6665 83.95C98.0765 84.1233 98.4249 84.35 98.7115 84.63L98.2615 85.255C98.2349 85.295 98.1999 85.33 98.1565 85.36C98.1165 85.39 98.0599 85.405 97.9865 85.405C97.9365 85.405 97.8849 85.3917 97.8315 85.365C97.7782 85.335 97.7199 85.3 97.6565 85.26C97.5932 85.2167 97.5199 85.17 97.4365 85.12C97.3532 85.07 97.2565 85.025 97.1465 84.985C97.0365 84.9417 96.9082 84.9067 96.7615 84.88C96.6182 84.85 96.4515 84.835 96.2615 84.835C95.9382 84.835 95.6415 84.8933 95.3715 85.01C95.1049 85.1233 94.8749 85.29 94.6815 85.51C94.4882 85.7267 94.3382 85.9933 94.2315 86.31C94.1249 86.6233 94.0715 86.9817 94.0715 87.385C94.0715 87.7917 94.1282 88.1533 94.2415 88.47C94.3582 88.7867 94.5149 89.0533 94.7115 89.27C94.9082 89.4867 95.1399 89.6533 95.4065 89.77C95.6732 89.8833 95.9599 89.94 96.2665 89.94C96.4499 89.94 96.6149 89.93 96.7615 89.91C96.9115 89.89 97.0482 89.8583 97.1715 89.815C97.2982 89.7717 97.4165 89.7167 97.5265 89.65C97.6399 89.58 97.7515 89.495 97.8615 89.395C97.8949 89.365 97.9299 89.3417 97.9665 89.325C98.0032 89.305 98.0415 89.295 98.0815 89.295ZM101.695 85.79C102.075 85.79 102.42 85.8517 102.73 85.975C103.044 86.0983 103.31 86.2733 103.53 86.5C103.754 86.7267 103.925 87.0033 104.045 87.33C104.165 87.6567 104.225 88.0217 104.225 88.425C104.225 88.8317 104.165 89.1983 104.045 89.525C103.925 89.8517 103.754 90.13 103.53 90.36C103.31 90.59 103.044 90.7667 102.73 90.89C102.42 91.0133 102.075 91.075 101.695 91.075C101.312 91.075 100.964 91.0133 100.65 90.89C100.337 90.7667 100.069 90.59 99.8454 90.36C99.6254 90.13 99.4538 89.8517 99.3304 89.525C99.2104 89.1983 99.1504 88.8317 99.1504 88.425C99.1504 88.0217 99.2104 87.6567 99.3304 87.33C99.4538 87.0033 99.6254 86.7267 99.8454 86.5C100.069 86.2733 100.337 86.0983 100.65 85.975C100.964 85.8517 101.312 85.79 101.695 85.79ZM101.695 90.125C102.122 90.125 102.437 89.9817 102.64 89.695C102.847 89.4083 102.95 88.9883 102.95 88.435C102.95 87.8817 102.847 87.46 102.64 87.17C102.437 86.88 102.122 86.735 101.695 86.735C101.262 86.735 100.94 86.8817 100.73 87.175C100.524 87.465 100.42 87.885 100.42 88.435C100.42 88.985 100.524 89.405 100.73 89.695C100.94 89.9817 101.262 90.125 101.695 90.125ZM105.168 91V85.87H105.923C106.083 85.87 106.188 85.945 106.238 86.095L106.318 86.475C106.408 86.375 106.501 86.2833 106.598 86.2C106.698 86.1167 106.803 86.045 106.913 85.985C107.026 85.925 107.146 85.8783 107.273 85.845C107.403 85.8083 107.544 85.79 107.698 85.79C108.021 85.79 108.286 85.8783 108.493 86.055C108.703 86.2283 108.859 86.46 108.963 86.75C109.043 86.58 109.143 86.435 109.263 86.315C109.383 86.1917 109.514 86.0917 109.658 86.015C109.801 85.9383 109.953 85.8817 110.113 85.845C110.276 85.8083 110.439 85.79 110.603 85.79C110.886 85.79 111.138 85.8333 111.358 85.92C111.578 86.0067 111.763 86.1333 111.913 86.3C112.063 86.4667 112.176 86.67 112.253 86.91C112.333 87.15 112.373 87.425 112.373 87.735V91H111.138V87.735C111.138 87.4083 111.066 87.1633 110.923 87C110.779 86.8333 110.569 86.75 110.293 86.75C110.166 86.75 110.048 86.7717 109.938 86.815C109.831 86.8583 109.736 86.9217 109.653 87.005C109.573 87.085 109.509 87.1867 109.463 87.31C109.416 87.4333 109.393 87.575 109.393 87.735V91H108.153V87.735C108.153 87.3917 108.083 87.1417 107.943 86.985C107.806 86.8283 107.604 86.75 107.338 86.75C107.158 86.75 106.989 86.795 106.833 86.885C106.679 86.9717 106.536 87.0917 106.403 87.245V91H105.168ZM114.782 89.67C114.922 89.84 115.073 89.96 115.237 90.03C115.403 90.1 115.583 90.135 115.777 90.135C115.963 90.135 116.132 90.1 116.282 90.03C116.432 89.96 116.558 89.8533 116.662 89.71C116.768 89.5667 116.85 89.3867 116.907 89.17C116.963 88.95 116.992 88.6917 116.992 88.395C116.992 88.095 116.967 87.8417 116.917 87.635C116.87 87.425 116.802 87.255 116.712 87.125C116.622 86.995 116.512 86.9 116.382 86.84C116.255 86.78 116.11 86.75 115.947 86.75C115.69 86.75 115.472 86.805 115.292 86.915C115.112 87.0217 114.942 87.1733 114.782 87.37V89.67ZM114.717 86.57C114.927 86.3333 115.165 86.1417 115.432 85.995C115.698 85.8483 116.012 85.775 116.372 85.775C116.652 85.775 116.907 85.8333 117.137 85.95C117.37 86.0667 117.57 86.2367 117.737 86.46C117.907 86.68 118.037 86.9533 118.127 87.28C118.22 87.6033 118.267 87.975 118.267 88.395C118.267 88.7783 118.215 89.1333 118.112 89.46C118.008 89.7867 117.86 90.07 117.667 90.31C117.477 90.55 117.245 90.7383 116.972 90.875C116.702 91.0083 116.398 91.075 116.062 91.075C115.775 91.075 115.53 91.0317 115.327 90.945C115.123 90.855 114.942 90.7317 114.782 90.575V92.675H113.547V85.87H114.302C114.462 85.87 114.567 85.945 114.617 86.095L114.717 86.57ZM121.5 85.79C121.88 85.79 122.225 85.8517 122.535 85.975C122.848 86.0983 123.115 86.2733 123.335 86.5C123.558 86.7267 123.73 87.0033 123.85 87.33C123.97 87.6567 124.03 88.0217 124.03 88.425C124.03 88.8317 123.97 89.1983 123.85 89.525C123.73 89.8517 123.558 90.13 123.335 90.36C123.115 90.59 122.848 90.7667 122.535 90.89C122.225 91.0133 121.88 91.075 121.5 91.075C121.117 91.075 120.768 91.0133 120.455 90.89C120.142 90.7667 119.873 90.59 119.65 90.36C119.43 90.13 119.258 89.8517 119.135 89.525C119.015 89.1983 118.955 88.8317 118.955 88.425C118.955 88.0217 119.015 87.6567 119.135 87.33C119.258 87.0033 119.43 86.7267 119.65 86.5C119.873 86.2733 120.142 86.0983 120.455 85.975C120.768 85.8517 121.117 85.79 121.5 85.79ZM121.5 90.125C121.927 90.125 122.242 89.9817 122.445 89.695C122.652 89.4083 122.755 88.9883 122.755 88.435C122.755 87.8817 122.652 87.46 122.445 87.17C122.242 86.88 121.927 86.735 121.5 86.735C121.067 86.735 120.745 86.8817 120.535 87.175C120.328 87.465 120.225 87.885 120.225 88.435C120.225 88.985 120.328 89.405 120.535 89.695C120.745 89.9817 121.067 90.125 121.5 90.125ZM126.127 86.5C126.231 86.3967 126.339 86.3017 126.452 86.215C126.569 86.125 126.691 86.05 126.817 85.99C126.947 85.9267 127.086 85.8783 127.232 85.845C127.379 85.8083 127.539 85.79 127.712 85.79C127.992 85.79 128.241 85.8383 128.457 85.935C128.674 86.0283 128.854 86.1617 128.997 86.335C129.144 86.505 129.254 86.71 129.327 86.95C129.404 87.1867 129.442 87.4483 129.442 87.735V91H128.207V87.735C128.207 87.4217 128.136 87.18 127.992 87.01C127.849 86.8367 127.631 86.75 127.337 86.75C127.124 86.75 126.924 86.7983 126.737 86.895C126.551 86.9917 126.374 87.1233 126.207 87.29V91H124.972V85.87H125.727C125.887 85.87 125.992 85.945 126.042 86.095L126.127 86.5ZM133.922 87.845C133.922 87.685 133.899 87.535 133.852 87.395C133.809 87.2517 133.742 87.1267 133.652 87.02C133.562 86.9133 133.447 86.83 133.307 86.77C133.17 86.7067 133.01 86.675 132.827 86.675C132.47 86.675 132.189 86.7767 131.982 86.98C131.779 87.1833 131.649 87.4717 131.592 87.845H133.922ZM131.567 88.59C131.587 88.8533 131.634 89.0817 131.707 89.275C131.78 89.465 131.877 89.6233 131.997 89.75C132.117 89.8733 132.259 89.9667 132.422 90.03C132.589 90.09 132.772 90.12 132.972 90.12C133.172 90.12 133.344 90.0967 133.487 90.05C133.634 90.0033 133.76 89.9517 133.867 89.895C133.977 89.8383 134.072 89.7867 134.152 89.74C134.235 89.6933 134.315 89.67 134.392 89.67C134.495 89.67 134.572 89.7083 134.622 89.785L134.977 90.235C134.84 90.395 134.687 90.53 134.517 90.64C134.347 90.7467 134.169 90.8333 133.982 90.9C133.799 90.9633 133.61 91.0083 133.417 91.035C133.227 91.0617 133.042 91.075 132.862 91.075C132.505 91.075 132.174 91.0167 131.867 90.9C131.56 90.78 131.294 90.605 131.067 90.375C130.84 90.1417 130.662 89.855 130.532 89.515C130.402 89.1717 130.337 88.775 130.337 88.325C130.337 87.975 130.394 87.6467 130.507 87.34C130.62 87.03 130.782 86.7617 130.992 86.535C131.205 86.305 131.464 86.1233 131.767 85.99C132.074 85.8567 132.419 85.79 132.802 85.79C133.125 85.79 133.424 85.8417 133.697 85.945C133.97 86.0483 134.205 86.2 134.402 86.4C134.599 86.5967 134.752 86.84 134.862 87.13C134.975 87.4167 135.032 87.745 135.032 88.115C135.032 88.3017 135.012 88.4283 134.972 88.495C134.932 88.5583 134.855 88.59 134.742 88.59H131.567ZM137.114 86.5C137.217 86.3967 137.325 86.3017 137.439 86.215C137.555 86.125 137.677 86.05 137.804 85.99C137.934 85.9267 138.072 85.8783 138.219 85.845C138.365 85.8083 138.525 85.79 138.699 85.79C138.979 85.79 139.227 85.8383 139.444 85.935C139.66 86.0283 139.84 86.1617 139.984 86.335C140.13 86.505 140.24 86.71 140.314 86.95C140.39 87.1867 140.429 87.4483 140.429 87.735V91H139.194V87.735C139.194 87.4217 139.122 87.18 138.979 87.01C138.835 86.8367 138.617 86.75 138.324 86.75C138.11 86.75 137.91 86.7983 137.724 86.895C137.537 86.9917 137.36 87.1233 137.194 87.29V91H135.959V85.87H136.714C136.874 85.87 136.979 85.945 137.029 86.095L137.114 86.5ZM143.245 91.08C142.798 91.08 142.455 90.955 142.215 90.705C141.978 90.4517 141.86 90.1033 141.86 89.66V86.795H141.335C141.268 86.795 141.211 86.7733 141.165 86.73C141.118 86.6867 141.095 86.6217 141.095 86.535V86.045L141.92 85.91L142.18 84.51C142.196 84.4433 142.228 84.3917 142.275 84.355C142.321 84.3183 142.381 84.3 142.455 84.3H143.095V85.915H144.465V86.795H143.095V89.575C143.095 89.735 143.133 89.86 143.21 89.95C143.29 90.04 143.398 90.085 143.535 90.085C143.611 90.085 143.675 90.0767 143.725 90.06C143.778 90.04 143.823 90.02 143.86 90C143.9 89.98 143.935 89.9617 143.965 89.945C143.995 89.925 144.025 89.915 144.055 89.915C144.091 89.915 144.121 89.925 144.145 89.945C144.168 89.9617 144.193 89.9883 144.22 90.025L144.59 90.625C144.41 90.775 144.203 90.8883 143.97 90.965C143.736 91.0417 143.495 91.08 143.245 91.08ZM151.37 88.27L150.49 85.865C150.447 85.7583 150.402 85.6317 150.355 85.485C150.308 85.3383 150.262 85.18 150.215 85.01C150.172 85.18 150.127 85.34 150.08 85.49C150.033 85.6367 149.988 85.765 149.945 85.875L149.07 88.27H151.37ZM153.745 91H152.705C152.588 91 152.493 90.9717 152.42 90.915C152.347 90.855 152.292 90.7817 152.255 90.695L151.715 89.22H148.72L148.18 90.695C148.153 90.7717 148.102 90.8417 148.025 90.905C147.948 90.9683 147.853 91 147.74 91H146.69L149.535 83.77H150.905L153.745 91Z" fill="white"/>
<rect x="73.5" y="37.5" width="99" height="99" rx="19.5" stroke="white"/>
<path d="M83.3536 87.3536C83.5488 87.1583 83.5488 86.8417 83.3536 86.6464L80.1716 83.4645C79.9763 83.2692 79.6597 83.2692 79.4645 83.4645C79.2692 83.6597 79.2692 83.9763 79.4645 84.1716L82.2929 87L79.4645 89.8284C79.2692 90.0237 79.2692 90.3403 79.4645 90.5355C79.6597 90.7308 79.9763 90.7308 80.1716 90.5355L83.3536 87.3536ZM43 87.5H83V86.5H43V87.5Z" fill="white" fill-opacity="0.5"/>
<path d="M98.0815 89.295C98.1549 89.295 98.2199 89.3233 98.2765 89.38L98.8065 89.955C98.5132 90.3183 98.1515 90.5967 97.7215 90.79C97.2949 90.9833 96.7815 91.08 96.1815 91.08C95.6449 91.08 95.1615 90.9883 94.7315 90.805C94.3049 90.6217 93.9399 90.3667 93.6365 90.04C93.3332 89.7133 93.0999 89.3233 92.9365 88.87C92.7765 88.4167 92.6965 87.9217 92.6965 87.385C92.6965 86.8417 92.7832 86.345 92.9565 85.895C93.1299 85.4417 93.3732 85.0517 93.6865 84.725C94.0032 84.3983 94.3799 84.145 94.8165 83.965C95.2532 83.7817 95.7365 83.69 96.2665 83.69C96.7932 83.69 97.2599 83.7767 97.6665 83.95C98.0765 84.1233 98.4249 84.35 98.7115 84.63L98.2615 85.255C98.2349 85.295 98.1999 85.33 98.1565 85.36C98.1165 85.39 98.0599 85.405 97.9865 85.405C97.9365 85.405 97.8849 85.3917 97.8315 85.365C97.7782 85.335 97.7199 85.3 97.6565 85.26C97.5932 85.2167 97.5199 85.17 97.4365 85.12C97.3532 85.07 97.2565 85.025 97.1465 84.985C97.0365 84.9417 96.9082 84.9067 96.7615 84.88C96.6182 84.85 96.4515 84.835 96.2615 84.835C95.9382 84.835 95.6415 84.8933 95.3715 85.01C95.1049 85.1233 94.8749 85.29 94.6815 85.51C94.4882 85.7267 94.3382 85.9933 94.2315 86.31C94.1249 86.6233 94.0715 86.9817 94.0715 87.385C94.0715 87.7917 94.1282 88.1533 94.2415 88.47C94.3582 88.7867 94.5149 89.0533 94.7115 89.27C94.9082 89.4867 95.1399 89.6533 95.4065 89.77C95.6732 89.8833 95.9599 89.94 96.2665 89.94C96.4499 89.94 96.6149 89.93 96.7615 89.91C96.9115 89.89 97.0482 89.8583 97.1715 89.815C97.2982 89.7717 97.4165 89.7167 97.5265 89.65C97.6399 89.58 97.7515 89.495 97.8615 89.395C97.8949 89.365 97.9299 89.3417 97.9665 89.325C98.0032 89.305 98.0415 89.295 98.0815 89.295ZM101.695 85.79C102.075 85.79 102.42 85.8517 102.73 85.975C103.044 86.0983 103.31 86.2733 103.53 86.5C103.754 86.7267 103.925 87.0033 104.045 87.33C104.165 87.6567 104.225 88.0217 104.225 88.425C104.225 88.8317 104.165 89.1983 104.045 89.525C103.925 89.8517 103.754 90.13 103.53 90.36C103.31 90.59 103.044 90.7667 102.73 90.89C102.42 91.0133 102.075 91.075 101.695 91.075C101.312 91.075 100.964 91.0133 100.65 90.89C100.337 90.7667 100.069 90.59 99.8454 90.36C99.6254 90.13 99.4538 89.8517 99.3304 89.525C99.2104 89.1983 99.1504 88.8317 99.1504 88.425C99.1504 88.0217 99.2104 87.6567 99.3304 87.33C99.4538 87.0033 99.6254 86.7267 99.8454 86.5C100.069 86.2733 100.337 86.0983 100.65 85.975C100.964 85.8517 101.312 85.79 101.695 85.79ZM101.695 90.125C102.122 90.125 102.437 89.9817 102.64 89.695C102.847 89.4083 102.95 88.9883 102.95 88.435C102.95 87.8817 102.847 87.46 102.64 87.17C102.437 86.88 102.122 86.735 101.695 86.735C101.262 86.735 100.94 86.8817 100.73 87.175C100.524 87.465 100.42 87.885 100.42 88.435C100.42 88.985 100.524 89.405 100.73 89.695C100.94 89.9817 101.262 90.125 101.695 90.125ZM105.168 91V85.87H105.923C106.083 85.87 106.188 85.945 106.238 86.095L106.318 86.475C106.408 86.375 106.501 86.2833 106.598 86.2C106.698 86.1167 106.803 86.045 106.913 85.985C107.026 85.925 107.146 85.8783 107.273 85.845C107.403 85.8083 107.544 85.79 107.698 85.79C108.021 85.79 108.286 85.8783 108.493 86.055C108.703 86.2283 108.859 86.46 108.963 86.75C109.043 86.58 109.143 86.435 109.263 86.315C109.383 86.1917 109.514 86.0917 109.658 86.015C109.801 85.9383 109.953 85.8817 110.113 85.845C110.276 85.8083 110.439 85.79 110.603 85.79C110.886 85.79 111.138 85.8333 111.358 85.92C111.578 86.0067 111.763 86.1333 111.913 86.3C112.063 86.4667 112.176 86.67 112.253 86.91C112.333 87.15 112.373 87.425 112.373 87.735V91H111.138V87.735C111.138 87.4083 111.066 87.1633 110.923 87C110.779 86.8333 110.569 86.75 110.293 86.75C110.166 86.75 110.048 86.7717 109.938 86.815C109.831 86.8583 109.736 86.9217 109.653 87.005C109.573 87.085 109.509 87.1867 109.463 87.31C109.416 87.4333 109.393 87.575 109.393 87.735V91H108.153V87.735C108.153 87.3917 108.083 87.1417 107.943 86.985C107.806 86.8283 107.604 86.75 107.338 86.75C107.158 86.75 106.989 86.795 106.833 86.885C106.679 86.9717 106.536 87.0917 106.403 87.245V91H105.168ZM114.782 89.67C114.922 89.84 115.073 89.96 115.237 90.03C115.403 90.1 115.583 90.135 115.777 90.135C115.963 90.135 116.132 90.1 116.282 90.03C116.432 89.96 116.558 89.8533 116.662 89.71C116.768 89.5667 116.85 89.3867 116.907 89.17C116.963 88.95 116.992 88.6917 116.992 88.395C116.992 88.095 116.967 87.8417 116.917 87.635C116.87 87.425 116.802 87.255 116.712 87.125C116.622 86.995 116.512 86.9 116.382 86.84C116.255 86.78 116.11 86.75 115.947 86.75C115.69 86.75 115.472 86.805 115.292 86.915C115.112 87.0217 114.942 87.1733 114.782 87.37V89.67ZM114.717 86.57C114.927 86.3333 115.165 86.1417 115.432 85.995C115.698 85.8483 116.012 85.775 116.372 85.775C116.652 85.775 116.907 85.8333 117.137 85.95C117.37 86.0667 117.57 86.2367 117.737 86.46C117.907 86.68 118.037 86.9533 118.127 87.28C118.22 87.6033 118.267 87.975 118.267 88.395C118.267 88.7783 118.215 89.1333 118.112 89.46C118.008 89.7867 117.86 90.07 117.667 90.31C117.477 90.55 117.245 90.7383 116.972 90.875C116.702 91.0083 116.398 91.075 116.062 91.075C115.775 91.075 115.53 91.0317 115.327 90.945C115.123 90.855 114.942 90.7317 114.782 90.575V92.675H113.547V85.87H114.302C114.462 85.87 114.567 85.945 114.617 86.095L114.717 86.57ZM121.5 85.79C121.88 85.79 122.225 85.8517 122.535 85.975C122.848 86.0983 123.115 86.2733 123.335 86.5C123.558 86.7267 123.73 87.0033 123.85 87.33C123.97 87.6567 124.03 88.0217 124.03 88.425C124.03 88.8317 123.97 89.1983 123.85 89.525C123.73 89.8517 123.558 90.13 123.335 90.36C123.115 90.59 122.848 90.7667 122.535 90.89C122.225 91.0133 121.88 91.075 121.5 91.075C121.117 91.075 120.768 91.0133 120.455 90.89C120.142 90.7667 119.873 90.59 119.65 90.36C119.43 90.13 119.258 89.8517 119.135 89.525C119.015 89.1983 118.955 88.8317 118.955 88.425C118.955 88.0217 119.015 87.6567 119.135 87.33C119.258 87.0033 119.43 86.7267 119.65 86.5C119.873 86.2733 120.142 86.0983 120.455 85.975C120.768 85.8517 121.117 85.79 121.5 85.79ZM121.5 90.125C121.927 90.125 122.242 89.9817 122.445 89.695C122.652 89.4083 122.755 88.9883 122.755 88.435C122.755 87.8817 122.652 87.46 122.445 87.17C122.242 86.88 121.927 86.735 121.5 86.735C121.067 86.735 120.745 86.8817 120.535 87.175C120.328 87.465 120.225 87.885 120.225 88.435C120.225 88.985 120.328 89.405 120.535 89.695C120.745 89.9817 121.067 90.125 121.5 90.125ZM126.127 86.5C126.231 86.3967 126.339 86.3017 126.452 86.215C126.569 86.125 126.691 86.05 126.817 85.99C126.947 85.9267 127.086 85.8783 127.232 85.845C127.379 85.8083 127.539 85.79 127.712 85.79C127.992 85.79 128.241 85.8383 128.457 85.935C128.674 86.0283 128.854 86.1617 128.997 86.335C129.144 86.505 129.254 86.71 129.327 86.95C129.404 87.1867 129.442 87.4483 129.442 87.735V91H128.207V87.735C128.207 87.4217 128.136 87.18 127.992 87.01C127.849 86.8367 127.631 86.75 127.337 86.75C127.124 86.75 126.924 86.7983 126.737 86.895C126.551 86.9917 126.374 87.1233 126.207 87.29V91H124.972V85.87H125.727C125.887 85.87 125.992 85.945 126.042 86.095L126.127 86.5ZM133.922 87.845C133.922 87.685 133.899 87.535 133.852 87.395C133.809 87.2517 133.742 87.1267 133.652 87.02C133.562 86.9133 133.447 86.83 133.307 86.77C133.17 86.7067 133.01 86.675 132.827 86.675C132.47 86.675 132.189 86.7767 131.982 86.98C131.779 87.1833 131.649 87.4717 131.592 87.845H133.922ZM131.567 88.59C131.587 88.8533 131.634 89.0817 131.707 89.275C131.78 89.465 131.877 89.6233 131.997 89.75C132.117 89.8733 132.259 89.9667 132.422 90.03C132.589 90.09 132.772 90.12 132.972 90.12C133.172 90.12 133.344 90.0967 133.487 90.05C133.634 90.0033 133.76 89.9517 133.867 89.895C133.977 89.8383 134.072 89.7867 134.152 89.74C134.235 89.6933 134.315 89.67 134.392 89.67C134.495 89.67 134.572 89.7083 134.622 89.785L134.977 90.235C134.84 90.395 134.687 90.53 134.517 90.64C134.347 90.7467 134.169 90.8333 133.982 90.9C133.799 90.9633 133.61 91.0083 133.417 91.035C133.227 91.0617 133.042 91.075 132.862 91.075C132.505 91.075 132.174 91.0167 131.867 90.9C131.56 90.78 131.294 90.605 131.067 90.375C130.84 90.1417 130.662 89.855 130.532 89.515C130.402 89.1717 130.337 88.775 130.337 88.325C130.337 87.975 130.394 87.6467 130.507 87.34C130.62 87.03 130.782 86.7617 130.992 86.535C131.205 86.305 131.464 86.1233 131.767 85.99C132.074 85.8567 132.419 85.79 132.802 85.79C133.125 85.79 133.424 85.8417 133.697 85.945C133.97 86.0483 134.205 86.2 134.402 86.4C134.599 86.5967 134.752 86.84 134.862 87.13C134.975 87.4167 135.032 87.745 135.032 88.115C135.032 88.3017 135.012 88.4283 134.972 88.495C134.932 88.5583 134.855 88.59 134.742 88.59H131.567ZM137.114 86.5C137.217 86.3967 137.325 86.3017 137.439 86.215C137.555 86.125 137.677 86.05 137.804 85.99C137.934 85.9267 138.072 85.8783 138.219 85.845C138.365 85.8083 138.525 85.79 138.699 85.79C138.979 85.79 139.227 85.8383 139.444 85.935C139.66 86.0283 139.84 86.1617 139.984 86.335C140.13 86.505 140.24 86.71 140.314 86.95C140.39 87.1867 140.429 87.4483 140.429 87.735V91H139.194V87.735C139.194 87.4217 139.122 87.18 138.979 87.01C138.835 86.8367 138.617 86.75 138.324 86.75C138.11 86.75 137.91 86.7983 137.724 86.895C137.537 86.9917 137.36 87.1233 137.194 87.29V91H135.959V85.87H136.714C136.874 85.87 136.979 85.945 137.029 86.095L137.114 86.5ZM143.245 91.08C142.798 91.08 142.455 90.955 142.215 90.705C141.978 90.4517 141.86 90.1033 141.86 89.66V86.795H141.335C141.268 86.795 141.211 86.7733 141.165 86.73C141.118 86.6867 141.095 86.6217 141.095 86.535V86.045L141.92 85.91L142.18 84.51C142.196 84.4433 142.228 84.3917 142.275 84.355C142.321 84.3183 142.381 84.3 142.455 84.3H143.095V85.915H144.465V86.795H143.095V89.575C143.095 89.735 143.133 89.86 143.21 89.95C143.29 90.04 143.398 90.085 143.535 90.085C143.611 90.085 143.675 90.0767 143.725 90.06C143.778 90.04 143.823 90.02 143.86 90C143.9 89.98 143.935 89.9617 143.965 89.945C143.995 89.925 144.025 89.915 144.055 89.915C144.091 89.915 144.121 89.925 144.145 89.945C144.168 89.9617 144.193 89.9883 144.22 90.025L144.59 90.625C144.41 90.775 144.203 90.8883 143.97 90.965C143.736 91.0417 143.495 91.08 143.245 91.08ZM151.37 88.27L150.49 85.865C150.447 85.7583 150.402 85.6317 150.355 85.485C150.308 85.3383 150.262 85.18 150.215 85.01C150.172 85.18 150.127 85.34 150.08 85.49C150.033 85.6367 149.988 85.765 149.945 85.875L149.07 88.27H151.37ZM153.745 91H152.705C152.588 91 152.493 90.9717 152.42 90.915C152.347 90.855 152.292 90.7817 152.255 90.695L151.715 89.22H148.72L148.18 90.695C148.153 90.7717 148.102 90.8417 148.025 90.905C147.948 90.9683 147.853 91 147.74 91H146.69L149.535 83.77H150.905L153.745 91Z" fill="white"/>
<rect x="73.5" y="37.5" width="99" height="99" rx="19.5" stroke="white"/>
<rect x="53.5" y="17.5" width="379" height="139" rx="24.5" stroke="white"/>
<path d="M458.056 79.085C458.016 79.155 457.973 79.2067 457.926 79.24C457.883 79.27 457.828 79.285 457.761 79.285C457.691 79.285 457.615 79.26 457.531 79.21C457.451 79.1567 457.355 79.0983 457.241 79.035C457.128 78.9717 456.995 78.915 456.841 78.865C456.691 78.8117 456.513 78.785 456.306 78.785C456.12 78.785 455.956 78.8083 455.816 78.855C455.676 78.8983 455.558 78.96 455.461 79.04C455.368 79.12 455.298 79.2167 455.251 79.33C455.205 79.44 455.181 79.5617 455.181 79.695C455.181 79.865 455.228 80.0067 455.321 80.12C455.418 80.2333 455.545 80.33 455.701 80.41C455.858 80.49 456.036 80.5617 456.236 80.625C456.436 80.6883 456.641 80.7567 456.851 80.83C457.061 80.9 457.266 80.9833 457.466 81.08C457.666 81.1733 457.845 81.2933 458.001 81.44C458.158 81.5833 458.283 81.76 458.376 81.97C458.473 82.18 458.521 82.435 458.521 82.735C458.521 83.0617 458.465 83.3683 458.351 83.655C458.241 83.9383 458.078 84.1867 457.861 84.4C457.648 84.61 457.386 84.7767 457.076 84.9C456.766 85.02 456.411 85.08 456.011 85.08C455.781 85.08 455.555 85.0567 455.331 85.01C455.108 84.9667 454.893 84.9033 454.686 84.82C454.483 84.7367 454.291 84.6367 454.111 84.52C453.931 84.4033 453.771 84.2733 453.631 84.13L454.026 83.485C454.06 83.4383 454.103 83.4 454.156 83.37C454.21 83.3367 454.266 83.32 454.326 83.32C454.41 83.32 454.5 83.355 454.596 83.425C454.693 83.4917 454.808 83.5667 454.941 83.65C455.075 83.7333 455.23 83.81 455.406 83.88C455.586 83.9467 455.801 83.98 456.051 83.98C456.435 83.98 456.731 83.89 456.941 83.71C457.151 83.5267 457.256 83.265 457.256 82.925C457.256 82.735 457.208 82.58 457.111 82.46C457.018 82.34 456.893 82.24 456.736 82.16C456.58 82.0767 456.401 82.0067 456.201 81.95C456.001 81.8933 455.798 81.8317 455.591 81.765C455.385 81.6983 455.181 81.6183 454.981 81.525C454.781 81.4317 454.603 81.31 454.446 81.16C454.29 81.01 454.163 80.8233 454.066 80.6C453.973 80.3733 453.926 80.095 453.926 79.765C453.926 79.5017 453.978 79.245 454.081 78.995C454.188 78.745 454.341 78.5233 454.541 78.33C454.741 78.1367 454.988 77.9817 455.281 77.865C455.575 77.7483 455.911 77.69 456.291 77.69C456.718 77.69 457.111 77.7567 457.471 77.89C457.831 78.0233 458.138 78.21 458.391 78.45L458.056 79.085ZM463.906 79.87L461.111 86.41C461.074 86.4967 461.026 86.5617 460.966 86.605C460.909 86.6517 460.821 86.675 460.701 86.675H459.781L460.741 84.615L458.666 79.87H459.751C459.847 79.87 459.922 79.8933 459.976 79.94C460.032 79.9867 460.074 80.04 460.101 80.1L461.191 82.76C461.227 82.85 461.257 82.94 461.281 83.03C461.307 83.12 461.332 83.2117 461.356 83.305C461.386 83.2117 461.416 83.12 461.446 83.03C461.476 82.9367 461.509 82.845 461.546 82.755L462.576 80.1C462.602 80.0333 462.646 79.9783 462.706 79.935C462.769 79.8917 462.839 79.87 462.916 79.87H463.906ZM467.542 80.87C467.508 80.9233 467.473 80.9617 467.437 80.985C467.4 81.005 467.353 81.015 467.297 81.015C467.237 81.015 467.172 80.9983 467.102 80.965C467.035 80.9317 466.957 80.895 466.867 80.855C466.777 80.8117 466.673 80.7733 466.557 80.74C466.443 80.7067 466.308 80.69 466.152 80.69C465.908 80.69 465.717 80.7417 465.577 80.845C465.44 80.9483 465.372 81.0833 465.372 81.25C465.372 81.36 465.407 81.4533 465.477 81.53C465.55 81.6033 465.645 81.6683 465.762 81.725C465.882 81.7817 466.017 81.8333 466.167 81.88C466.317 81.9233 466.468 81.9717 466.622 82.025C466.778 82.0783 466.932 82.14 467.082 82.21C467.232 82.2767 467.365 82.3633 467.482 82.47C467.602 82.5733 467.697 82.6983 467.767 82.845C467.84 82.9917 467.877 83.1683 467.877 83.375C467.877 83.6217 467.832 83.85 467.742 84.06C467.655 84.2667 467.525 84.4467 467.352 84.6C467.178 84.75 466.963 84.8683 466.707 84.955C466.453 85.0383 466.16 85.08 465.827 85.08C465.65 85.08 465.477 85.0633 465.307 85.03C465.14 85 464.978 84.9567 464.822 84.9C464.668 84.8433 464.525 84.7767 464.392 84.7C464.262 84.6233 464.147 84.54 464.047 84.45L464.332 83.98C464.368 83.9233 464.412 83.88 464.462 83.85C464.512 83.82 464.575 83.805 464.652 83.805C464.728 83.805 464.8 83.8267 464.867 83.87C464.937 83.9133 465.017 83.96 465.107 84.01C465.197 84.06 465.302 84.1067 465.422 84.15C465.545 84.1933 465.7 84.215 465.887 84.215C466.033 84.215 466.158 84.1983 466.262 84.165C466.368 84.1283 466.455 84.0817 466.522 84.025C466.592 83.9683 466.642 83.9033 466.672 83.83C466.705 83.7533 466.722 83.675 466.722 83.595C466.722 83.475 466.685 83.3767 466.612 83.3C466.542 83.2233 466.447 83.1567 466.327 83.1C466.21 83.0433 466.075 82.9933 465.922 82.95C465.772 82.9033 465.617 82.8533 465.457 82.8C465.3 82.7467 465.145 82.685 464.992 82.615C464.842 82.5417 464.707 82.45 464.587 82.34C464.47 82.23 464.375 82.095 464.302 81.935C464.232 81.775 464.197 81.5817 464.197 81.355C464.197 81.145 464.238 80.945 464.322 80.755C464.405 80.565 464.527 80.4 464.687 80.26C464.85 80.1167 465.052 80.0033 465.292 79.92C465.535 79.8333 465.815 79.79 466.132 79.79C466.485 79.79 466.807 79.8483 467.097 79.965C467.387 80.0817 467.628 80.235 467.822 80.425L467.542 80.87ZM470.516 85.08C470.07 85.08 469.726 84.955 469.486 84.705C469.25 84.4517 469.131 84.1033 469.131 83.66V80.795H468.606C468.54 80.795 468.483 80.7733 468.436 80.73C468.39 80.6867 468.366 80.6217 468.366 80.535V80.045L469.191 79.91L469.451 78.51C469.468 78.4433 469.5 78.3917 469.546 78.355C469.593 78.3183 469.653 78.3 469.726 78.3H470.366V79.915H471.736V80.795H470.366V83.575C470.366 83.735 470.405 83.86 470.481 83.95C470.561 84.04 470.67 84.085 470.806 84.085C470.883 84.085 470.946 84.0767 470.996 84.06C471.05 84.04 471.095 84.02 471.131 84C471.171 83.98 471.206 83.9617 471.236 83.945C471.266 83.925 471.296 83.915 471.326 83.915C471.363 83.915 471.393 83.925 471.416 83.945C471.44 83.9617 471.465 83.9883 471.491 84.025L471.861 84.625C471.681 84.775 471.475 84.8883 471.241 84.965C471.008 85.0417 470.766 85.08 470.516 85.08ZM475.793 81.845C475.793 81.685 475.77 81.535 475.723 81.395C475.68 81.2517 475.613 81.1267 475.523 81.02C475.433 80.9133 475.318 80.83 475.178 80.77C475.041 80.7067 474.881 80.675 474.698 80.675C474.341 80.675 474.06 80.7767 473.853 80.98C473.65 81.1833 473.52 81.4717 473.463 81.845H475.793ZM473.438 82.59C473.458 82.8533 473.505 83.0817 473.578 83.275C473.651 83.465 473.748 83.6233 473.868 83.75C473.988 83.8733 474.13 83.9667 474.293 84.03C474.46 84.09 474.643 84.12 474.843 84.12C475.043 84.12 475.215 84.0967 475.358 84.05C475.505 84.0033 475.631 83.9517 475.738 83.895C475.848 83.8383 475.943 83.7867 476.023 83.74C476.106 83.6933 476.186 83.67 476.263 83.67C476.366 83.67 476.443 83.7083 476.493 83.785L476.848 84.235C476.711 84.395 476.558 84.53 476.388 84.64C476.218 84.7467 476.04 84.8333 475.853 84.9C475.67 84.9633 475.481 85.0083 475.288 85.035C475.098 85.0617 474.913 85.075 474.733 85.075C474.376 85.075 474.045 85.0167 473.738 84.9C473.431 84.78 473.165 84.605 472.938 84.375C472.711 84.1417 472.533 83.855 472.403 83.515C472.273 83.1717 472.208 82.775 472.208 82.325C472.208 81.975 472.265 81.6467 472.378 81.34C472.491 81.03 472.653 80.7617 472.863 80.535C473.076 80.305 473.335 80.1233 473.638 79.99C473.945 79.8567 474.29 79.79 474.673 79.79C474.996 79.79 475.295 79.8417 475.568 79.945C475.841 80.0483 476.076 80.2 476.273 80.4C476.47 80.5967 476.623 80.84 476.733 81.13C476.846 81.4167 476.903 81.745 476.903 82.115C476.903 82.3017 476.883 82.4283 476.843 82.495C476.803 82.5583 476.726 82.59 476.613 82.59H473.438ZM477.83 85V79.87H478.585C478.745 79.87 478.85 79.945 478.9 80.095L478.98 80.475C479.07 80.375 479.163 80.2833 479.26 80.2C479.36 80.1167 479.465 80.045 479.575 79.985C479.688 79.925 479.808 79.8783 479.935 79.845C480.065 79.8083 480.206 79.79 480.36 79.79C480.683 79.79 480.948 79.8783 481.155 80.055C481.365 80.2283 481.521 80.46 481.625 80.75C481.705 80.58 481.805 80.435 481.925 80.315C482.045 80.1917 482.176 80.0917 482.32 80.015C482.463 79.9383 482.615 79.8817 482.775 79.845C482.938 79.8083 483.101 79.79 483.265 79.79C483.548 79.79 483.8 79.8333 484.02 79.92C484.24 80.0067 484.425 80.1333 484.575 80.3C484.725 80.4667 484.838 80.67 484.915 80.91C484.995 81.15 485.035 81.425 485.035 81.735V85H483.8V81.735C483.8 81.4083 483.728 81.1633 483.585 81C483.441 80.8333 483.231 80.75 482.955 80.75C482.828 80.75 482.71 80.7717 482.6 80.815C482.493 80.8583 482.398 80.9217 482.315 81.005C482.235 81.085 482.171 81.1867 482.125 81.31C482.078 81.4333 482.055 81.575 482.055 81.735V85H480.815V81.735C480.815 81.3917 480.745 81.1417 480.605 80.985C480.468 80.8283 480.266 80.75 480 80.75C479.82 80.75 479.651 80.795 479.495 80.885C479.341 80.9717 479.198 81.0917 479.065 81.245V85H477.83ZM460.989 93.385C460.989 93.915 460.901 94.4067 460.724 94.86C460.551 95.31 460.304 95.7 459.984 96.03C459.664 96.36 459.279 96.6183 458.829 96.805C458.379 96.9883 457.879 97.08 457.329 97.08C456.782 97.08 456.284 96.9883 455.834 96.805C455.384 96.6183 454.997 96.36 454.674 96.03C454.354 95.7 454.106 95.31 453.929 94.86C453.752 94.4067 453.664 93.915 453.664 93.385C453.664 92.855 453.752 92.365 453.929 91.915C454.106 91.4617 454.354 91.07 454.674 90.74C454.997 90.41 455.384 90.1533 455.834 89.97C456.284 89.7833 456.782 89.69 457.329 89.69C457.696 89.69 458.041 89.7333 458.364 89.82C458.687 89.9033 458.984 90.0233 459.254 90.18C459.524 90.3333 459.766 90.5217 459.979 90.745C460.196 90.965 460.379 91.2117 460.529 91.485C460.679 91.7583 460.792 92.055 460.869 92.375C460.949 92.695 460.989 93.0317 460.989 93.385ZM459.614 93.385C459.614 92.9883 459.561 92.6333 459.454 92.32C459.347 92.0033 459.196 91.735 458.999 91.515C458.802 91.295 458.562 91.1267 458.279 91.01C457.999 90.8933 457.682 90.835 457.329 90.835C456.976 90.835 456.657 90.8933 456.374 91.01C456.094 91.1267 455.854 91.295 455.654 91.515C455.457 91.735 455.306 92.0033 455.199 92.32C455.092 92.6333 455.039 92.9883 455.039 93.385C455.039 93.7817 455.092 94.1383 455.199 94.455C455.306 94.7683 455.457 95.035 455.654 95.255C455.854 95.4717 456.094 95.6383 456.374 95.755C456.657 95.8717 456.976 95.93 457.329 95.93C457.682 95.93 457.999 95.8717 458.279 95.755C458.562 95.6383 458.802 95.4717 458.999 95.255C459.196 95.035 459.347 94.7683 459.454 94.455C459.561 94.1383 459.614 93.7817 459.614 93.385ZM466.327 91.87V97H465.572C465.409 97 465.305 96.925 465.262 96.775L465.177 96.365C464.967 96.5783 464.735 96.7517 464.482 96.885C464.229 97.015 463.93 97.08 463.587 97.08C463.307 97.08 463.059 97.0333 462.842 96.94C462.629 96.8433 462.449 96.7083 462.302 96.535C462.155 96.3617 462.044 96.1567 461.967 95.92C461.894 95.68 461.857 95.4167 461.857 95.13V91.87H463.092V95.13C463.092 95.4433 463.164 95.6867 463.307 95.86C463.454 96.03 463.672 96.115 463.962 96.115C464.175 96.115 464.375 96.0683 464.562 95.975C464.749 95.8783 464.925 95.7467 465.092 95.58V91.87H466.327ZM469.261 97.08C468.815 97.08 468.471 96.955 468.231 96.705C467.995 96.4517 467.876 96.1033 467.876 95.66V92.795H467.351C467.285 92.795 467.228 92.7733 467.181 92.73C467.135 92.6867 467.111 92.6217 467.111 92.535V92.045L467.936 91.91L468.196 90.51C468.213 90.4433 468.245 90.3917 468.291 90.355C468.338 90.3183 468.398 90.3 468.471 90.3H469.111V91.915H470.481V92.795H469.111V95.575C469.111 95.735 469.15 95.86 469.226 95.95C469.306 96.04 469.415 96.085 469.551 96.085C469.628 96.085 469.691 96.0767 469.741 96.06C469.795 96.04 469.84 96.02 469.876 96C469.916 95.98 469.951 95.9617 469.981 95.945C470.011 95.925 470.041 95.915 470.071 95.915C470.108 95.915 470.138 95.925 470.161 95.945C470.185 95.9617 470.21 95.9883 470.236 96.025L470.606 96.625C470.426 96.775 470.22 96.8883 469.986 96.965C469.753 97.0417 469.511 97.08 469.261 97.08ZM472.507 95.67C472.647 95.84 472.799 95.96 472.962 96.03C473.129 96.1 473.309 96.135 473.502 96.135C473.689 96.135 473.857 96.1 474.007 96.03C474.157 95.96 474.284 95.8533 474.387 95.71C474.494 95.5667 474.575 95.3867 474.632 95.17C474.689 94.95 474.717 94.6917 474.717 94.395C474.717 94.095 474.692 93.8417 474.642 93.635C474.595 93.425 474.527 93.255 474.437 93.125C474.347 92.995 474.237 92.9 474.107 92.84C473.98 92.78 473.835 92.75 473.672 92.75C473.415 92.75 473.197 92.805 473.017 92.915C472.837 93.0217 472.667 93.1733 472.507 93.37V95.67ZM472.442 92.57C472.652 92.3333 472.89 92.1417 473.157 91.995C473.424 91.8483 473.737 91.775 474.097 91.775C474.377 91.775 474.632 91.8333 474.862 91.95C475.095 92.0667 475.295 92.2367 475.462 92.46C475.632 92.68 475.762 92.9533 475.852 93.28C475.945 93.6033 475.992 93.975 475.992 94.395C475.992 94.7783 475.94 95.1333 475.837 95.46C475.734 95.7867 475.585 96.07 475.392 96.31C475.202 96.55 474.97 96.7383 474.697 96.875C474.427 97.0083 474.124 97.075 473.787 97.075C473.5 97.075 473.255 97.0317 473.052 96.945C472.849 96.855 472.667 96.7317 472.507 96.575V98.675H471.272V91.87H472.027C472.187 91.87 472.292 91.945 472.342 92.095L472.442 92.57ZM481.376 91.87V97H480.621C480.457 97 480.354 96.925 480.311 96.775L480.226 96.365C480.016 96.5783 479.784 96.7517 479.531 96.885C479.277 97.015 478.979 97.08 478.636 97.08C478.356 97.08 478.107 97.0333 477.891 96.94C477.677 96.8433 477.497 96.7083 477.351 96.535C477.204 96.3617 477.092 96.1567 477.016 95.92C476.942 95.68 476.906 95.4167 476.906 95.13V91.87H478.141V95.13C478.141 95.4433 478.212 95.6867 478.356 95.86C478.502 96.03 478.721 96.115 479.011 96.115C479.224 96.115 479.424 96.0683 479.611 95.975C479.797 95.8783 479.974 95.7467 480.141 95.58V91.87H481.376ZM484.31 97.08C483.864 97.08 483.52 96.955 483.28 96.705C483.044 96.4517 482.925 96.1033 482.925 95.66V92.795H482.4C482.334 92.795 482.277 92.7733 482.23 92.73C482.184 92.6867 482.16 92.6217 482.16 92.535V92.045L482.985 91.91L483.245 90.51C483.262 90.4433 483.294 90.3917 483.34 90.355C483.387 90.3183 483.447 90.3 483.52 90.3H484.16V91.915H485.53V92.795H484.16V95.575C484.16 95.735 484.199 95.86 484.275 95.95C484.355 96.04 484.464 96.085 484.6 96.085C484.677 96.085 484.74 96.0767 484.79 96.06C484.844 96.04 484.889 96.02 484.925 96C484.965 95.98 485 95.9617 485.03 95.945C485.06 95.925 485.09 95.915 485.12 95.915C485.157 95.915 485.187 95.925 485.21 95.945C485.234 95.9617 485.259 95.9883 485.285 96.025L485.655 96.625C485.475 96.775 485.269 96.8883 485.035 96.965C484.802 97.0417 484.56 97.08 484.31 97.08Z" fill="white"/>
</g>
<defs>
<clipPath id="clip0_2236_1045">
<rect width="486" height="157" fill="white"/>
</clipPath>
</defs>
</svg>
