<svg width="268" height="48" viewBox="0 0 268 48" fill="none" xmlns="http://www.w3.org/2000/svg">
<path d="M5.27559 2.38931H14.3553V10.4959H20.8698V16.9322H14.3553V30.2123C14.3553 33.0231 15.251 33.5527 18.264 33.5527H20.8698V40.1113H15.0881C7.75927 40.1113 5.27559 38.6855 5.27559 31.801V16.9322H0.593262V10.4959H5.27559V2.38931Z" fill="white"/>
<path d="M51.6105 30.8641C48.964 37.8708 42.7344 40.8853 36.8306 40.8853C27.1809 40.8853 20.585 35.06 20.585 25.161C20.585 15.6694 27.7917 9.64041 36.4642 9.64041C46.3174 9.64041 52.3434 17.0952 51.7327 27.6459H29.7461C30.0311 31.8825 33.2883 33.7971 36.5863 33.7971C40.0472 33.7971 42.2051 32.575 43.2637 30.8234L51.6105 30.8641ZM29.8682 22.1465H42.6937C42.5309 18.3987 39.925 16.5656 36.4642 16.5656C33.2069 16.5656 30.3568 18.2358 29.8682 22.1465Z" fill="white"/>
<path d="M82.921 21.3725H74.452C73.6377 17.9099 71.4798 16.6878 68.7925 16.6878C65.5353 16.6878 62.3594 18.8876 62.3594 25.2425C62.3594 31.6788 65.576 33.8379 68.7925 33.8379C72.1312 33.8379 74.2077 32.0862 74.8592 29.2754H83.3281C81.2923 38.0745 74.167 40.8853 68.2225 40.8853C58.4507 40.8853 53.0762 34.6119 53.0762 25.161C53.0762 15.7101 59.265 9.64041 68.2225 9.64041C74.3706 9.64041 81.1295 12.4105 82.921 21.3725Z" fill="white"/>
<path d="M93.4257 14.4066C94.7286 12.2068 97.9451 9.84409 102.627 9.84409C110.241 9.84409 112.603 14.3251 112.603 22.3502V40.152H103.523V24.6314C103.523 20.3948 103.401 16.9322 99.0037 16.9322C95.095 16.9322 93.4664 19.4579 93.4664 24.998V40.1927H84.3867V0.230286H93.4664V14.4066H93.4257Z" fill="white"/>
<path d="M133.49 19.2135C132.879 17.0137 130.559 16.3619 127.709 16.3619C124.573 16.3619 122.986 17.0952 122.986 18.5617C122.986 19.9467 124.044 20.7207 126.609 21.2096L132.147 22.1872C139.272 23.4908 142.651 25.6091 142.651 30.8234C142.651 37.5042 136.544 40.8445 128.319 40.8445C120.42 40.8445 114.842 37.5042 113.784 30.4975H122.212C123.026 33.349 125.306 34.2452 128.441 34.2452C131.699 34.2452 133.938 33.349 133.938 31.5974C133.938 30.2938 132.798 29.4383 129.296 28.8273L124.003 27.9311C118.262 26.9941 114.354 24.1019 114.354 18.8469C114.354 12.9401 120.583 9.68115 127.912 9.68115C134.671 9.68115 140.819 12.3698 141.959 19.1727H133.49V19.2135Z" fill="white"/>
<path d="M147.374 2.38931H156.454V10.4959H162.968V16.9322H156.454V30.2123C156.454 33.0231 157.35 33.5527 160.363 33.5527H162.928V40.1113H157.187C149.858 40.1113 147.374 38.6855 147.374 31.801V16.9322H142.692V10.4959H147.374V2.38931Z" fill="white"/>
<path d="M183.652 20.4763C183.652 16.9322 181.942 15.7509 178.644 15.7509C175.712 15.7509 173.758 17.2581 173.351 20.1097H164.882C165.33 14.5288 170.623 9.59967 179.418 9.59967C187.968 9.59967 192.813 13.0623 192.65 22.065L192.528 28.5014V31.5974C192.528 34.8563 192.732 38.3596 193.18 40.1927H184.263L184.141 36.6079C181.942 39.7446 178.4 40.926 174.165 40.926C168.546 40.926 163.905 37.6263 163.905 32.2084C163.905 24.9166 172.129 22.5539 183.611 21.6984L183.652 20.4763ZM183.896 26.9941C177.545 27.6052 173.31 28.257 173.31 31.5159C173.31 33.4305 175.142 34.6933 177.504 34.6933C181.128 34.6933 183.896 33.1453 183.896 27.6867V26.9941Z" fill="white"/>
<path d="M213.375 19.2135C212.561 19.0913 211.706 19.0098 210.891 19.0505C206.494 19.0505 204.214 20.6392 204.214 25.2832V40.152H195.134V10.4959H203.888V16.1175C205.273 12.5734 207.756 10.4551 211.991 10.2922H212.642C212.886 10.2922 213.131 10.2922 213.375 10.3329V19.2135Z" fill="white"/>
<path d="M233.448 19.2135C232.837 17.0137 230.516 16.3619 227.666 16.3619C224.531 16.3619 222.943 17.0952 222.943 18.5617C222.943 19.9467 224.002 20.7207 226.567 21.2096L232.064 22.1872C239.189 23.4908 242.568 25.6091 242.568 30.8234C242.568 37.5042 236.461 40.8445 228.236 40.8445C220.378 40.8445 214.719 37.5042 213.701 30.4975H222.129C222.943 33.349 225.223 34.2452 228.358 34.2452C231.616 34.2452 233.855 33.349 233.855 31.5974C233.855 30.2938 232.715 29.4383 229.213 28.8273L223.92 27.9311C218.179 26.9941 214.311 24.1019 214.311 18.8469C214.311 12.9401 220.541 9.68115 227.87 9.68115C234.629 9.68115 240.777 12.3698 241.917 19.1727H233.448V19.2135Z" fill="white"/>
<path d="M242.487 47.8105V40.152H266.998V47.8105H242.487Z" fill="#39C463"/>
</svg>
