<svg width="282" height="81" viewBox="0 0 282 81" fill="none" xmlns="http://www.w3.org/2000/svg">
<path d="M29.3525 71.9733C27.3792 71.9733 25.6325 71.6933 24.1125 71.1333C22.6192 70.5467 21.3525 69.7333 20.3125 68.6933C19.2992 67.6267 18.5258 66.3467 17.9925 64.8533C17.4592 63.36 17.1925 61.6933 17.1925 59.8533V38.4133H13.6725C13.0325 38.4133 12.4858 38.2133 12.0325 37.8133C11.5792 37.3867 11.3525 36.7733 11.3525 35.9733V31.1333L17.9525 29.8533L20.3925 19.7333C20.7125 18.4533 21.6192 17.8133 23.1125 17.8133H29.5925V29.9333H39.8725V38.4133H29.5925V59.0133C29.5925 59.9733 29.8192 60.7733 30.2725 61.4133C30.7525 62.0267 31.4325 62.3333 32.3125 62.3333C32.7658 62.3333 33.1392 62.2933 33.4325 62.2133C33.7525 62.1067 34.0192 62 34.2325 61.8933C34.4725 61.76 34.6858 61.6533 34.8725 61.5733C35.0858 61.4667 35.3258 61.4133 35.5925 61.4133C35.9658 61.4133 36.2592 61.5067 36.4725 61.6933C36.7125 61.8533 36.9525 62.12 37.1925 62.4933L40.9525 68.3733C39.3525 69.5733 37.5525 70.48 35.5525 71.0933C33.5525 71.68 31.4858 71.9733 29.3525 71.9733ZM59.945 29.2133C63.0917 29.2133 65.9583 29.7067 68.545 30.6933C71.1317 31.68 73.345 33.0933 75.185 34.9333C77.0517 36.7733 78.4917 39.0133 79.505 41.6533C80.545 44.2667 81.065 47.2133 81.065 50.4933C81.065 53.8 80.545 56.7867 79.505 59.4533C78.4917 62.0933 77.0517 64.3467 75.185 66.2133C73.345 68.0533 71.1317 69.48 68.545 70.4933C65.9583 71.48 63.0917 71.9733 59.945 71.9733C56.7717 71.9733 53.8783 71.48 51.265 70.4933C48.6783 69.48 46.4383 68.0533 44.545 66.2133C42.6783 64.3467 41.225 62.0933 40.185 59.4533C39.1717 56.7867 38.665 53.8 38.665 50.4933C38.665 47.2133 39.1717 44.2667 40.185 41.6533C41.225 39.0133 42.6783 36.7733 44.545 34.9333C46.4383 33.0933 48.6783 31.68 51.265 30.6933C53.8783 29.7067 56.7717 29.2133 59.945 29.2133ZM59.945 62.7733C62.7983 62.7733 64.8917 61.7733 66.225 59.7733C67.585 57.7467 68.265 54.68 68.265 50.5733C68.265 46.4667 67.585 43.4133 66.225 41.4133C64.8917 39.4133 62.7983 38.4133 59.945 38.4133C57.0117 38.4133 54.865 39.4133 53.505 41.4133C52.145 43.4133 51.465 46.4667 51.465 50.5733C51.465 54.68 52.145 57.7467 53.505 59.7733C54.865 61.7733 57.0117 62.7733 59.945 62.7733ZM120.509 29.8533V71.3333H112.829C111.283 71.3333 110.269 70.64 109.789 69.2533L109.069 66.8533C108.269 67.6267 107.443 68.3333 106.589 68.9733C105.736 69.5867 104.816 70.12 103.829 70.5733C102.869 71 101.816 71.3333 100.669 71.5733C99.5494 71.84 98.3227 71.9733 96.9894 71.9733C94.7227 71.9733 92.7094 71.5867 90.9494 70.8133C89.216 70.0133 87.7494 68.9067 86.5494 67.4933C85.3494 66.08 84.4427 64.4133 83.8294 62.4933C83.216 60.5733 82.9094 58.4667 82.9094 56.1733V29.8533H95.3094V56.1733C95.3094 58.2267 95.776 59.8133 96.7094 60.9333C97.6427 62.0533 99.016 62.6133 100.829 62.6133C102.189 62.6133 103.456 62.3333 104.629 61.7733C105.829 61.1867 106.989 60.4 108.109 59.4133V29.8533H120.509ZM155.414 39.6933C155.041 40.1467 154.681 40.5067 154.334 40.7733C153.988 41.04 153.494 41.1733 152.854 41.1733C152.241 41.1733 151.681 41.0267 151.174 40.7333C150.694 40.44 150.148 40.12 149.534 39.7733C148.921 39.4 148.201 39.0667 147.374 38.7733C146.548 38.48 145.521 38.3333 144.294 38.3333C142.774 38.3333 141.454 38.6133 140.334 39.1733C139.241 39.7333 138.334 40.5333 137.614 41.5733C136.894 42.6133 136.361 43.8933 136.014 45.4133C135.668 46.9067 135.494 48.6 135.494 50.4933C135.494 54.4667 136.254 57.52 137.774 59.6533C139.321 61.7867 141.441 62.8533 144.134 62.8533C145.574 62.8533 146.708 62.68 147.534 62.3333C148.388 61.96 149.108 61.56 149.694 61.1333C150.281 60.68 150.814 60.2667 151.294 59.8933C151.801 59.52 152.428 59.3333 153.174 59.3333C154.161 59.3333 154.908 59.6933 155.414 60.4133L159.014 64.8533C157.734 66.32 156.388 67.52 154.974 68.4533C153.561 69.36 152.108 70.08 150.614 70.6133C149.148 71.12 147.668 71.4667 146.174 71.6533C144.681 71.8667 143.228 71.9733 141.814 71.9733C139.281 71.9733 136.854 71.4933 134.534 70.5333C132.241 69.5733 130.214 68.1867 128.454 66.3733C126.721 64.5333 125.334 62.28 124.294 59.6133C123.281 56.9467 122.774 53.9067 122.774 50.4933C122.774 47.5067 123.214 44.72 124.094 42.1333C125.001 39.52 126.321 37.2667 128.054 35.3733C129.814 33.4533 131.974 31.9467 134.534 30.8533C137.121 29.76 140.108 29.2133 143.494 29.2133C146.748 29.2133 149.601 29.7333 152.054 30.7733C154.508 31.8133 156.721 33.3333 158.694 35.3333L155.414 39.6933ZM181.241 54.4533C178.761 54.56 176.721 54.7733 175.121 55.0933C173.521 55.4133 172.254 55.8133 171.321 56.2933C170.387 56.7733 169.734 57.32 169.361 57.9333C169.014 58.5467 168.841 59.2133 168.841 59.9333C168.841 61.3467 169.227 62.3467 170.001 62.9333C170.774 63.4933 171.907 63.7733 173.401 63.7733C175.001 63.7733 176.401 63.4933 177.601 62.9333C178.801 62.3733 180.014 61.4667 181.241 60.2133V54.4533ZM158.921 35.6133C161.427 33.4 164.201 31.76 167.241 30.6933C170.307 29.6 173.587 29.0533 177.081 29.0533C179.587 29.0533 181.841 29.4667 183.841 30.2933C185.867 31.0933 187.574 32.2267 188.961 33.6933C190.374 35.1333 191.454 36.8533 192.201 38.8533C192.947 40.8533 193.321 43.04 193.321 45.4133V71.3333H187.641C186.467 71.3333 185.574 71.1733 184.961 70.8533C184.374 70.5333 183.881 69.8667 183.481 68.8533L182.601 66.5733C181.561 67.4533 180.561 68.2267 179.601 68.8933C178.641 69.56 177.641 70.1333 176.601 70.6133C175.587 71.0667 174.494 71.4 173.321 71.6133C172.174 71.8533 170.894 71.9733 169.481 71.9733C167.587 71.9733 165.867 71.7333 164.321 71.2533C162.774 70.7467 161.454 70.0133 160.361 69.0533C159.294 68.0933 158.467 66.9067 157.881 65.4933C157.294 64.0533 157.001 62.4 157.001 60.5333C157.001 59.04 157.374 57.5333 158.121 56.0133C158.867 54.4667 160.161 53.0667 162.001 51.8133C163.841 50.5333 166.321 49.4667 169.441 48.6133C172.561 47.76 176.494 47.28 181.241 47.1733V45.4133C181.241 42.9867 180.734 41.24 179.721 40.1733C178.734 39.08 177.321 38.5333 175.481 38.5333C174.014 38.5333 172.814 38.6933 171.881 39.0133C170.947 39.3333 170.107 39.6933 169.361 40.0933C168.641 40.4933 167.934 40.8533 167.241 41.1733C166.547 41.4933 165.721 41.6533 164.761 41.6533C163.907 41.6533 163.187 41.44 162.601 41.0133C162.014 40.5867 161.534 40.08 161.161 39.4933L158.921 35.6133Z" fill="white"/>
<path d="M195.567 65.0533C195.567 64.0933 195.74 63.2 196.087 62.3733C196.46 61.5467 196.954 60.8267 197.567 60.2133C198.207 59.6 198.954 59.12 199.807 58.7733C200.66 58.4 201.594 58.2133 202.607 58.2133C203.594 58.2133 204.514 58.4 205.367 58.7733C206.22 59.12 206.967 59.6 207.607 60.2133C208.247 60.8267 208.74 61.5467 209.087 62.3733C209.46 63.2 209.647 64.0933 209.647 65.0533C209.647 66.0133 209.46 66.92 209.087 67.7733C208.74 68.6 208.247 69.32 207.607 69.9333C206.967 70.5467 206.22 71.0267 205.367 71.3733C204.514 71.72 203.594 71.8933 202.607 71.8933C201.594 71.8933 200.66 71.72 199.807 71.3733C198.954 71.0267 198.207 70.5467 197.567 69.9333C196.954 69.32 196.46 68.6 196.087 67.7733C195.74 66.92 195.567 66.0133 195.567 65.0533ZM225.068 29.8533V71.3333H212.668V29.8533H225.068ZM226.348 18.4933C226.348 19.48 226.148 20.4133 225.748 21.2933C225.348 22.1467 224.801 22.9067 224.108 23.5733C223.414 24.2133 222.601 24.7333 221.668 25.1333C220.761 25.5067 219.788 25.6933 218.747 25.6933C217.734 25.6933 216.788 25.5067 215.908 25.1333C215.028 24.7333 214.241 24.2133 213.548 23.5733C212.881 22.9067 212.348 22.1467 211.948 21.2933C211.574 20.4133 211.388 19.48 211.388 18.4933C211.388 17.48 211.574 16.5333 211.948 15.6533C212.348 14.7733 212.881 14 213.548 13.3333C214.241 12.6667 215.028 12.1467 215.908 11.7733C216.788 11.4 217.734 11.2133 218.747 11.2133C219.788 11.2133 220.761 11.4 221.668 11.7733C222.601 12.1467 223.414 12.6667 224.108 13.3333C224.801 14 225.348 14.7733 225.748 15.6533C226.148 16.5333 226.348 17.48 226.348 18.4933ZM248.836 29.2133C251.982 29.2133 254.849 29.7067 257.436 30.6933C260.022 31.68 262.236 33.0933 264.076 34.9333C265.942 36.7733 267.382 39.0133 268.396 41.6533C269.436 44.2667 269.956 47.2133 269.956 50.4933C269.956 53.8 269.436 56.7867 268.396 59.4533C267.382 62.0933 265.942 64.3467 264.076 66.2133C262.236 68.0533 260.022 69.48 257.436 70.4933C254.849 71.48 251.982 71.9733 248.836 71.9733C245.662 71.9733 242.769 71.48 240.156 70.4933C237.569 69.48 235.329 68.0533 233.436 66.2133C231.569 64.3467 230.116 62.0933 229.076 59.4533C228.062 56.7867 227.556 53.8 227.556 50.4933C227.556 47.2133 228.062 44.2667 229.076 41.6533C230.116 39.0133 231.569 36.7733 233.436 34.9333C235.329 33.0933 237.569 31.68 240.156 30.6933C242.769 29.7067 245.662 29.2133 248.836 29.2133ZM248.836 62.7733C251.689 62.7733 253.782 61.7733 255.116 59.7733C256.476 57.7467 257.156 54.68 257.156 50.5733C257.156 46.4667 256.476 43.4133 255.116 41.4133C253.782 39.4133 251.689 38.4133 248.836 38.4133C245.902 38.4133 243.756 39.4133 242.396 41.4133C241.036 43.4133 240.356 46.4667 240.356 50.5733C240.356 54.68 241.036 57.7467 242.396 59.7733C243.756 61.7733 245.902 62.7733 248.836 62.7733Z" fill="#6CB7DF"/>
</svg>
