<svg width="513" height="483" viewBox="0 0 513 483" fill="none" xmlns="http://www.w3.org/2000/svg">
<rect width="513" height="483" fill="white"/>
<path fill-rule="evenodd" clip-rule="evenodd" d="M255.968 39.6731C347.034 40.0541 425.999 102.735 447.036 191.338L412.852 199.454C395.563 126.635 330.665 75.1199 255.821 74.8068L255.968 39.6731Z" fill="#085631"/>
<path fill-rule="evenodd" clip-rule="evenodd" d="M372.741 395.464C436.909 348.286 466.391 267.134 447.47 189.769L413.54 198.068C429.109 261.727 404.85 328.501 352.05 367.322L372.741 395.464Z" fill="#0E9453"/>
<path fill-rule="evenodd" clip-rule="evenodd" d="M438.725 215.196L391.292 191.038L462.883 167.763L438.725 215.196Z" fill="#085631"/>
<path fill-rule="evenodd" clip-rule="evenodd" d="M258.651 39.1256C168.77 37.4082 89.0518 96.5615 64.6467 183.083L98.3019 192.576C118.389 121.362 184.004 72.6741 257.983 74.0876L258.651 39.1256Z" fill="#65F0AD"/>
<path fill-rule="evenodd" clip-rule="evenodd" d="M136.211 395.684C65.7236 343.679 37.9979 251.406 68.1468 169.162L102.713 181.834C78.1932 248.721 100.742 323.764 158.068 366.059L136.211 395.684Z" fill="#0E9453"/>
<path fill-rule="evenodd" clip-rule="evenodd" d="M132.764 393.296C199.525 444.856 291.69 448.235 362.048 401.702L342.333 371.893C284.728 409.991 209.269 407.225 154.609 365.011L132.764 393.296Z" fill="#085631"/>
<path fill-rule="evenodd" clip-rule="evenodd" d="M95.9085 143.757L119.247 191.631L48.0345 167.096L95.9085 143.757Z" fill="#0E9453"/>
<path fill-rule="evenodd" clip-rule="evenodd" d="M333.029 404.504L340.367 351.811L385.721 411.843L333.029 404.504Z" fill="#0E9453"/>
<path fill-rule="evenodd" clip-rule="evenodd" d="M117.683 359.72L170.218 351.374L126.029 412.256L117.683 359.72Z" fill="#085631"/>
<path fill-rule="evenodd" clip-rule="evenodd" d="M292.628 57.6378L254.991 95.2756V20L292.628 57.6378Z" fill="#65F0AD"/>
<path d="M85.0522 72.216C85.0522 73.064 84.9109 73.8427 84.6282 74.552C84.3455 75.2613 83.9482 75.872 83.4362 76.384C82.9242 76.896 82.3082 77.2933 81.5882 77.576C80.8682 77.8587 80.0682 78 79.1882 78H74.7802V66.432H79.1882C80.0682 66.432 80.8682 66.576 81.5882 66.864C82.3082 67.1467 82.9242 67.544 83.4362 68.056C83.9482 68.5627 84.3455 69.1707 84.6282 69.88C84.9109 70.5893 85.0522 71.368 85.0522 72.216ZM82.8442 72.216C82.8442 71.5813 82.7589 71.0133 82.5882 70.512C82.4229 70.0053 82.1802 69.5787 81.8602 69.232C81.5455 68.88 81.1615 68.6107 80.7082 68.424C80.2602 68.2373 79.7535 68.144 79.1882 68.144H76.9402V76.288H79.1882C79.7535 76.288 80.2602 76.1947 80.7082 76.008C81.1615 75.8213 81.5455 75.5547 81.8602 75.208C82.1802 74.856 82.4229 74.4293 82.5882 73.928C82.7589 73.4213 82.8442 72.8507 82.8442 72.216ZM91.8187 72.952C91.8187 72.696 91.7814 72.456 91.7067 72.232C91.6374 72.0027 91.5307 71.8027 91.3867 71.632C91.2427 71.4613 91.0587 71.328 90.8347 71.232C90.616 71.1307 90.36 71.08 90.0667 71.08C89.496 71.08 89.0454 71.2427 88.7147 71.568C88.3894 71.8933 88.1814 72.3547 88.0907 72.952H91.8187ZM88.0507 74.144C88.0827 74.5653 88.1574 74.9307 88.2747 75.24C88.392 75.544 88.5467 75.7973 88.7387 76C88.9307 76.1973 89.1574 76.3467 89.4187 76.448C89.6854 76.544 89.9787 76.592 90.2987 76.592C90.6187 76.592 90.8934 76.5547 91.1227 76.48C91.3574 76.4053 91.56 76.3227 91.7307 76.232C91.9067 76.1413 92.0587 76.0587 92.1867 75.984C92.32 75.9093 92.448 75.872 92.5707 75.872C92.736 75.872 92.8587 75.9333 92.9387 76.056L93.5067 76.776C93.288 77.032 93.0427 77.248 92.7707 77.424C92.4987 77.5947 92.2134 77.7333 91.9147 77.84C91.6214 77.9413 91.32 78.0133 91.0107 78.056C90.7067 78.0987 90.4107 78.12 90.1227 78.12C89.552 78.12 89.0214 78.0267 88.5307 77.84C88.04 77.648 87.6134 77.368 87.2507 77C86.888 76.6267 86.6027 76.168 86.3947 75.624C86.1867 75.0747 86.0827 74.44 86.0827 73.72C86.0827 73.16 86.1734 72.6347 86.3547 72.144C86.536 71.648 86.7947 71.2187 87.1307 70.856C87.472 70.488 87.8854 70.1973 88.3707 69.984C88.8614 69.7707 89.4134 69.664 90.0267 69.664C90.544 69.664 91.0214 69.7467 91.4587 69.912C91.896 70.0773 92.272 70.32 92.5867 70.64C92.9014 70.9547 93.1467 71.344 93.3227 71.808C93.504 72.2667 93.5947 72.792 93.5947 73.384C93.5947 73.6827 93.5627 73.8853 93.4987 73.992C93.4347 74.0933 93.312 74.144 93.1307 74.144H88.0507ZM97.0536 75.872C97.2776 76.144 97.5202 76.336 97.7816 76.448C98.0482 76.56 98.3362 76.616 98.6456 76.616C98.9442 76.616 99.2136 76.56 99.4536 76.448C99.6936 76.336 99.8962 76.1653 100.062 75.936C100.232 75.7067 100.363 75.4187 100.454 75.072C100.544 74.72 100.59 74.3067 100.59 73.832C100.59 73.352 100.55 72.9467 100.47 72.616C100.395 72.28 100.286 72.008 100.142 71.8C99.9976 71.592 99.8216 71.44 99.6136 71.344C99.4109 71.248 99.1789 71.2 98.9176 71.2C98.5069 71.2 98.1576 71.288 97.8696 71.464C97.5816 71.6347 97.3096 71.8773 97.0536 72.192V75.872ZM96.9496 70.912C97.2856 70.5333 97.6669 70.2267 98.0936 69.992C98.5202 69.7573 99.0216 69.64 99.5976 69.64C100.046 69.64 100.454 69.7333 100.822 69.92C101.195 70.1067 101.515 70.3787 101.782 70.736C102.054 71.088 102.262 71.5253 102.406 72.048C102.555 72.5653 102.63 73.16 102.63 73.832C102.63 74.4453 102.547 75.0133 102.382 75.536C102.216 76.0587 101.979 76.512 101.67 76.896C101.366 77.28 100.995 77.5813 100.558 77.8C100.126 78.0133 99.6402 78.12 99.1016 78.12C98.6429 78.12 98.2509 78.0507 97.9256 77.912C97.6002 77.768 97.3096 77.5707 97.0536 77.32V80.68H95.0776V69.792H96.2856C96.5416 69.792 96.7096 69.912 96.7896 70.152L96.9496 70.912ZM106.171 66.112V78H104.195V66.112H106.171ZM111.772 69.664C112.38 69.664 112.932 69.7627 113.428 69.96C113.929 70.1573 114.356 70.4373 114.708 70.8C115.065 71.1627 115.34 71.6053 115.532 72.128C115.724 72.6507 115.82 73.2347 115.82 73.88C115.82 74.5307 115.724 75.1173 115.532 75.64C115.34 76.1627 115.065 76.608 114.708 76.976C114.356 77.344 113.929 77.6267 113.428 77.824C112.932 78.0213 112.38 78.12 111.772 78.12C111.159 78.12 110.601 78.0213 110.1 77.824C109.599 77.6267 109.169 77.344 108.812 76.976C108.46 76.608 108.185 76.1627 107.988 75.64C107.796 75.1173 107.7 74.5307 107.7 73.88C107.7 73.2347 107.796 72.6507 107.988 72.128C108.185 71.6053 108.46 71.1627 108.812 70.8C109.169 70.4373 109.599 70.1573 110.1 69.96C110.601 69.7627 111.159 69.664 111.772 69.664ZM111.772 76.6C112.455 76.6 112.959 76.3707 113.284 75.912C113.615 75.4533 113.78 74.7813 113.78 73.896C113.78 73.0107 113.615 72.336 113.284 71.872C112.959 71.408 112.455 71.176 111.772 71.176C111.079 71.176 110.564 71.4107 110.228 71.88C109.897 72.344 109.732 73.016 109.732 73.896C109.732 74.776 109.897 75.448 110.228 75.912C110.564 76.3707 111.079 76.6 111.772 76.6ZM124.502 69.792L120.03 80.256C119.972 80.3947 119.894 80.4987 119.798 80.568C119.708 80.6427 119.566 80.68 119.374 80.68H117.902L119.438 77.384L116.118 69.792H117.854C118.009 69.792 118.129 69.8293 118.214 69.904C118.305 69.9787 118.372 70.064 118.414 70.16L120.158 74.416C120.217 74.56 120.265 74.704 120.302 74.848C120.345 74.992 120.385 75.1387 120.422 75.288C120.47 75.1387 120.518 74.992 120.566 74.848C120.614 74.6987 120.668 74.552 120.726 74.408L122.374 70.16C122.417 70.0533 122.486 69.9653 122.582 69.896C122.684 69.8267 122.796 69.792 122.918 69.792H124.502Z" fill="black"/>
<path d="M29.7664 320.2H26.2784V330H24.1264V320.2H20.6384V318.432H29.7664V320.2ZM34.3343 324.952C34.3343 324.696 34.297 324.456 34.2223 324.232C34.153 324.003 34.0463 323.803 33.9023 323.632C33.7583 323.461 33.5743 323.328 33.3503 323.232C33.1316 323.131 32.8756 323.08 32.5823 323.08C32.0116 323.08 31.561 323.243 31.2303 323.568C30.905 323.893 30.697 324.355 30.6063 324.952H34.3343ZM30.5663 326.144C30.5983 326.565 30.673 326.931 30.7903 327.24C30.9076 327.544 31.0623 327.797 31.2543 328C31.4463 328.197 31.673 328.347 31.9343 328.448C32.201 328.544 32.4943 328.592 32.8143 328.592C33.1343 328.592 33.409 328.555 33.6383 328.48C33.873 328.405 34.0756 328.323 34.2463 328.232C34.4223 328.141 34.5743 328.059 34.7023 327.984C34.8356 327.909 34.9636 327.872 35.0863 327.872C35.2516 327.872 35.3743 327.933 35.4543 328.056L36.0223 328.776C35.8036 329.032 35.5583 329.248 35.2863 329.424C35.0143 329.595 34.729 329.733 34.4303 329.84C34.137 329.941 33.8356 330.013 33.5263 330.056C33.2223 330.099 32.9263 330.12 32.6383 330.12C32.0676 330.12 31.537 330.027 31.0463 329.84C30.5556 329.648 30.129 329.368 29.7663 329C29.4036 328.627 29.1183 328.168 28.9103 327.624C28.7023 327.075 28.5983 326.44 28.5983 325.72C28.5983 325.16 28.689 324.635 28.8703 324.144C29.0516 323.648 29.3103 323.219 29.6463 322.856C29.9876 322.488 30.401 322.197 30.8863 321.984C31.377 321.771 31.929 321.664 32.5423 321.664C33.0596 321.664 33.537 321.747 33.9743 321.912C34.4116 322.077 34.7876 322.32 35.1023 322.64C35.417 322.955 35.6623 323.344 35.8383 323.808C36.0196 324.267 36.1103 324.792 36.1103 325.384C36.1103 325.683 36.0783 325.885 36.0143 325.992C35.9503 326.093 35.8276 326.144 35.6463 326.144H30.5663ZM42.6012 323.392C42.5479 323.477 42.4919 323.539 42.4332 323.576C42.3745 323.608 42.2999 323.624 42.2092 323.624C42.1132 323.624 42.0092 323.597 41.8972 323.544C41.7905 323.491 41.6652 323.432 41.5212 323.368C41.3772 323.299 41.2119 323.237 41.0252 323.184C40.8439 323.131 40.6279 323.104 40.3772 323.104C39.9879 323.104 39.6812 323.187 39.4572 323.352C39.2385 323.517 39.1292 323.733 39.1292 324C39.1292 324.176 39.1852 324.325 39.2972 324.448C39.4145 324.565 39.5665 324.669 39.7532 324.76C39.9452 324.851 40.1612 324.933 40.4012 325.008C40.6412 325.077 40.8839 325.155 41.1292 325.24C41.3799 325.325 41.6252 325.424 41.8652 325.536C42.1052 325.643 42.3185 325.781 42.5052 325.952C42.6972 326.117 42.8492 326.317 42.9612 326.552C43.0785 326.787 43.1372 327.069 43.1372 327.4C43.1372 327.795 43.0652 328.16 42.9212 328.496C42.7825 328.827 42.5745 329.115 42.2972 329.36C42.0199 329.6 41.6759 329.789 41.2652 329.928C40.8599 330.061 40.3905 330.128 39.8572 330.128C39.5745 330.128 39.2972 330.101 39.0252 330.048C38.7585 330 38.4999 329.931 38.2492 329.84C38.0039 329.749 37.7745 329.643 37.5612 329.52C37.3532 329.397 37.1692 329.264 37.0092 329.12L37.4652 328.368C37.5239 328.277 37.5932 328.208 37.6732 328.16C37.7532 328.112 37.8545 328.088 37.9772 328.088C38.0999 328.088 38.2145 328.123 38.3212 328.192C38.4332 328.261 38.5612 328.336 38.7052 328.416C38.8492 328.496 39.0172 328.571 39.2092 328.64C39.4065 328.709 39.6545 328.744 39.9532 328.744C40.1879 328.744 40.3879 328.717 40.5532 328.664C40.7239 328.605 40.8625 328.531 40.9692 328.44C41.0812 328.349 41.1612 328.245 41.2092 328.128C41.2625 328.005 41.2892 327.88 41.2892 327.752C41.2892 327.56 41.2305 327.403 41.1132 327.28C41.0012 327.157 40.8492 327.051 40.6572 326.96C40.4705 326.869 40.2545 326.789 40.0092 326.72C39.7692 326.645 39.5212 326.565 39.2652 326.48C39.0145 326.395 38.7665 326.296 38.5212 326.184C38.2812 326.067 38.0652 325.92 37.8732 325.744C37.6865 325.568 37.5345 325.352 37.4172 325.096C37.3052 324.84 37.2492 324.531 37.2492 324.168C37.2492 323.832 37.3159 323.512 37.4492 323.208C37.5825 322.904 37.7772 322.64 38.0332 322.416C38.2945 322.187 38.6172 322.005 39.0012 321.872C39.3905 321.733 39.8385 321.664 40.3452 321.664C40.9105 321.664 41.4252 321.757 41.8892 321.944C42.3532 322.131 42.7399 322.376 43.0492 322.68L42.6012 323.392ZM47.3604 330.128C46.6458 330.128 46.0964 329.928 45.7124 329.528C45.3338 329.123 45.1444 328.565 45.1444 327.856V323.272H44.3044C44.1978 323.272 44.1071 323.237 44.0324 323.168C43.9578 323.099 43.9204 322.995 43.9204 322.856V322.072L45.2404 321.856L45.6564 319.616C45.6831 319.509 45.7338 319.427 45.8084 319.368C45.8831 319.309 45.9791 319.28 46.0964 319.28H47.1204V321.864H49.3124V323.272H47.1204V327.72C47.1204 327.976 47.1818 328.176 47.3044 328.32C47.4324 328.464 47.6058 328.536 47.8244 328.536C47.9471 328.536 48.0484 328.523 48.1284 328.496C48.2138 328.464 48.2858 328.432 48.3444 328.4C48.4084 328.368 48.4644 328.339 48.5124 328.312C48.5604 328.28 48.6084 328.264 48.6564 328.264C48.7151 328.264 48.7631 328.28 48.8004 328.312C48.8378 328.339 48.8778 328.381 48.9204 328.44L49.5124 329.4C49.2244 329.64 48.8938 329.821 48.5204 329.944C48.1471 330.067 47.7604 330.128 47.3604 330.128Z" fill="black"/>
<path d="M219.714 460H217.554V448.432H219.714V460ZM221.867 460V451.792H223.075C223.331 451.792 223.499 451.912 223.579 452.152L223.707 452.76C223.851 452.6 224 452.453 224.155 452.32C224.315 452.187 224.483 452.072 224.659 451.976C224.84 451.88 225.032 451.805 225.235 451.752C225.443 451.693 225.669 451.664 225.915 451.664C226.432 451.664 226.856 451.805 227.187 452.088C227.523 452.365 227.773 452.736 227.939 453.2C228.067 452.928 228.227 452.696 228.419 452.504C228.611 452.307 228.821 452.147 229.051 452.024C229.28 451.901 229.523 451.811 229.779 451.752C230.04 451.693 230.301 451.664 230.563 451.664C231.016 451.664 231.419 451.733 231.771 451.872C232.123 452.011 232.419 452.213 232.659 452.48C232.899 452.747 233.08 453.072 233.203 453.456C233.331 453.84 233.395 454.28 233.395 454.776V460H231.419V454.776C231.419 454.253 231.304 453.861 231.075 453.6C230.845 453.333 230.509 453.2 230.067 453.2C229.864 453.2 229.675 453.235 229.499 453.304C229.328 453.373 229.176 453.475 229.043 453.608C228.915 453.736 228.813 453.899 228.739 454.096C228.664 454.293 228.627 454.52 228.627 454.776V460H226.643V454.776C226.643 454.227 226.531 453.827 226.307 453.576C226.088 453.325 225.765 453.2 225.339 453.2C225.051 453.2 224.781 453.272 224.531 453.416C224.285 453.555 224.056 453.747 223.843 453.992V460H221.867ZM237.249 457.872C237.473 458.144 237.716 458.336 237.977 458.448C238.244 458.56 238.532 458.616 238.841 458.616C239.14 458.616 239.409 458.56 239.649 458.448C239.889 458.336 240.092 458.165 240.257 457.936C240.428 457.707 240.558 457.419 240.649 457.072C240.74 456.72 240.785 456.307 240.785 455.832C240.785 455.352 240.745 454.947 240.665 454.616C240.59 454.28 240.481 454.008 240.337 453.8C240.193 453.592 240.017 453.44 239.809 453.344C239.606 453.248 239.374 453.2 239.113 453.2C238.702 453.2 238.353 453.288 238.065 453.464C237.777 453.635 237.505 453.877 237.249 454.192V457.872ZM237.145 452.912C237.481 452.533 237.862 452.227 238.289 451.992C238.716 451.757 239.217 451.64 239.793 451.64C240.241 451.64 240.649 451.733 241.017 451.92C241.39 452.107 241.71 452.379 241.977 452.736C242.249 453.088 242.457 453.525 242.601 454.048C242.75 454.565 242.825 455.16 242.825 455.832C242.825 456.445 242.742 457.013 242.577 457.536C242.412 458.059 242.174 458.512 241.865 458.896C241.561 459.28 241.19 459.581 240.753 459.8C240.321 460.013 239.836 460.12 239.297 460.12C238.838 460.12 238.446 460.051 238.121 459.912C237.796 459.768 237.505 459.571 237.249 459.32V462.68H235.273V451.792H236.481C236.737 451.792 236.905 451.912 236.985 452.152L237.145 452.912ZM246.367 448.112V460H244.391V448.112H246.367ZM253.623 454.952C253.623 454.696 253.586 454.456 253.511 454.232C253.442 454.003 253.335 453.803 253.191 453.632C253.047 453.461 252.863 453.328 252.639 453.232C252.421 453.131 252.165 453.08 251.871 453.08C251.301 453.08 250.85 453.243 250.519 453.568C250.194 453.893 249.986 454.355 249.895 454.952H253.623ZM249.855 456.144C249.887 456.565 249.962 456.931 250.079 457.24C250.197 457.544 250.351 457.797 250.543 458C250.735 458.197 250.962 458.347 251.223 458.448C251.49 458.544 251.783 458.592 252.103 458.592C252.423 458.592 252.698 458.555 252.927 458.48C253.162 458.405 253.365 458.323 253.535 458.232C253.711 458.141 253.863 458.059 253.991 457.984C254.125 457.909 254.253 457.872 254.375 457.872C254.541 457.872 254.663 457.933 254.743 458.056L255.311 458.776C255.093 459.032 254.847 459.248 254.575 459.424C254.303 459.595 254.018 459.733 253.719 459.84C253.426 459.941 253.125 460.013 252.815 460.056C252.511 460.099 252.215 460.12 251.927 460.12C251.357 460.12 250.826 460.027 250.335 459.84C249.845 459.648 249.418 459.368 249.055 459C248.693 458.627 248.407 458.168 248.199 457.624C247.991 457.075 247.887 456.44 247.887 455.72C247.887 455.16 247.978 454.635 248.159 454.144C248.341 453.648 248.599 453.219 248.935 452.856C249.277 452.488 249.69 452.197 250.175 451.984C250.666 451.771 251.218 451.664 251.831 451.664C252.349 451.664 252.826 451.747 253.263 451.912C253.701 452.077 254.077 452.32 254.391 452.64C254.706 452.955 254.951 453.344 255.127 453.808C255.309 454.267 255.399 454.792 255.399 455.384C255.399 455.683 255.367 455.885 255.303 455.992C255.239 456.093 255.117 456.144 254.935 456.144H249.855ZM256.882 460V451.792H258.09C258.346 451.792 258.514 451.912 258.594 452.152L258.722 452.76C258.866 452.6 259.016 452.453 259.17 452.32C259.33 452.187 259.498 452.072 259.674 451.976C259.856 451.88 260.048 451.805 260.25 451.752C260.458 451.693 260.685 451.664 260.93 451.664C261.448 451.664 261.872 451.805 262.202 452.088C262.538 452.365 262.789 452.736 262.954 453.2C263.082 452.928 263.242 452.696 263.434 452.504C263.626 452.307 263.837 452.147 264.066 452.024C264.296 451.901 264.538 451.811 264.794 451.752C265.056 451.693 265.317 451.664 265.578 451.664C266.032 451.664 266.434 451.733 266.786 451.872C267.138 452.011 267.434 452.213 267.674 452.48C267.914 452.747 268.096 453.072 268.218 453.456C268.346 453.84 268.41 454.28 268.41 454.776V460H266.434V454.776C266.434 454.253 266.32 453.861 266.09 453.6C265.861 453.333 265.525 453.2 265.082 453.2C264.88 453.2 264.69 453.235 264.514 453.304C264.344 453.373 264.192 453.475 264.058 453.608C263.93 453.736 263.829 453.899 263.754 454.096C263.68 454.293 263.642 454.52 263.642 454.776V460H261.658V454.776C261.658 454.227 261.546 453.827 261.322 453.576C261.104 453.325 260.781 453.2 260.354 453.2C260.066 453.2 259.797 453.272 259.546 453.416C259.301 453.555 259.072 453.747 258.858 453.992V460H256.882ZM275.577 454.952C275.577 454.696 275.539 454.456 275.465 454.232C275.395 454.003 275.289 453.803 275.145 453.632C275.001 453.461 274.817 453.328 274.593 453.232C274.374 453.131 274.118 453.08 273.825 453.08C273.254 453.08 272.803 453.243 272.473 453.568C272.147 453.893 271.939 454.355 271.849 454.952H275.577ZM271.809 456.144C271.841 456.565 271.915 456.931 272.033 457.24C272.15 457.544 272.305 457.797 272.497 458C272.689 458.197 272.915 458.347 273.177 458.448C273.443 458.544 273.737 458.592 274.057 458.592C274.377 458.592 274.651 458.555 274.881 458.48C275.115 458.405 275.318 458.323 275.489 458.232C275.665 458.141 275.817 458.059 275.945 457.984C276.078 457.909 276.206 457.872 276.329 457.872C276.494 457.872 276.617 457.933 276.697 458.056L277.265 458.776C277.046 459.032 276.801 459.248 276.529 459.424C276.257 459.595 275.971 459.733 275.673 459.84C275.379 459.941 275.078 460.013 274.769 460.056C274.465 460.099 274.169 460.12 273.881 460.12C273.31 460.12 272.779 460.027 272.289 459.84C271.798 459.648 271.371 459.368 271.009 459C270.646 458.627 270.361 458.168 270.153 457.624C269.945 457.075 269.84 456.44 269.84 455.72C269.84 455.16 269.931 454.635 270.113 454.144C270.294 453.648 270.553 453.219 270.889 452.856C271.23 452.488 271.643 452.197 272.129 451.984C272.619 451.771 273.171 451.664 273.785 451.664C274.302 451.664 274.779 451.747 275.217 451.912C275.654 452.077 276.03 452.32 276.345 452.64C276.659 452.955 276.905 453.344 277.081 453.808C277.262 454.267 277.352 454.792 277.352 455.384C277.352 455.683 277.321 455.885 277.257 455.992C277.193 456.093 277.07 456.144 276.889 456.144H271.809ZM280.683 452.8C280.849 452.635 281.022 452.483 281.203 452.344C281.39 452.2 281.585 452.08 281.787 451.984C281.995 451.883 282.217 451.805 282.451 451.752C282.686 451.693 282.942 451.664 283.219 451.664C283.667 451.664 284.065 451.741 284.411 451.896C284.758 452.045 285.046 452.259 285.275 452.536C285.51 452.808 285.686 453.136 285.803 453.52C285.926 453.899 285.987 454.317 285.987 454.776V460H284.011V454.776C284.011 454.275 283.897 453.888 283.667 453.616C283.438 453.339 283.089 453.2 282.619 453.2C282.278 453.2 281.958 453.277 281.659 453.432C281.361 453.587 281.078 453.797 280.811 454.064V460H278.835V451.792H280.043C280.299 451.792 280.467 451.912 280.547 452.152L280.683 452.8ZM290.493 460.128C289.779 460.128 289.229 459.928 288.845 459.528C288.467 459.123 288.277 458.565 288.277 457.856V453.272H287.437C287.331 453.272 287.24 453.237 287.165 453.168C287.091 453.099 287.053 452.995 287.053 452.856V452.072L288.373 451.856L288.789 449.616C288.816 449.509 288.867 449.427 288.941 449.368C289.016 449.309 289.112 449.28 289.229 449.28H290.253V451.864H292.445V453.272H290.253V457.72C290.253 457.976 290.315 458.176 290.437 458.32C290.565 458.464 290.739 458.536 290.957 458.536C291.08 458.536 291.181 458.523 291.261 458.496C291.347 458.464 291.419 458.432 291.477 458.4C291.541 458.368 291.597 458.339 291.645 458.312C291.693 458.28 291.741 458.264 291.789 458.264C291.848 458.264 291.896 458.28 291.933 458.312C291.971 458.339 292.011 458.381 292.053 458.44L292.645 459.4C292.357 459.64 292.027 459.821 291.653 459.944C291.28 460.067 290.893 460.128 290.493 460.128Z" fill="black"/>
<path d="M454.966 324.216C454.966 325.064 454.825 325.843 454.542 326.552C454.26 327.261 453.862 327.872 453.35 328.384C452.838 328.896 452.222 329.293 451.502 329.576C450.782 329.859 449.982 330 449.102 330H444.694V318.432H449.102C449.982 318.432 450.782 318.576 451.502 318.864C452.222 319.147 452.838 319.544 453.35 320.056C453.862 320.563 454.26 321.171 454.542 321.88C454.825 322.589 454.966 323.368 454.966 324.216ZM452.758 324.216C452.758 323.581 452.673 323.013 452.502 322.512C452.337 322.005 452.094 321.579 451.774 321.232C451.46 320.88 451.076 320.611 450.622 320.424C450.174 320.237 449.668 320.144 449.102 320.144H446.854V328.288H449.102C449.668 328.288 450.174 328.195 450.622 328.008C451.076 327.821 451.46 327.555 451.774 327.208C452.094 326.856 452.337 326.429 452.502 325.928C452.673 325.421 452.758 324.851 452.758 324.216ZM461.733 324.952C461.733 324.696 461.695 324.456 461.621 324.232C461.551 324.003 461.445 323.803 461.301 323.632C461.157 323.461 460.973 323.328 460.749 323.232C460.53 323.131 460.274 323.08 459.981 323.08C459.41 323.08 458.959 323.243 458.629 323.568C458.303 323.893 458.095 324.355 458.005 324.952H461.733ZM457.965 326.144C457.997 326.565 458.071 326.931 458.189 327.24C458.306 327.544 458.461 327.797 458.653 328C458.845 328.197 459.071 328.347 459.333 328.448C459.599 328.544 459.893 328.592 460.213 328.592C460.533 328.592 460.807 328.555 461.037 328.48C461.271 328.405 461.474 328.323 461.645 328.232C461.821 328.141 461.973 328.059 462.101 327.984C462.234 327.909 462.362 327.872 462.485 327.872C462.65 327.872 462.773 327.933 462.853 328.056L463.421 328.776C463.202 329.032 462.957 329.248 462.685 329.424C462.413 329.595 462.127 329.733 461.829 329.84C461.535 329.941 461.234 330.013 460.925 330.056C460.621 330.099 460.325 330.12 460.037 330.12C459.466 330.12 458.935 330.027 458.445 329.84C457.954 329.648 457.527 329.368 457.165 329C456.802 328.627 456.517 328.168 456.309 327.624C456.101 327.075 455.997 326.44 455.997 325.72C455.997 325.16 456.087 324.635 456.269 324.144C456.45 323.648 456.709 323.219 457.045 322.856C457.386 322.488 457.799 322.197 458.285 321.984C458.775 321.771 459.327 321.664 459.941 321.664C460.458 321.664 460.935 321.747 461.373 321.912C461.81 322.077 462.186 322.32 462.501 322.64C462.815 322.955 463.061 323.344 463.237 323.808C463.418 324.267 463.509 324.792 463.509 325.384C463.509 325.683 463.477 325.885 463.413 325.992C463.349 326.093 463.226 326.144 463.045 326.144H457.965ZM470 323.392C469.946 323.477 469.89 323.539 469.832 323.576C469.773 323.608 469.698 323.624 469.608 323.624C469.512 323.624 469.408 323.597 469.296 323.544C469.189 323.491 469.064 323.432 468.92 323.368C468.776 323.299 468.61 323.237 468.424 323.184C468.242 323.131 468.026 323.104 467.776 323.104C467.386 323.104 467.08 323.187 466.856 323.352C466.637 323.517 466.528 323.733 466.528 324C466.528 324.176 466.584 324.325 466.696 324.448C466.813 324.565 466.965 324.669 467.152 324.76C467.344 324.851 467.56 324.933 467.8 325.008C468.04 325.077 468.282 325.155 468.528 325.24C468.778 325.325 469.024 325.424 469.264 325.536C469.504 325.643 469.717 325.781 469.904 325.952C470.096 326.117 470.248 326.317 470.36 326.552C470.477 326.787 470.536 327.069 470.536 327.4C470.536 327.795 470.464 328.16 470.32 328.496C470.181 328.827 469.973 329.115 469.696 329.36C469.418 329.6 469.074 329.789 468.664 329.928C468.258 330.061 467.789 330.128 467.256 330.128C466.973 330.128 466.696 330.101 466.424 330.048C466.157 330 465.898 329.931 465.648 329.84C465.402 329.749 465.173 329.643 464.96 329.52C464.752 329.397 464.568 329.264 464.408 329.12L464.864 328.368C464.922 328.277 464.992 328.208 465.072 328.16C465.152 328.112 465.253 328.088 465.376 328.088C465.498 328.088 465.613 328.123 465.72 328.192C465.832 328.261 465.96 328.336 466.104 328.416C466.248 328.496 466.416 328.571 466.608 328.64C466.805 328.709 467.053 328.744 467.352 328.744C467.586 328.744 467.786 328.717 467.952 328.664C468.122 328.605 468.261 328.531 468.368 328.44C468.48 328.349 468.56 328.245 468.608 328.128C468.661 328.005 468.688 327.88 468.688 327.752C468.688 327.56 468.629 327.403 468.512 327.28C468.4 327.157 468.248 327.051 468.056 326.96C467.869 326.869 467.653 326.789 467.408 326.72C467.168 326.645 466.92 326.565 466.664 326.48C466.413 326.395 466.165 326.296 465.92 326.184C465.68 326.067 465.464 325.92 465.272 325.744C465.085 325.568 464.933 325.352 464.816 325.096C464.704 324.84 464.648 324.531 464.648 324.168C464.648 323.832 464.714 323.512 464.848 323.208C464.981 322.904 465.176 322.64 465.432 322.416C465.693 322.187 466.016 322.005 466.4 321.872C466.789 321.733 467.237 321.664 467.744 321.664C468.309 321.664 468.824 321.757 469.288 321.944C469.752 322.131 470.138 322.376 470.448 322.68L470 323.392ZM474.071 321.792V330H472.087V321.792H474.071ZM474.343 319.4C474.343 319.571 474.308 319.731 474.239 319.88C474.17 320.029 474.076 320.16 473.959 320.272C473.847 320.384 473.714 320.475 473.559 320.544C473.404 320.608 473.239 320.64 473.063 320.64C472.892 320.64 472.73 320.608 472.575 320.544C472.426 320.475 472.295 320.384 472.183 320.272C472.071 320.16 471.98 320.029 471.911 319.88C471.847 319.731 471.815 319.571 471.815 319.4C471.815 319.224 471.847 319.059 471.911 318.904C471.98 318.749 472.071 318.616 472.183 318.504C472.295 318.392 472.426 318.304 472.575 318.24C472.73 318.171 472.892 318.136 473.063 318.136C473.239 318.136 473.404 318.171 473.559 318.24C473.714 318.304 473.847 318.392 473.959 318.504C474.076 318.616 474.17 318.749 474.239 318.904C474.308 319.059 474.343 319.224 474.343 319.4ZM479.085 325.696C479.331 325.696 479.544 325.664 479.725 325.6C479.907 325.531 480.056 325.437 480.173 325.32C480.296 325.203 480.387 325.061 480.445 324.896C480.509 324.731 480.541 324.549 480.541 324.352C480.541 323.947 480.419 323.627 480.173 323.392C479.933 323.152 479.571 323.032 479.085 323.032C478.6 323.032 478.235 323.152 477.989 323.392C477.749 323.627 477.629 323.947 477.629 324.352C477.629 324.544 477.659 324.723 477.717 324.888C477.781 325.053 477.872 325.197 477.989 325.32C478.112 325.437 478.264 325.531 478.445 325.6C478.632 325.664 478.845 325.696 479.085 325.696ZM481.317 330.368C481.317 330.208 481.269 330.077 481.173 329.976C481.077 329.875 480.947 329.797 480.781 329.744C480.616 329.685 480.421 329.643 480.197 329.616C479.979 329.589 479.744 329.571 479.493 329.56C479.248 329.544 478.992 329.531 478.725 329.52C478.464 329.509 478.208 329.488 477.957 329.456C477.739 329.579 477.56 329.723 477.421 329.888C477.288 330.053 477.221 330.245 477.221 330.464C477.221 330.608 477.256 330.741 477.325 330.864C477.4 330.992 477.515 331.101 477.669 331.192C477.829 331.283 478.035 331.352 478.285 331.4C478.536 331.453 478.843 331.48 479.205 331.48C479.573 331.48 479.891 331.451 480.157 331.392C480.424 331.339 480.643 331.261 480.813 331.16C480.989 331.064 481.117 330.947 481.197 330.808C481.277 330.675 481.317 330.528 481.317 330.368ZM483.285 322.072V322.808C483.285 323.043 483.144 323.187 482.861 323.24L482.125 323.376C482.237 323.659 482.293 323.968 482.293 324.304C482.293 324.709 482.211 325.077 482.045 325.408C481.885 325.733 481.661 326.011 481.373 326.24C481.085 326.469 480.744 326.648 480.349 326.776C479.96 326.899 479.539 326.96 479.085 326.96C478.925 326.96 478.771 326.952 478.621 326.936C478.472 326.92 478.325 326.899 478.181 326.872C477.925 327.027 477.797 327.2 477.797 327.392C477.797 327.557 477.872 327.68 478.021 327.76C478.176 327.835 478.379 327.888 478.629 327.92C478.88 327.952 479.165 327.973 479.485 327.984C479.805 327.989 480.133 328.005 480.469 328.032C480.805 328.059 481.133 328.107 481.453 328.176C481.773 328.24 482.059 328.344 482.309 328.488C482.56 328.632 482.76 328.829 482.909 329.08C483.064 329.325 483.141 329.643 483.141 330.032C483.141 330.395 483.051 330.747 482.869 331.088C482.693 331.429 482.435 331.733 482.093 332C481.757 332.267 481.341 332.48 480.845 332.64C480.355 332.805 479.795 332.888 479.165 332.888C478.547 332.888 478.008 332.827 477.549 332.704C477.091 332.587 476.709 332.427 476.405 332.224C476.101 332.027 475.875 331.797 475.725 331.536C475.576 331.275 475.501 331.003 475.501 330.72C475.501 330.336 475.616 330.016 475.845 329.76C476.08 329.499 476.4 329.291 476.805 329.136C476.587 329.024 476.413 328.875 476.285 328.688C476.157 328.501 476.093 328.256 476.093 327.952C476.093 327.829 476.115 327.704 476.157 327.576C476.205 327.443 476.272 327.312 476.357 327.184C476.448 327.056 476.56 326.936 476.693 326.824C476.827 326.707 476.984 326.603 477.165 326.512C476.749 326.288 476.421 325.989 476.181 325.616C475.947 325.243 475.829 324.805 475.829 324.304C475.829 323.899 475.909 323.533 476.069 323.208C476.235 322.877 476.461 322.597 476.749 322.368C477.043 322.133 477.387 321.955 477.781 321.832C478.181 321.709 478.616 321.648 479.085 321.648C479.437 321.648 479.768 321.685 480.077 321.76C480.387 321.829 480.669 321.933 480.925 322.072H483.285ZM486.387 322.8C486.552 322.635 486.725 322.483 486.907 322.344C487.093 322.2 487.288 322.08 487.491 321.984C487.699 321.883 487.92 321.805 488.155 321.752C488.389 321.693 488.645 321.664 488.923 321.664C489.371 321.664 489.768 321.741 490.115 321.896C490.461 322.045 490.749 322.259 490.979 322.536C491.213 322.808 491.389 323.136 491.507 323.52C491.629 323.899 491.691 324.317 491.691 324.776V330H489.715V324.776C489.715 324.275 489.6 323.888 489.371 323.616C489.141 323.339 488.792 323.2 488.323 323.2C487.981 323.2 487.661 323.277 487.363 323.432C487.064 323.587 486.781 323.797 486.515 324.064V330H484.539V321.792H485.747C486.003 321.792 486.171 321.912 486.251 322.152L486.387 322.8Z" fill="black"/>
<path d="M399.048 72.248C399.443 72.248 399.787 72.2 400.08 72.104C400.373 72.0027 400.616 71.8613 400.808 71.68C401.005 71.4933 401.152 71.2693 401.248 71.008C401.344 70.7413 401.392 70.4453 401.392 70.12C401.392 69.8107 401.344 69.5307 401.248 69.28C401.152 69.0293 401.008 68.816 400.816 68.64C400.624 68.464 400.381 68.3307 400.088 68.24C399.795 68.144 399.448 68.096 399.048 68.096H397.44V72.248H399.048ZM399.048 66.432C399.821 66.432 400.491 66.5227 401.056 66.704C401.621 66.8853 402.088 67.1387 402.456 67.464C402.824 67.7893 403.096 68.1787 403.272 68.632C403.453 69.0853 403.544 69.5813 403.544 70.12C403.544 70.68 403.451 71.1947 403.264 71.664C403.077 72.128 402.797 72.528 402.424 72.864C402.051 73.2 401.581 73.4613 401.016 73.648C400.456 73.8347 399.8 73.928 399.048 73.928H397.44V78H395.288V66.432H399.048ZM406.851 66.112V78H404.875V66.112H406.851ZM413.156 74.496C412.585 74.5227 412.105 74.5733 411.716 74.648C411.326 74.7173 411.014 74.808 410.78 74.92C410.545 75.032 410.377 75.1627 410.276 75.312C410.174 75.4613 410.124 75.624 410.124 75.8C410.124 76.1467 410.225 76.3947 410.428 76.544C410.636 76.6933 410.905 76.768 411.236 76.768C411.641 76.768 411.99 76.696 412.284 76.552C412.582 76.4027 412.873 76.1787 413.156 75.88V74.496ZM408.628 70.936C409.572 70.072 410.708 69.64 412.036 69.64C412.516 69.64 412.945 69.72 413.324 69.88C413.702 70.0347 414.022 70.2533 414.284 70.536C414.545 70.8133 414.742 71.1467 414.876 71.536C415.014 71.9253 415.084 72.352 415.084 72.816V78H414.188C414.001 78 413.857 77.9733 413.756 77.92C413.654 77.8613 413.574 77.7467 413.516 77.576L413.34 76.984C413.132 77.1707 412.929 77.336 412.732 77.48C412.534 77.6187 412.329 77.736 412.116 77.832C411.902 77.928 411.673 78 411.428 78.048C411.188 78.1013 410.921 78.128 410.628 78.128C410.281 78.128 409.961 78.0827 409.668 77.992C409.374 77.896 409.121 77.7547 408.908 77.568C408.694 77.3813 408.529 77.1493 408.412 76.872C408.294 76.5947 408.236 76.272 408.236 75.904C408.236 75.696 408.27 75.4907 408.34 75.288C408.409 75.08 408.521 74.8827 408.676 74.696C408.836 74.5093 409.041 74.3333 409.292 74.168C409.542 74.0027 409.849 73.8587 410.212 73.736C410.58 73.6133 411.006 73.5147 411.492 73.44C411.977 73.36 412.532 73.312 413.156 73.296V72.816C413.156 72.2667 413.038 71.8613 412.804 71.6C412.569 71.3333 412.23 71.2 411.788 71.2C411.468 71.2 411.201 71.2373 410.988 71.312C410.78 71.3867 410.596 71.472 410.436 71.568C410.276 71.6587 410.129 71.7413 409.996 71.816C409.868 71.8907 409.724 71.928 409.564 71.928C409.425 71.928 409.308 71.8933 409.212 71.824C409.116 71.7493 409.038 71.664 408.98 71.568L408.628 70.936ZM418.793 70.8C418.958 70.6347 419.131 70.4827 419.313 70.344C419.499 70.2 419.694 70.08 419.897 69.984C420.105 69.8827 420.326 69.8053 420.561 69.752C420.795 69.6933 421.051 69.664 421.329 69.664C421.777 69.664 422.174 69.7413 422.521 69.896C422.867 70.0453 423.155 70.2587 423.385 70.536C423.619 70.808 423.795 71.136 423.913 71.52C424.035 71.8987 424.097 72.3173 424.097 72.776V78H422.121V72.776C422.121 72.2747 422.006 71.888 421.777 71.616C421.547 71.3387 421.198 71.2 420.729 71.2C420.387 71.2 420.067 71.2773 419.769 71.432C419.47 71.5867 419.187 71.7973 418.921 72.064V78H416.945V69.792H418.153C418.409 69.792 418.577 69.912 418.657 70.152L418.793 70.8Z" fill="black"/>
<path fill-rule="evenodd" clip-rule="evenodd" d="M255.81 103.24C317.478 103.494 370.954 145.936 385.204 205.936L362.056 211.433C350.344 162.122 306.394 127.24 255.712 127.032L255.81 103.24Z" fill="#0B5394"/>
<path fill-rule="evenodd" clip-rule="evenodd" d="M334.911 344.212C378.373 312.263 398.345 257.303 385.535 204.905L362.554 210.523C373.095 253.638 356.661 298.862 320.899 325.151L334.911 344.212Z" fill="#6FA8DC"/>
<path fill-rule="evenodd" clip-rule="evenodd" d="M379.605 222.062L347.447 205.747L395.92 189.905L379.605 222.062Z" fill="#0B5394"/>
<path fill-rule="evenodd" clip-rule="evenodd" d="M257.619 102.874C196.749 101.709 142.76 141.767 126.229 200.361L149.022 206.791C162.627 158.563 207.065 125.592 257.166 126.552L257.619 102.874Z" fill="#6FA8DC"/>
<path fill-rule="evenodd" clip-rule="evenodd" d="M174.682 344.361C126.94 309.143 108.157 246.651 128.571 190.948L151.982 199.528C135.38 244.83 150.656 295.654 189.483 324.295L174.682 344.361Z" fill="#9FC5E8"/>
<path fill-rule="evenodd" clip-rule="evenodd" d="M172.382 342.73C217.594 377.654 280.015 379.948 327.669 348.436L314.318 328.246C275.302 354.046 224.195 352.168 187.178 323.575L172.382 342.73Z" fill="#3D85C6"/>
<path fill-rule="evenodd" clip-rule="evenodd" d="M147.441 173.708L163.22 206.149L115 189.487L147.441 173.708Z" fill="#9FC5E8"/>
<path fill-rule="evenodd" clip-rule="evenodd" d="M307.985 350.275L312.961 314.622L343.639 355.251L307.985 350.275Z" fill="#6FA8DC"/>
<path fill-rule="evenodd" clip-rule="evenodd" d="M162.147 319.963L197.738 314.325L167.785 355.554L162.147 319.963Z" fill="#3D85C6"/>
<path fill-rule="evenodd" clip-rule="evenodd" d="M280.594 115.449L255.145 140.898V90L280.594 115.449Z" fill="#6FA8DC"/>
<path d="M191.186 161.818C191.13 161.916 191.069 161.988 191.004 162.035C190.943 162.077 190.866 162.098 190.773 162.098C190.675 162.098 190.568 162.063 190.451 161.993C190.339 161.918 190.204 161.837 190.045 161.748C189.886 161.659 189.7 161.58 189.485 161.51C189.275 161.435 189.025 161.398 188.736 161.398C188.475 161.398 188.246 161.431 188.05 161.496C187.854 161.557 187.688 161.643 187.553 161.755C187.422 161.867 187.324 162.002 187.259 162.161C187.194 162.315 187.161 162.485 187.161 162.672C187.161 162.91 187.226 163.108 187.357 163.267C187.492 163.426 187.67 163.561 187.889 163.673C188.108 163.785 188.358 163.885 188.638 163.974C188.918 164.063 189.205 164.158 189.499 164.261C189.793 164.359 190.08 164.476 190.36 164.611C190.64 164.742 190.89 164.91 191.109 165.115C191.328 165.316 191.503 165.563 191.634 165.857C191.769 166.151 191.837 166.508 191.837 166.928C191.837 167.385 191.758 167.815 191.599 168.216C191.445 168.613 191.216 168.96 190.913 169.259C190.614 169.553 190.248 169.786 189.814 169.959C189.38 170.127 188.883 170.211 188.323 170.211C188.001 170.211 187.684 170.178 187.371 170.113C187.058 170.052 186.757 169.964 186.468 169.847C186.183 169.73 185.915 169.59 185.663 169.427C185.411 169.264 185.187 169.082 184.991 168.881L185.544 167.978C185.591 167.913 185.651 167.859 185.726 167.817C185.801 167.77 185.88 167.747 185.964 167.747C186.081 167.747 186.207 167.796 186.342 167.894C186.477 167.987 186.638 168.092 186.825 168.209C187.012 168.326 187.229 168.433 187.476 168.531C187.728 168.624 188.029 168.671 188.379 168.671C188.916 168.671 189.331 168.545 189.625 168.293C189.919 168.036 190.066 167.67 190.066 167.194C190.066 166.928 189.998 166.711 189.863 166.543C189.732 166.375 189.557 166.235 189.338 166.123C189.119 166.006 188.869 165.908 188.589 165.829C188.309 165.75 188.024 165.663 187.735 165.57C187.446 165.477 187.161 165.365 186.881 165.234C186.601 165.103 186.351 164.933 186.132 164.723C185.913 164.513 185.735 164.252 185.6 163.939C185.469 163.622 185.404 163.232 185.404 162.77C185.404 162.401 185.476 162.042 185.621 161.692C185.77 161.342 185.985 161.032 186.265 160.761C186.545 160.49 186.89 160.273 187.301 160.11C187.712 159.947 188.183 159.865 188.715 159.865C189.312 159.865 189.863 159.958 190.367 160.145C190.871 160.332 191.3 160.593 191.655 160.929L191.186 161.818ZM199.271 162.917V170.099H198.214C197.986 170.099 197.841 169.994 197.78 169.784L197.661 169.21C197.367 169.509 197.043 169.751 196.688 169.938C196.334 170.12 195.916 170.211 195.435 170.211C195.043 170.211 194.696 170.146 194.392 170.015C194.094 169.88 193.842 169.691 193.636 169.448C193.431 169.205 193.275 168.918 193.167 168.587C193.065 168.251 193.013 167.882 193.013 167.481V162.917H194.742V167.481C194.742 167.92 194.843 168.26 195.043 168.503C195.249 168.741 195.554 168.86 195.96 168.86C196.259 168.86 196.539 168.795 196.8 168.664C197.062 168.529 197.309 168.344 197.542 168.111V162.917H199.271ZM202.715 168.237C202.911 168.475 203.123 168.643 203.352 168.741C203.585 168.839 203.83 168.888 204.087 168.888C204.353 168.888 204.591 168.841 204.801 168.748C205.016 168.65 205.198 168.501 205.347 168.3C205.496 168.095 205.611 167.836 205.69 167.523C205.769 167.206 205.809 166.828 205.809 166.389C205.809 165.6 205.678 165.031 205.417 164.681C205.156 164.326 204.78 164.149 204.29 164.149C203.959 164.149 203.669 164.226 203.422 164.38C203.175 164.529 202.939 164.742 202.715 165.017V168.237ZM202.715 163.799C203.004 163.496 203.324 163.255 203.674 163.078C204.029 162.896 204.432 162.805 204.885 162.805C205.3 162.805 205.674 162.887 206.005 163.05C206.341 163.213 206.626 163.449 206.859 163.757C207.097 164.06 207.279 164.429 207.405 164.863C207.531 165.297 207.594 165.785 207.594 166.326C207.594 166.909 207.522 167.439 207.377 167.915C207.232 168.391 207.025 168.799 206.754 169.14C206.488 169.476 206.166 169.737 205.788 169.924C205.41 170.111 204.99 170.204 204.528 170.204C204.304 170.204 204.101 170.181 203.919 170.134C203.737 170.092 203.569 170.031 203.415 169.952C203.261 169.873 203.119 169.777 202.988 169.665C202.862 169.548 202.741 169.42 202.624 169.28L202.547 169.763C202.519 169.884 202.47 169.971 202.4 170.022C202.335 170.073 202.244 170.099 202.127 170.099H200.986V159.697H202.715V163.799ZM208.929 170.099V162.917H209.986C210.21 162.917 210.357 163.022 210.427 163.232L210.539 163.764C210.665 163.624 210.796 163.496 210.931 163.379C211.071 163.262 211.218 163.162 211.372 163.078C211.531 162.994 211.699 162.929 211.876 162.882C212.058 162.831 212.257 162.805 212.471 162.805C212.924 162.805 213.295 162.929 213.584 163.176C213.878 163.419 214.098 163.743 214.242 164.149C214.354 163.911 214.494 163.708 214.662 163.54C214.83 163.367 215.015 163.227 215.215 163.12C215.416 163.013 215.628 162.933 215.852 162.882C216.081 162.831 216.31 162.805 216.538 162.805C216.935 162.805 217.287 162.866 217.595 162.987C217.903 163.108 218.162 163.286 218.372 163.519C218.582 163.752 218.741 164.037 218.848 164.373C218.96 164.709 219.016 165.094 219.016 165.528V170.099H217.287V165.528C217.287 165.071 217.187 164.728 216.986 164.499C216.786 164.266 216.492 164.149 216.104 164.149C215.927 164.149 215.761 164.179 215.607 164.24C215.458 164.301 215.325 164.389 215.208 164.506C215.096 164.618 215.008 164.76 214.942 164.933C214.877 165.106 214.844 165.304 214.844 165.528V170.099H213.108V165.528C213.108 165.047 213.01 164.697 212.814 164.478C212.623 164.259 212.341 164.149 211.967 164.149C211.715 164.149 211.48 164.212 211.26 164.338C211.046 164.459 210.845 164.627 210.658 164.842V170.099H208.929ZM222.452 162.917V170.099H220.716V162.917H222.452ZM222.69 160.824C222.69 160.973 222.659 161.113 222.599 161.244C222.538 161.375 222.456 161.489 222.354 161.587C222.256 161.685 222.139 161.764 222.004 161.825C221.868 161.881 221.724 161.909 221.57 161.909C221.42 161.909 221.278 161.881 221.143 161.825C221.012 161.764 220.898 161.685 220.8 161.587C220.702 161.489 220.622 161.375 220.562 161.244C220.506 161.113 220.478 160.973 220.478 160.824C220.478 160.67 220.506 160.525 220.562 160.39C220.622 160.255 220.702 160.138 220.8 160.04C220.898 159.942 221.012 159.865 221.143 159.809C221.278 159.748 221.42 159.718 221.57 159.718C221.724 159.718 221.868 159.748 222.004 159.809C222.139 159.865 222.256 159.942 222.354 160.04C222.456 160.138 222.538 160.255 222.599 160.39C222.659 160.525 222.69 160.67 222.69 160.824ZM226.608 170.211C225.983 170.211 225.502 170.036 225.166 169.686C224.835 169.331 224.669 168.844 224.669 168.223V164.212H223.934C223.841 164.212 223.762 164.182 223.696 164.121C223.631 164.06 223.598 163.969 223.598 163.848V163.162L224.753 162.973L225.117 161.013C225.141 160.92 225.185 160.847 225.25 160.796C225.316 160.745 225.4 160.719 225.502 160.719H226.398V162.98H228.316V164.212H226.398V168.104C226.398 168.328 226.452 168.503 226.559 168.629C226.671 168.755 226.823 168.818 227.014 168.818C227.122 168.818 227.21 168.806 227.28 168.783C227.355 168.755 227.418 168.727 227.469 168.699C227.525 168.671 227.574 168.645 227.616 168.622C227.658 168.594 227.7 168.58 227.742 168.58C227.794 168.58 227.836 168.594 227.868 168.622C227.901 168.645 227.936 168.683 227.973 168.734L228.491 169.574C228.239 169.784 227.95 169.943 227.623 170.05C227.297 170.157 226.958 170.211 226.608 170.211Z" fill="black"/>
<path d="M173.04 262.524H169.988V271.099H168.105V262.524H165.053V260.977H173.04V262.524ZM177.037 266.682C177.037 266.458 177.004 266.248 176.939 266.052C176.878 265.851 176.785 265.676 176.659 265.527C176.533 265.378 176.372 265.261 176.176 265.177C175.984 265.088 175.76 265.044 175.504 265.044C175.004 265.044 174.61 265.186 174.321 265.471C174.036 265.756 173.854 266.159 173.775 266.682H177.037ZM173.74 267.725C173.768 268.094 173.833 268.413 173.936 268.684C174.038 268.95 174.174 269.172 174.342 269.349C174.51 269.522 174.708 269.652 174.937 269.741C175.17 269.825 175.427 269.867 175.707 269.867C175.987 269.867 176.227 269.834 176.428 269.769C176.633 269.704 176.81 269.631 176.96 269.552C177.114 269.473 177.247 269.4 177.359 269.335C177.475 269.27 177.587 269.237 177.695 269.237C177.839 269.237 177.947 269.291 178.017 269.398L178.514 270.028C178.322 270.252 178.108 270.441 177.87 270.595C177.632 270.744 177.382 270.866 177.121 270.959C176.864 271.048 176.6 271.111 176.33 271.148C176.064 271.185 175.805 271.204 175.553 271.204C175.053 271.204 174.589 271.122 174.16 270.959C173.73 270.791 173.357 270.546 173.04 270.224C172.722 269.897 172.473 269.496 172.291 269.02C172.109 268.539 172.018 267.984 172.018 267.354C172.018 266.864 172.097 266.404 172.256 265.975C172.414 265.541 172.641 265.165 172.935 264.848C173.233 264.526 173.595 264.272 174.02 264.085C174.449 263.898 174.932 263.805 175.469 263.805C175.921 263.805 176.339 263.877 176.722 264.022C177.104 264.167 177.433 264.379 177.709 264.659C177.984 264.934 178.199 265.275 178.353 265.681C178.511 266.082 178.591 266.542 178.591 267.06C178.591 267.321 178.563 267.499 178.507 267.592C178.451 267.681 178.343 267.725 178.185 267.725H173.74ZM184.27 265.317C184.224 265.392 184.175 265.445 184.123 265.478C184.072 265.506 184.007 265.52 183.927 265.52C183.843 265.52 183.752 265.497 183.654 265.45C183.561 265.403 183.451 265.352 183.325 265.296C183.199 265.235 183.055 265.182 182.891 265.135C182.733 265.088 182.544 265.065 182.324 265.065C181.984 265.065 181.715 265.137 181.519 265.282C181.328 265.427 181.232 265.616 181.232 265.849C181.232 266.003 181.281 266.134 181.379 266.241C181.482 266.344 181.615 266.435 181.778 266.514C181.946 266.593 182.135 266.666 182.345 266.731C182.555 266.792 182.768 266.859 182.982 266.934C183.202 267.009 183.416 267.095 183.626 267.193C183.836 267.286 184.023 267.408 184.186 267.557C184.354 267.702 184.487 267.877 184.585 268.082C184.688 268.287 184.739 268.535 184.739 268.824C184.739 269.169 184.676 269.489 184.55 269.783C184.429 270.072 184.247 270.324 184.004 270.539C183.762 270.749 183.461 270.915 183.101 271.036C182.747 271.153 182.336 271.211 181.869 271.211C181.622 271.211 181.379 271.188 181.141 271.141C180.908 271.099 180.682 271.038 180.462 270.959C180.248 270.88 180.047 270.786 179.86 270.679C179.678 270.572 179.517 270.455 179.377 270.329L179.776 269.671C179.828 269.592 179.888 269.531 179.958 269.489C180.028 269.447 180.117 269.426 180.224 269.426C180.332 269.426 180.432 269.456 180.525 269.517C180.623 269.578 180.735 269.643 180.861 269.713C180.987 269.783 181.134 269.848 181.302 269.909C181.475 269.97 181.692 270 181.953 270C182.159 270 182.334 269.977 182.478 269.93C182.628 269.879 182.749 269.813 182.842 269.734C182.94 269.655 183.01 269.564 183.052 269.461C183.099 269.354 183.122 269.244 183.122 269.132C183.122 268.964 183.071 268.826 182.968 268.719C182.87 268.612 182.737 268.518 182.569 268.439C182.406 268.36 182.217 268.29 182.002 268.229C181.792 268.164 181.575 268.094 181.351 268.019C181.132 267.944 180.915 267.858 180.7 267.76C180.49 267.657 180.301 267.529 180.133 267.375C179.97 267.221 179.837 267.032 179.734 266.808C179.636 266.584 179.587 266.313 179.587 265.996C179.587 265.702 179.646 265.422 179.762 265.156C179.879 264.89 180.049 264.659 180.273 264.463C180.502 264.262 180.784 264.104 181.12 263.987C181.461 263.866 181.853 263.805 182.296 263.805C182.791 263.805 183.241 263.887 183.647 264.05C184.053 264.213 184.392 264.428 184.662 264.694L184.27 265.317ZM188.435 271.211C187.809 271.211 187.329 271.036 186.993 270.686C186.661 270.331 186.496 269.844 186.496 269.223V265.212H185.761C185.667 265.212 185.588 265.182 185.523 265.121C185.457 265.06 185.425 264.969 185.425 264.848V264.162L186.58 263.973L186.944 262.013C186.967 261.92 187.011 261.847 187.077 261.796C187.142 261.745 187.226 261.719 187.329 261.719H188.225V263.98H190.143V265.212H188.225V269.104C188.225 269.328 188.278 269.503 188.386 269.629C188.498 269.755 188.649 269.818 188.841 269.818C188.948 269.818 189.037 269.806 189.107 269.783C189.181 269.755 189.244 269.727 189.296 269.699C189.352 269.671 189.401 269.645 189.443 269.622C189.485 269.594 189.527 269.58 189.569 269.58C189.62 269.58 189.662 269.594 189.695 269.622C189.727 269.645 189.762 269.683 189.8 269.734L190.318 270.574C190.066 270.784 189.776 270.943 189.45 271.05C189.123 271.157 188.785 271.211 188.435 271.211Z" fill="black"/>
<path d="M243.551 333.629C243.901 333.629 244.195 333.587 244.433 333.503C244.671 333.419 244.86 333.307 245 333.167C245.144 333.027 245.247 332.864 245.308 332.677C245.373 332.49 245.406 332.292 245.406 332.082C245.406 331.863 245.371 331.667 245.301 331.494C245.231 331.317 245.121 331.167 244.972 331.046C244.822 330.92 244.629 330.824 244.391 330.759C244.157 330.694 243.875 330.661 243.544 330.661H241.647V333.629H243.551ZM241.647 326.433V329.359H243.145C243.789 329.359 244.274 329.242 244.601 329.009C244.932 328.776 245.098 328.405 245.098 327.896C245.098 327.369 244.948 326.993 244.65 326.769C244.351 326.545 243.884 326.433 243.25 326.433H241.647ZM243.25 324.977C243.912 324.977 244.479 325.04 244.951 325.166C245.422 325.292 245.807 325.472 246.106 325.705C246.409 325.938 246.631 326.221 246.771 326.552C246.911 326.883 246.981 327.257 246.981 327.672C246.981 327.91 246.946 328.139 246.876 328.358C246.806 328.573 246.696 328.776 246.547 328.967C246.402 329.154 246.215 329.324 245.987 329.478C245.763 329.632 245.494 329.763 245.182 329.87C246.572 330.183 247.268 330.934 247.268 332.124C247.268 332.553 247.186 332.95 247.023 333.314C246.859 333.678 246.621 333.993 246.309 334.259C245.996 334.52 245.611 334.726 245.154 334.875C244.696 335.024 244.174 335.099 243.586 335.099H239.764V324.977H243.25ZM254.771 327.917V335.099H253.714C253.485 335.099 253.34 334.994 253.28 334.784L253.161 334.21C252.867 334.509 252.542 334.751 252.188 334.938C251.833 335.12 251.415 335.211 250.935 335.211C250.543 335.211 250.195 335.146 249.892 335.015C249.593 334.88 249.341 334.691 249.136 334.448C248.93 334.205 248.774 333.918 248.667 333.587C248.564 333.251 248.513 332.882 248.513 332.481V327.917H250.242V332.481C250.242 332.92 250.342 333.26 250.543 333.503C250.748 333.741 251.054 333.86 251.46 333.86C251.758 333.86 252.038 333.795 252.3 333.664C252.561 333.529 252.808 333.344 253.042 333.111V327.917H254.771ZM258.277 327.917V335.099H256.541V327.917H258.277ZM258.515 325.824C258.515 325.973 258.485 326.113 258.424 326.244C258.363 326.375 258.282 326.489 258.179 326.587C258.081 326.685 257.964 326.764 257.829 326.825C257.694 326.881 257.549 326.909 257.395 326.909C257.246 326.909 257.103 326.881 256.968 326.825C256.837 326.764 256.723 326.685 256.625 326.587C256.527 326.489 256.448 326.375 256.387 326.244C256.331 326.113 256.303 325.973 256.303 325.824C256.303 325.67 256.331 325.525 256.387 325.39C256.448 325.255 256.527 325.138 256.625 325.04C256.723 324.942 256.837 324.865 256.968 324.809C257.103 324.748 257.246 324.718 257.395 324.718C257.549 324.718 257.694 324.748 257.829 324.809C257.964 324.865 258.081 324.942 258.179 325.04C258.282 325.138 258.363 325.255 258.424 325.39C258.485 325.525 258.515 325.67 258.515 325.824ZM261.79 324.697V335.099H260.061V324.697H261.79ZM268.02 329.751C267.824 329.513 267.61 329.345 267.376 329.247C267.148 329.149 266.9 329.1 266.634 329.1C266.373 329.1 266.137 329.149 265.927 329.247C265.717 329.345 265.538 329.494 265.388 329.695C265.239 329.891 265.125 330.143 265.045 330.451C264.966 330.754 264.926 331.114 264.926 331.529C264.926 331.949 264.959 332.306 265.024 332.6C265.094 332.889 265.192 333.127 265.318 333.314C265.444 333.496 265.598 333.629 265.78 333.713C265.962 333.792 266.165 333.832 266.389 333.832C266.749 333.832 267.054 333.757 267.306 333.608C267.558 333.459 267.796 333.246 268.02 332.971V329.751ZM269.749 324.697V335.099H268.692C268.464 335.099 268.319 334.994 268.258 334.784L268.111 334.091C267.822 334.422 267.488 334.691 267.11 334.896C266.737 335.101 266.301 335.204 265.801 335.204C265.409 335.204 265.05 335.122 264.723 334.959C264.397 334.796 264.114 334.56 263.876 334.252C263.643 333.939 263.461 333.554 263.33 333.097C263.204 332.64 263.141 332.117 263.141 331.529C263.141 330.997 263.214 330.502 263.358 330.045C263.503 329.588 263.711 329.191 263.981 328.855C264.252 328.519 264.576 328.258 264.954 328.071C265.332 327.88 265.757 327.784 266.228 327.784C266.63 327.784 266.973 327.847 267.257 327.973C267.542 328.099 267.796 328.269 268.02 328.484V324.697H269.749Z" fill="black"/>
<path d="M318.736 268.712C318.839 268.712 318.93 268.752 319.009 268.831L319.751 269.636C319.341 270.145 318.834 270.534 318.232 270.805C317.635 271.076 316.916 271.211 316.076 271.211C315.325 271.211 314.648 271.083 314.046 270.826C313.449 270.569 312.938 270.212 312.513 269.755C312.089 269.298 311.762 268.752 311.533 268.117C311.309 267.482 311.197 266.789 311.197 266.038C311.197 265.277 311.319 264.582 311.561 263.952C311.804 263.317 312.145 262.771 312.583 262.314C313.027 261.857 313.554 261.502 314.165 261.25C314.777 260.993 315.453 260.865 316.195 260.865C316.933 260.865 317.586 260.986 318.155 261.229C318.729 261.472 319.217 261.789 319.618 262.181L318.988 263.056C318.951 263.112 318.902 263.161 318.841 263.203C318.785 263.245 318.706 263.266 318.603 263.266C318.533 263.266 318.461 263.247 318.386 263.21C318.312 263.168 318.23 263.119 318.141 263.063C318.053 263.002 317.95 262.937 317.833 262.867C317.717 262.797 317.581 262.734 317.427 262.678C317.273 262.617 317.094 262.568 316.888 262.531C316.688 262.489 316.454 262.468 316.188 262.468C315.736 262.468 315.32 262.55 314.942 262.713C314.569 262.872 314.247 263.105 313.976 263.413C313.706 263.716 313.496 264.09 313.346 264.533C313.197 264.972 313.122 265.473 313.122 266.038C313.122 266.607 313.202 267.114 313.36 267.557C313.524 268 313.743 268.374 314.018 268.677C314.294 268.98 314.618 269.214 314.991 269.377C315.365 269.536 315.766 269.615 316.195 269.615C316.452 269.615 316.683 269.601 316.888 269.573C317.098 269.545 317.29 269.501 317.462 269.44C317.64 269.379 317.805 269.302 317.959 269.209C318.118 269.111 318.274 268.992 318.428 268.852C318.475 268.81 318.524 268.777 318.575 268.754C318.627 268.726 318.68 268.712 318.736 268.712ZM322.497 264.687C322.777 264.426 323.085 264.213 323.421 264.05C323.757 263.887 324.151 263.805 324.604 263.805C324.996 263.805 325.344 263.873 325.647 264.008C325.95 264.139 326.202 264.325 326.403 264.568C326.608 264.806 326.762 265.093 326.865 265.429C326.972 265.76 327.026 266.127 327.026 266.528V271.099H325.297V266.528C325.297 266.089 325.197 265.751 324.996 265.513C324.795 265.27 324.49 265.149 324.079 265.149C323.78 265.149 323.5 265.217 323.239 265.352C322.978 265.487 322.73 265.672 322.497 265.905V271.099H320.768V260.697H322.497V264.687ZM332.464 268.033C331.965 268.056 331.545 268.101 331.204 268.166C330.864 268.227 330.591 268.306 330.385 268.404C330.18 268.502 330.033 268.616 329.944 268.747C329.856 268.878 329.811 269.02 329.811 269.174C329.811 269.477 329.9 269.694 330.077 269.825C330.259 269.956 330.495 270.021 330.784 270.021C331.139 270.021 331.445 269.958 331.701 269.832C331.963 269.701 332.217 269.505 332.464 269.244V268.033ZM328.502 264.918C329.328 264.162 330.322 263.784 331.484 263.784C331.904 263.784 332.28 263.854 332.611 263.994C332.943 264.129 333.223 264.321 333.451 264.568C333.68 264.811 333.853 265.102 333.969 265.443C334.091 265.784 334.151 266.157 334.151 266.563V271.099H333.367C333.204 271.099 333.078 271.076 332.989 271.029C332.901 270.978 332.831 270.877 332.779 270.728L332.625 270.21C332.443 270.373 332.266 270.518 332.093 270.644C331.921 270.765 331.741 270.868 331.554 270.952C331.368 271.036 331.167 271.099 330.952 271.141C330.742 271.188 330.509 271.211 330.252 271.211C329.949 271.211 329.669 271.171 329.412 271.092C329.156 271.008 328.934 270.884 328.747 270.721C328.561 270.558 328.416 270.355 328.313 270.112C328.211 269.869 328.159 269.587 328.159 269.265C328.159 269.083 328.19 268.903 328.25 268.726C328.311 268.544 328.409 268.371 328.544 268.208C328.684 268.045 328.864 267.891 329.083 267.746C329.303 267.601 329.571 267.475 329.888 267.368C330.21 267.261 330.584 267.174 331.008 267.109C331.433 267.039 331.918 266.997 332.464 266.983V266.563C332.464 266.082 332.362 265.728 332.156 265.499C331.951 265.266 331.655 265.149 331.267 265.149C330.987 265.149 330.754 265.182 330.567 265.247C330.385 265.312 330.224 265.387 330.084 265.471C329.944 265.55 329.816 265.623 329.699 265.688C329.587 265.753 329.461 265.786 329.321 265.786C329.2 265.786 329.097 265.756 329.013 265.695C328.929 265.63 328.862 265.555 328.81 265.471L328.502 264.918ZM337.397 264.799C337.541 264.654 337.693 264.521 337.852 264.4C338.015 264.274 338.185 264.169 338.363 264.085C338.545 263.996 338.738 263.929 338.944 263.882C339.149 263.831 339.373 263.805 339.616 263.805C340.008 263.805 340.355 263.873 340.659 264.008C340.962 264.139 341.214 264.325 341.415 264.568C341.62 264.806 341.774 265.093 341.877 265.429C341.984 265.76 342.038 266.127 342.038 266.528V271.099H340.309V266.528C340.309 266.089 340.208 265.751 340.008 265.513C339.807 265.27 339.501 265.149 339.091 265.149C338.792 265.149 338.512 265.217 338.251 265.352C337.989 265.487 337.742 265.672 337.509 265.905V271.099H335.78V263.917H336.837C337.061 263.917 337.208 264.022 337.278 264.232L337.397 264.799ZM346.307 267.333C346.522 267.333 346.708 267.305 346.867 267.249C347.026 267.188 347.156 267.107 347.259 267.004C347.366 266.901 347.446 266.778 347.497 266.633C347.553 266.488 347.581 266.33 347.581 266.157C347.581 265.802 347.474 265.522 347.259 265.317C347.049 265.107 346.732 265.002 346.307 265.002C345.882 265.002 345.563 265.107 345.348 265.317C345.138 265.522 345.033 265.802 345.033 266.157C345.033 266.325 345.059 266.481 345.11 266.626C345.166 266.771 345.245 266.897 345.348 267.004C345.455 267.107 345.588 267.188 345.747 267.249C345.91 267.305 346.097 267.333 346.307 267.333ZM348.26 271.421C348.26 271.281 348.218 271.167 348.134 271.078C348.05 270.989 347.936 270.922 347.791 270.875C347.646 270.824 347.476 270.786 347.28 270.763C347.089 270.74 346.883 270.723 346.664 270.714C346.449 270.7 346.225 270.688 345.992 270.679C345.763 270.67 345.539 270.651 345.32 270.623C345.129 270.73 344.972 270.856 344.851 271.001C344.734 271.146 344.676 271.314 344.676 271.505C344.676 271.631 344.706 271.748 344.767 271.855C344.832 271.967 344.933 272.063 345.068 272.142C345.208 272.221 345.388 272.282 345.607 272.324C345.826 272.371 346.095 272.394 346.412 272.394C346.734 272.394 347.012 272.368 347.245 272.317C347.478 272.27 347.67 272.203 347.819 272.114C347.973 272.03 348.085 271.927 348.155 271.806C348.225 271.689 348.26 271.561 348.26 271.421ZM349.982 264.162V264.806C349.982 265.011 349.858 265.137 349.611 265.184L348.967 265.303C349.065 265.55 349.114 265.821 349.114 266.115C349.114 266.47 349.042 266.792 348.897 267.081C348.757 267.366 348.561 267.608 348.309 267.809C348.057 268.01 347.758 268.166 347.413 268.278C347.072 268.385 346.704 268.439 346.307 268.439C346.167 268.439 346.032 268.432 345.901 268.418C345.77 268.404 345.642 268.385 345.516 268.362C345.292 268.497 345.18 268.649 345.18 268.817C345.18 268.962 345.245 269.069 345.376 269.139C345.511 269.204 345.689 269.251 345.908 269.279C346.127 269.307 346.377 269.326 346.657 269.335C346.937 269.34 347.224 269.354 347.518 269.377C347.812 269.4 348.099 269.442 348.379 269.503C348.659 269.559 348.909 269.65 349.128 269.776C349.347 269.902 349.522 270.075 349.653 270.294C349.788 270.509 349.856 270.786 349.856 271.127C349.856 271.444 349.777 271.752 349.618 272.051C349.464 272.35 349.238 272.616 348.939 272.849C348.645 273.082 348.281 273.269 347.847 273.409C347.418 273.554 346.928 273.626 346.377 273.626C345.836 273.626 345.364 273.572 344.963 273.465C344.562 273.362 344.228 273.222 343.962 273.045C343.696 272.872 343.498 272.672 343.367 272.443C343.236 272.214 343.171 271.976 343.171 271.729C343.171 271.393 343.271 271.113 343.472 270.889C343.677 270.66 343.957 270.478 344.312 270.343C344.121 270.245 343.969 270.114 343.857 269.951C343.745 269.788 343.689 269.573 343.689 269.307C343.689 269.2 343.708 269.09 343.745 268.978C343.787 268.861 343.845 268.747 343.92 268.635C343.999 268.523 344.097 268.418 344.214 268.32C344.331 268.217 344.468 268.126 344.627 268.047C344.263 267.851 343.976 267.59 343.766 267.263C343.561 266.936 343.458 266.554 343.458 266.115C343.458 265.76 343.528 265.441 343.668 265.156C343.813 264.867 344.011 264.622 344.263 264.421C344.52 264.216 344.821 264.059 345.166 263.952C345.516 263.845 345.896 263.791 346.307 263.791C346.615 263.791 346.904 263.824 347.175 263.889C347.446 263.95 347.693 264.041 347.917 264.162H349.982ZM355.583 266.682C355.583 266.458 355.55 266.248 355.485 266.052C355.424 265.851 355.331 265.676 355.205 265.527C355.079 265.378 354.918 265.261 354.722 265.177C354.53 265.088 354.306 265.044 354.05 265.044C353.55 265.044 353.156 265.186 352.867 265.471C352.582 265.756 352.4 266.159 352.321 266.682H355.583ZM352.286 267.725C352.314 268.094 352.379 268.413 352.482 268.684C352.584 268.95 352.72 269.172 352.888 269.349C353.056 269.522 353.254 269.652 353.483 269.741C353.716 269.825 353.973 269.867 354.253 269.867C354.533 269.867 354.773 269.834 354.974 269.769C355.179 269.704 355.356 269.631 355.506 269.552C355.66 269.473 355.793 269.4 355.905 269.335C356.021 269.27 356.133 269.237 356.241 269.237C356.385 269.237 356.493 269.291 356.563 269.398L357.06 270.028C356.868 270.252 356.654 270.441 356.416 270.595C356.178 270.744 355.928 270.866 355.667 270.959C355.41 271.048 355.146 271.111 354.876 271.148C354.61 271.185 354.351 271.204 354.099 271.204C353.599 271.204 353.135 271.122 352.706 270.959C352.276 270.791 351.903 270.546 351.586 270.224C351.268 269.897 351.019 269.496 350.837 269.02C350.655 268.539 350.564 267.984 350.564 267.354C350.564 266.864 350.643 266.404 350.802 265.975C350.96 265.541 351.187 265.165 351.481 264.848C351.779 264.526 352.141 264.272 352.566 264.085C352.995 263.898 353.478 263.805 354.015 263.805C354.467 263.805 354.885 263.877 355.268 264.022C355.65 264.167 355.979 264.379 356.255 264.659C356.53 264.934 356.745 265.275 356.899 265.681C357.057 266.082 357.137 266.542 357.137 267.06C357.137 267.321 357.109 267.499 357.053 267.592C356.997 267.681 356.889 267.725 356.731 267.725H352.286Z" fill="black"/>
<path d="M296.274 164.793C296.629 164.793 296.937 164.749 297.198 164.66C297.464 164.571 297.681 164.45 297.849 164.296C298.022 164.137 298.15 163.951 298.234 163.736C298.318 163.521 298.36 163.286 298.36 163.029C298.36 162.516 298.19 162.121 297.849 161.846C297.513 161.571 296.997 161.433 296.302 161.433H295.098V164.793H296.274ZM301.118 170.099H299.417C299.095 170.099 298.862 169.973 298.717 169.721L296.589 166.48C296.51 166.359 296.421 166.272 296.323 166.221C296.23 166.17 296.09 166.144 295.903 166.144H295.098V170.099H293.215V159.977H296.302C296.988 159.977 297.576 160.049 298.066 160.194C298.561 160.334 298.964 160.532 299.277 160.789C299.594 161.046 299.828 161.354 299.977 161.713C300.126 162.068 300.201 162.46 300.201 162.889C300.201 163.23 300.15 163.552 300.047 163.855C299.949 164.158 299.804 164.434 299.613 164.681C299.426 164.928 299.193 165.145 298.913 165.332C298.638 165.519 298.323 165.666 297.968 165.773C298.089 165.843 298.201 165.927 298.304 166.025C298.407 166.118 298.5 166.23 298.584 166.361L301.118 170.099ZM306.1 165.682C306.1 165.458 306.067 165.248 306.002 165.052C305.941 164.851 305.848 164.676 305.722 164.527C305.596 164.378 305.435 164.261 305.239 164.177C305.048 164.088 304.824 164.044 304.567 164.044C304.068 164.044 303.673 164.186 303.384 164.471C303.099 164.756 302.917 165.159 302.838 165.682H306.1ZM302.803 166.725C302.831 167.094 302.896 167.413 302.999 167.684C303.102 167.95 303.237 168.172 303.405 168.349C303.573 168.522 303.771 168.652 304 168.741C304.233 168.825 304.49 168.867 304.77 168.867C305.05 168.867 305.29 168.834 305.491 168.769C305.696 168.704 305.874 168.631 306.023 168.552C306.177 168.473 306.31 168.4 306.422 168.335C306.539 168.27 306.651 168.237 306.758 168.237C306.903 168.237 307.01 168.291 307.08 168.398L307.577 169.028C307.386 169.252 307.171 169.441 306.933 169.595C306.695 169.744 306.445 169.866 306.184 169.959C305.927 170.048 305.664 170.111 305.393 170.148C305.127 170.185 304.868 170.204 304.616 170.204C304.117 170.204 303.652 170.122 303.223 169.959C302.794 169.791 302.42 169.546 302.103 169.224C301.786 168.897 301.536 168.496 301.354 168.02C301.172 167.539 301.081 166.984 301.081 166.354C301.081 165.864 301.16 165.404 301.319 164.975C301.478 164.541 301.704 164.165 301.998 163.848C302.297 163.526 302.658 163.272 303.083 163.085C303.512 162.898 303.995 162.805 304.532 162.805C304.985 162.805 305.402 162.877 305.785 163.022C306.168 163.167 306.497 163.379 306.772 163.659C307.047 163.934 307.262 164.275 307.416 164.681C307.575 165.082 307.654 165.542 307.654 166.06C307.654 166.321 307.626 166.499 307.57 166.592C307.514 166.681 307.407 166.725 307.248 166.725H302.803ZM312.746 167.033C312.246 167.056 311.826 167.101 311.486 167.166C311.145 167.227 310.872 167.306 310.667 167.404C310.461 167.502 310.314 167.616 310.226 167.747C310.137 167.878 310.093 168.02 310.093 168.174C310.093 168.477 310.181 168.694 310.359 168.825C310.541 168.956 310.776 169.021 311.066 169.021C311.42 169.021 311.726 168.958 311.983 168.832C312.244 168.701 312.498 168.505 312.746 168.244V167.033ZM308.784 163.918C309.61 163.162 310.604 162.784 311.766 162.784C312.186 162.784 312.561 162.854 312.893 162.994C313.224 163.129 313.504 163.321 313.733 163.568C313.961 163.811 314.134 164.102 314.251 164.443C314.372 164.784 314.433 165.157 314.433 165.563V170.099H313.649C313.485 170.099 313.359 170.076 313.271 170.029C313.182 169.978 313.112 169.877 313.061 169.728L312.907 169.21C312.725 169.373 312.547 169.518 312.375 169.644C312.202 169.765 312.022 169.868 311.836 169.952C311.649 170.036 311.448 170.099 311.234 170.141C311.024 170.188 310.79 170.211 310.534 170.211C310.23 170.211 309.95 170.171 309.694 170.092C309.437 170.008 309.215 169.884 309.029 169.721C308.842 169.558 308.697 169.355 308.595 169.112C308.492 168.869 308.441 168.587 308.441 168.265C308.441 168.083 308.471 167.903 308.532 167.726C308.592 167.544 308.69 167.371 308.826 167.208C308.966 167.045 309.145 166.891 309.365 166.746C309.584 166.601 309.852 166.475 310.17 166.368C310.492 166.261 310.865 166.174 311.29 166.109C311.714 166.039 312.2 165.997 312.746 165.983V165.563C312.746 165.082 312.643 164.728 312.438 164.499C312.232 164.266 311.936 164.149 311.549 164.149C311.269 164.149 311.035 164.182 310.849 164.247C310.667 164.312 310.506 164.387 310.366 164.471C310.226 164.55 310.097 164.623 309.981 164.688C309.869 164.753 309.743 164.786 309.603 164.786C309.481 164.786 309.379 164.756 309.295 164.695C309.211 164.63 309.143 164.555 309.092 164.471L308.784 163.918ZM320.569 164.751C320.373 164.513 320.158 164.345 319.925 164.247C319.696 164.149 319.449 164.1 319.183 164.1C318.922 164.1 318.686 164.149 318.476 164.247C318.266 164.345 318.086 164.494 317.937 164.695C317.788 164.891 317.673 165.143 317.594 165.451C317.515 165.754 317.475 166.114 317.475 166.529C317.475 166.949 317.508 167.306 317.573 167.6C317.643 167.889 317.741 168.127 317.867 168.314C317.993 168.496 318.147 168.629 318.329 168.713C318.511 168.792 318.714 168.832 318.938 168.832C319.297 168.832 319.603 168.757 319.855 168.608C320.107 168.459 320.345 168.246 320.569 167.971V164.751ZM322.298 159.697V170.099H321.241C321.012 170.099 320.868 169.994 320.807 169.784L320.66 169.091C320.371 169.422 320.037 169.691 319.659 169.896C319.286 170.101 318.849 170.204 318.35 170.204C317.958 170.204 317.599 170.122 317.272 169.959C316.945 169.796 316.663 169.56 316.425 169.252C316.192 168.939 316.01 168.554 315.879 168.097C315.753 167.64 315.69 167.117 315.69 166.529C315.69 165.997 315.762 165.502 315.907 165.045C316.052 164.588 316.259 164.191 316.53 163.855C316.801 163.519 317.125 163.258 317.503 163.071C317.881 162.88 318.306 162.784 318.777 162.784C319.178 162.784 319.521 162.847 319.806 162.973C320.091 163.099 320.345 163.269 320.569 163.484V159.697H322.298Z" fill="black"/>
</svg>
